G04 #@! TF.GenerationSoftware,KiCad,Pcbnew,5.1.5*
G04 #@! TF.CreationDate,2019-12-22T23:03:36+01:00*
G04 #@! TF.ProjectId,hh2020v1,68683230-3230-4763-912e-6b696361645f,rev?*
G04 #@! TF.SameCoordinates,Original*
G04 #@! TF.FileFunction,Soldermask,Bot*
G04 #@! TF.FilePolarity,Negative*
%FSLAX46Y46*%
G04 Gerber Fmt 4.6, Leading zero omitted, Abs format (unit mm)*
G04 Created by KiCad (PCBNEW 5.1.5) date 2019-12-22 23:03:36*
%MOMM*%
%LPD*%
G04 APERTURE LIST*
%ADD10C,0.100000*%
%ADD11R,0.900000X0.800000*%
%ADD12R,0.900000X0.700000*%
%ADD13R,0.700000X0.900000*%
%ADD14C,1.700000*%
%ADD15C,1.700000*%
%ADD16C,0.900000*%
%ADD17C,2.000000*%
%ADD18R,2.000000X2.000000*%
%ADD19R,0.500000X0.900000*%
%ADD20R,1.000000X1.000000*%
%ADD21R,1.060000X0.650000*%
%ADD22R,1.500000X1.950000*%
%ADD23R,1.950000X1.500000*%
%ADD24R,0.750000X0.800000*%
%ADD25R,0.800000X0.750000*%
%ADD26R,0.900000X1.200000*%
%ADD27R,0.900000X0.500000*%
%ADD28R,0.800000X0.900000*%
%ADD29C,1.500000*%
%ADD30R,2.500000X1.200000*%
%ADD31R,1.000000X1.500000*%
%ADD32R,1.000000X1.800000*%
%ADD33R,2.200000X1.840000*%
%ADD34R,1.143000X0.508000*%
%ADD35R,2.600000X8.200000*%
G04 APERTURE END LIST*
D10*
G36*
X75813920Y-55765700D02*
G01*
X75420220Y-56692800D01*
X74391520Y-58356500D01*
X73858120Y-59055000D01*
X73172320Y-59715400D01*
X73019920Y-59715400D01*
X70213220Y-57683400D01*
X69705220Y-56362600D01*
X69971920Y-55435500D01*
X70137020Y-54838600D01*
X70505320Y-54813200D01*
X72613520Y-54851300D01*
X74251820Y-54825900D01*
X75102720Y-54787800D01*
X75813920Y-55765700D01*
G37*
X75813920Y-55765700D02*
X75420220Y-56692800D01*
X74391520Y-58356500D01*
X73858120Y-59055000D01*
X73172320Y-59715400D01*
X73019920Y-59715400D01*
X70213220Y-57683400D01*
X69705220Y-56362600D01*
X69971920Y-55435500D01*
X70137020Y-54838600D01*
X70505320Y-54813200D01*
X72613520Y-54851300D01*
X74251820Y-54825900D01*
X75102720Y-54787800D01*
X75813920Y-55765700D01*
G36*
X91749974Y-41060200D02*
G01*
X96845120Y-47917100D01*
X100998020Y-57277000D01*
X102509320Y-63119000D01*
X101074220Y-65379600D01*
X95511620Y-72898000D01*
X94559120Y-67729100D01*
X92489020Y-62966600D01*
X89288620Y-60363100D01*
X91295220Y-50711100D01*
X91749974Y-41060200D01*
X91739720Y-41046400D01*
X91752420Y-41008300D01*
X91749974Y-41060200D01*
G37*
X91749974Y-41060200D02*
X96845120Y-47917100D01*
X100998020Y-57277000D01*
X102509320Y-63119000D01*
X101074220Y-65379600D01*
X95511620Y-72898000D01*
X94559120Y-67729100D01*
X92489020Y-62966600D01*
X89288620Y-60363100D01*
X91295220Y-50711100D01*
X91749974Y-41060200D01*
X91739720Y-41046400D01*
X91752420Y-41008300D01*
X91749974Y-41060200D01*
G36*
X102052120Y-64985900D02*
G01*
X102483920Y-66471800D01*
X103068120Y-71094600D01*
X103030020Y-75018900D01*
X102636320Y-78270100D01*
X95321120Y-81927700D01*
X93873320Y-81597500D01*
X94140020Y-79971900D01*
X95003620Y-79108300D01*
X95562420Y-73418700D01*
X101264720Y-65684400D01*
X101861620Y-64884300D01*
X101887020Y-64884300D01*
X102052120Y-64985900D01*
G37*
X102052120Y-64985900D02*
X102483920Y-66471800D01*
X103068120Y-71094600D01*
X103030020Y-75018900D01*
X102636320Y-78270100D01*
X95321120Y-81927700D01*
X93873320Y-81597500D01*
X94140020Y-79971900D01*
X95003620Y-79108300D01*
X95562420Y-73418700D01*
X101264720Y-65684400D01*
X101861620Y-64884300D01*
X101887020Y-64884300D01*
X102052120Y-64985900D01*
G36*
X102344220Y-79133700D02*
G01*
X102166420Y-80949800D01*
X101531420Y-85458300D01*
X100502720Y-88963500D01*
X99601020Y-91046300D01*
X94076520Y-91363800D01*
X93314520Y-90944700D01*
X92514420Y-88582500D01*
X92654120Y-86829900D01*
X93606620Y-85128100D01*
X94495620Y-82677000D01*
X99308920Y-80670400D01*
X102217220Y-79108300D01*
X102268020Y-79108300D01*
X102344220Y-79133700D01*
G37*
X102344220Y-79133700D02*
X102166420Y-80949800D01*
X101531420Y-85458300D01*
X100502720Y-88963500D01*
X99601020Y-91046300D01*
X94076520Y-91363800D01*
X93314520Y-90944700D01*
X92514420Y-88582500D01*
X92654120Y-86829900D01*
X93606620Y-85128100D01*
X94495620Y-82677000D01*
X99308920Y-80670400D01*
X102217220Y-79108300D01*
X102268020Y-79108300D01*
X102344220Y-79133700D01*
G36*
X99435920Y-91541600D02*
G01*
X99347020Y-92214700D01*
X97530920Y-96520000D01*
X96337120Y-98793300D01*
X91968320Y-98691700D01*
X91015820Y-98361500D01*
X90863420Y-95415100D01*
X93225620Y-92824300D01*
X93416120Y-92252800D01*
X93555820Y-91694000D01*
X99372420Y-91516200D01*
X99435920Y-91541600D01*
G37*
X99435920Y-91541600D02*
X99347020Y-92214700D01*
X97530920Y-96520000D01*
X96337120Y-98793300D01*
X91968320Y-98691700D01*
X91015820Y-98361500D01*
X90863420Y-95415100D01*
X93225620Y-92824300D01*
X93416120Y-92252800D01*
X93555820Y-91694000D01*
X99372420Y-91516200D01*
X99435920Y-91541600D01*
G36*
X95727520Y-99415600D02*
G01*
X95752920Y-99415600D01*
X95905320Y-99555300D01*
X95308420Y-100520500D01*
X93301820Y-102984300D01*
X92235020Y-104419400D01*
X91854020Y-104571800D01*
X90533220Y-104317800D01*
X89771220Y-103886000D01*
X89593420Y-103200200D01*
X90126820Y-102209600D01*
X90012520Y-99479100D01*
X90177620Y-99364800D01*
X90609420Y-99415600D01*
X90926920Y-98793300D01*
X95727520Y-99415600D01*
G37*
X95727520Y-99415600D02*
X95752920Y-99415600D01*
X95905320Y-99555300D01*
X95308420Y-100520500D01*
X93301820Y-102984300D01*
X92235020Y-104419400D01*
X91854020Y-104571800D01*
X90533220Y-104317800D01*
X89771220Y-103886000D01*
X89593420Y-103200200D01*
X90126820Y-102209600D01*
X90012520Y-99479100D01*
X90177620Y-99364800D01*
X90609420Y-99415600D01*
X90926920Y-98793300D01*
X95727520Y-99415600D01*
G36*
X70124320Y-83832700D02*
G01*
X70594220Y-84124800D01*
X71000620Y-85039200D01*
X71026020Y-85928200D01*
X70924420Y-86385400D01*
X70454520Y-86982300D01*
X69781420Y-87376000D01*
X69032120Y-87287100D01*
X68333620Y-87071200D01*
X68041520Y-86791800D01*
X67749420Y-85966300D01*
X67812920Y-85064600D01*
X68117720Y-84289900D01*
X68740020Y-83858100D01*
X69476620Y-83731100D01*
X69502020Y-83718400D01*
X69654420Y-83693000D01*
X70124320Y-83832700D01*
G37*
X70124320Y-83832700D02*
X70594220Y-84124800D01*
X71000620Y-85039200D01*
X71026020Y-85928200D01*
X70924420Y-86385400D01*
X70454520Y-86982300D01*
X69781420Y-87376000D01*
X69032120Y-87287100D01*
X68333620Y-87071200D01*
X68041520Y-86791800D01*
X67749420Y-85966300D01*
X67812920Y-85064600D01*
X68117720Y-84289900D01*
X68740020Y-83858100D01*
X69476620Y-83731100D01*
X69502020Y-83718400D01*
X69654420Y-83693000D01*
X70124320Y-83832700D01*
G36*
X63596520Y-84594700D02*
G01*
X63609220Y-84632800D01*
X64015620Y-84924900D01*
X64409320Y-85458300D01*
X64637920Y-86131400D01*
X64676020Y-86690200D01*
X64409320Y-87591900D01*
X63939420Y-88341200D01*
X63482220Y-88328500D01*
X62936120Y-88087200D01*
X61564520Y-87249000D01*
X61488320Y-86829900D01*
X61412120Y-85064600D01*
X61424820Y-84658200D01*
X62250320Y-84416900D01*
X63190120Y-84366100D01*
X63596520Y-84594700D01*
G37*
X63596520Y-84594700D02*
X63609220Y-84632800D01*
X64015620Y-84924900D01*
X64409320Y-85458300D01*
X64637920Y-86131400D01*
X64676020Y-86690200D01*
X64409320Y-87591900D01*
X63939420Y-88341200D01*
X63482220Y-88328500D01*
X62936120Y-88087200D01*
X61564520Y-87249000D01*
X61488320Y-86829900D01*
X61412120Y-85064600D01*
X61424820Y-84658200D01*
X62250320Y-84416900D01*
X63190120Y-84366100D01*
X63596520Y-84594700D01*
G36*
X76182220Y-84429600D02*
G01*
X76639420Y-84543900D01*
X76880720Y-84759800D01*
X76982320Y-85344000D01*
X77033120Y-85902800D01*
X76893420Y-86893400D01*
X76639420Y-87401400D01*
X75483720Y-88061800D01*
X74607420Y-88417400D01*
X74366120Y-88252300D01*
X74099420Y-87693500D01*
X73807320Y-86918800D01*
X73756520Y-86461600D01*
X73807320Y-86106000D01*
X73972420Y-85661500D01*
X74429620Y-84963000D01*
X74912220Y-84620100D01*
X75394820Y-84416900D01*
X75432920Y-84404200D01*
X75496420Y-84366100D01*
X75813920Y-84366100D01*
X76182220Y-84429600D01*
G37*
X76182220Y-84429600D02*
X76639420Y-84543900D01*
X76880720Y-84759800D01*
X76982320Y-85344000D01*
X77033120Y-85902800D01*
X76893420Y-86893400D01*
X76639420Y-87401400D01*
X75483720Y-88061800D01*
X74607420Y-88417400D01*
X74366120Y-88252300D01*
X74099420Y-87693500D01*
X73807320Y-86918800D01*
X73756520Y-86461600D01*
X73807320Y-86106000D01*
X73972420Y-85661500D01*
X74429620Y-84963000D01*
X74912220Y-84620100D01*
X75394820Y-84416900D01*
X75432920Y-84404200D01*
X75496420Y-84366100D01*
X75813920Y-84366100D01*
X76182220Y-84429600D01*
G36*
X46197520Y-43865800D02*
G01*
X46222920Y-43903900D01*
X46197520Y-49072800D01*
X46642020Y-53619400D01*
X47124620Y-56388000D01*
X47442120Y-57480200D01*
X48369220Y-60553600D01*
X48788320Y-62280800D01*
X48762920Y-62560200D01*
X47581820Y-63538100D01*
X47175420Y-63995300D01*
X46324520Y-64960500D01*
X45956220Y-65646300D01*
X45600620Y-66128900D01*
X45295820Y-66802000D01*
X45079920Y-67792600D01*
X45079920Y-68630800D01*
X45346620Y-69443600D01*
X45321220Y-69900800D01*
X44102020Y-70929500D01*
X43784520Y-70916800D01*
X42946320Y-71793100D01*
X42654220Y-72351900D01*
X42184320Y-74549000D01*
X41930320Y-74460100D01*
X40279320Y-72504300D01*
X38374320Y-69837300D01*
X36609020Y-67208400D01*
X36215320Y-66484500D01*
X36202620Y-65735200D01*
X36545520Y-63563500D01*
X36469320Y-63131700D01*
X37015420Y-61087000D01*
X38094920Y-58381900D01*
X39072820Y-55689500D01*
X40355520Y-52666900D01*
X41282620Y-50673000D01*
X42552620Y-48539400D01*
X44470320Y-45783500D01*
X45981620Y-43840400D01*
X46197520Y-43865800D01*
G37*
X46197520Y-43865800D02*
X46222920Y-43903900D01*
X46197520Y-49072800D01*
X46642020Y-53619400D01*
X47124620Y-56388000D01*
X47442120Y-57480200D01*
X48369220Y-60553600D01*
X48788320Y-62280800D01*
X48762920Y-62560200D01*
X47581820Y-63538100D01*
X47175420Y-63995300D01*
X46324520Y-64960500D01*
X45956220Y-65646300D01*
X45600620Y-66128900D01*
X45295820Y-66802000D01*
X45079920Y-67792600D01*
X45079920Y-68630800D01*
X45346620Y-69443600D01*
X45321220Y-69900800D01*
X44102020Y-70929500D01*
X43784520Y-70916800D01*
X42946320Y-71793100D01*
X42654220Y-72351900D01*
X42184320Y-74549000D01*
X41930320Y-74460100D01*
X40279320Y-72504300D01*
X38374320Y-69837300D01*
X36609020Y-67208400D01*
X36215320Y-66484500D01*
X36202620Y-65735200D01*
X36545520Y-63563500D01*
X36469320Y-63131700D01*
X37015420Y-61087000D01*
X38094920Y-58381900D01*
X39072820Y-55689500D01*
X40355520Y-52666900D01*
X41282620Y-50673000D01*
X42552620Y-48539400D01*
X44470320Y-45783500D01*
X45981620Y-43840400D01*
X46197520Y-43865800D01*
G36*
X36443920Y-67868800D02*
G01*
X39834820Y-72567800D01*
X42311320Y-75565000D01*
X42654220Y-77774800D01*
X43073320Y-79044800D01*
X44127420Y-80962500D01*
X44571920Y-81826100D01*
X44635420Y-82232500D01*
X44165520Y-84112100D01*
X43721020Y-84531200D01*
X43086020Y-84683600D01*
X42514520Y-84429600D01*
X40444420Y-83451700D01*
X36837620Y-81762600D01*
X35974020Y-81229200D01*
X35720020Y-80568800D01*
X35567620Y-79133700D01*
X35427920Y-78016100D01*
X35364420Y-74637900D01*
X35415220Y-72872600D01*
X35681920Y-70269100D01*
X36062920Y-68249800D01*
X36291520Y-67830700D01*
X36405820Y-67830700D01*
X36443920Y-67868800D01*
G37*
X36443920Y-67868800D02*
X39834820Y-72567800D01*
X42311320Y-75565000D01*
X42654220Y-77774800D01*
X43073320Y-79044800D01*
X44127420Y-80962500D01*
X44571920Y-81826100D01*
X44635420Y-82232500D01*
X44165520Y-84112100D01*
X43721020Y-84531200D01*
X43086020Y-84683600D01*
X42514520Y-84429600D01*
X40444420Y-83451700D01*
X36837620Y-81762600D01*
X35974020Y-81229200D01*
X35720020Y-80568800D01*
X35567620Y-79133700D01*
X35427920Y-78016100D01*
X35364420Y-74637900D01*
X35415220Y-72872600D01*
X35681920Y-70269100D01*
X36062920Y-68249800D01*
X36291520Y-67830700D01*
X36405820Y-67830700D01*
X36443920Y-67868800D01*
G36*
X36526470Y-82950050D02*
G01*
X38698170Y-83724750D01*
X40228520Y-84302600D01*
X43682920Y-86677500D01*
X44508420Y-89217500D01*
X46273720Y-90792300D01*
X46464220Y-91211400D01*
X45181520Y-94056200D01*
X44216320Y-94208600D01*
X39009320Y-93929200D01*
X38755320Y-93548200D01*
X38336220Y-92265500D01*
X37650420Y-90538300D01*
X37066220Y-88201500D01*
X36647120Y-86156800D01*
X36291520Y-83972400D01*
X36139120Y-82867500D01*
X36215320Y-82638900D01*
X36526470Y-82950050D01*
G37*
X36526470Y-82950050D02*
X38698170Y-83724750D01*
X40228520Y-84302600D01*
X43682920Y-86677500D01*
X44508420Y-89217500D01*
X46273720Y-90792300D01*
X46464220Y-91211400D01*
X45181520Y-94056200D01*
X44216320Y-94208600D01*
X39009320Y-93929200D01*
X38755320Y-93548200D01*
X38336220Y-92265500D01*
X37650420Y-90538300D01*
X37066220Y-88201500D01*
X36647120Y-86156800D01*
X36291520Y-83972400D01*
X36139120Y-82867500D01*
X36215320Y-82638900D01*
X36526470Y-82950050D01*
G36*
X44991020Y-94678500D02*
G01*
X45321220Y-94869000D01*
X45727620Y-95986600D01*
X46832520Y-97624900D01*
X47797720Y-98196400D01*
X48343820Y-98475800D01*
X48356520Y-98920300D01*
X48204120Y-99288600D01*
X48178720Y-100076000D01*
X48343820Y-100698300D01*
X48178720Y-101219000D01*
X42412920Y-101752400D01*
X39276020Y-94983300D01*
X39606220Y-94653100D01*
X44965620Y-94653100D01*
X44991020Y-94678500D01*
G37*
X44991020Y-94678500D02*
X45321220Y-94869000D01*
X45727620Y-95986600D01*
X46832520Y-97624900D01*
X47797720Y-98196400D01*
X48343820Y-98475800D01*
X48356520Y-98920300D01*
X48204120Y-99288600D01*
X48178720Y-100076000D01*
X48343820Y-100698300D01*
X48178720Y-101219000D01*
X42412920Y-101752400D01*
X39276020Y-94983300D01*
X39606220Y-94653100D01*
X44965620Y-94653100D01*
X44991020Y-94678500D01*
G36*
X48978820Y-101739700D02*
G01*
X48889920Y-102285800D01*
X48572420Y-102895400D01*
X48470820Y-103555800D01*
X48508920Y-104254300D01*
X48801020Y-105346500D01*
X49486820Y-105810050D01*
X49956720Y-106057700D01*
X49918620Y-106387900D01*
X47581820Y-107162600D01*
X46769020Y-106946700D01*
X45118020Y-105219500D01*
X43492420Y-103073200D01*
X43314620Y-102463600D01*
X43416220Y-102146100D01*
X48559720Y-101358700D01*
X48661320Y-101346000D01*
X48978820Y-101739700D01*
G37*
X48978820Y-101739700D02*
X48889920Y-102285800D01*
X48572420Y-102895400D01*
X48470820Y-103555800D01*
X48508920Y-104254300D01*
X48801020Y-105346500D01*
X49486820Y-105810050D01*
X49956720Y-106057700D01*
X49918620Y-106387900D01*
X47581820Y-107162600D01*
X46769020Y-106946700D01*
X45118020Y-105219500D01*
X43492420Y-103073200D01*
X43314620Y-102463600D01*
X43416220Y-102146100D01*
X48559720Y-101358700D01*
X48661320Y-101346000D01*
X48978820Y-101739700D01*
G36*
X79996117Y-94830394D02*
G01*
X83713320Y-97561400D01*
X83078320Y-99758500D01*
X81935320Y-100787200D01*
X78290420Y-97193100D01*
X79996117Y-94830394D01*
X79979520Y-94818200D01*
X80004920Y-94818200D01*
X79996117Y-94830394D01*
G37*
X79996117Y-94830394D02*
X83713320Y-97561400D01*
X83078320Y-99758500D01*
X81935320Y-100787200D01*
X78290420Y-97193100D01*
X79996117Y-94830394D01*
X79979520Y-94818200D01*
X80004920Y-94818200D01*
X79996117Y-94830394D01*
G36*
X80614520Y-100241100D02*
G01*
X80284320Y-101079300D01*
X80627220Y-101968300D01*
X77795120Y-104051100D01*
X75229720Y-100177600D01*
X74988420Y-98882200D01*
X77769720Y-97256600D01*
X77769720Y-97218500D01*
X80614520Y-100241100D01*
G37*
X80614520Y-100241100D02*
X80284320Y-101079300D01*
X80627220Y-101968300D01*
X77795120Y-104051100D01*
X75229720Y-100177600D01*
X74988420Y-98882200D01*
X77769720Y-97256600D01*
X77769720Y-97218500D01*
X80614520Y-100241100D01*
G36*
X73664445Y-99680713D02*
G01*
X73605632Y-99692971D01*
X75026520Y-100926900D01*
X77439520Y-104343200D01*
X72791320Y-107378500D01*
X71648320Y-107378500D01*
X71191120Y-106553000D01*
X71107300Y-106289475D01*
X70116700Y-106257725D01*
X70029070Y-102714425D01*
X70419595Y-100356988D01*
X73605632Y-99692971D01*
X73578720Y-99669600D01*
X73664445Y-99680713D01*
G37*
X73664445Y-99680713D02*
X73605632Y-99692971D01*
X75026520Y-100926900D01*
X77439520Y-104343200D01*
X72791320Y-107378500D01*
X71648320Y-107378500D01*
X71191120Y-106553000D01*
X71107300Y-106289475D01*
X70116700Y-106257725D01*
X70029070Y-102714425D01*
X70419595Y-100356988D01*
X73605632Y-99692971D01*
X73578720Y-99669600D01*
X73664445Y-99680713D01*
G36*
X69070220Y-100393500D02*
G01*
X69070220Y-100368100D01*
X69451220Y-102044500D01*
X69413120Y-106311700D01*
X68676520Y-106527600D01*
X68232020Y-107403900D01*
X65831720Y-107162600D01*
X62948820Y-106019600D01*
X63304420Y-103809800D01*
X65272920Y-99796600D01*
X69070220Y-100393500D01*
G37*
X69070220Y-100393500D02*
X69070220Y-100368100D01*
X69451220Y-102044500D01*
X69413120Y-106311700D01*
X68676520Y-106527600D01*
X68232020Y-107403900D01*
X65831720Y-107162600D01*
X62948820Y-106019600D01*
X63304420Y-103809800D01*
X65272920Y-99796600D01*
X69070220Y-100393500D01*
G36*
X61297820Y-98361500D02*
G01*
X64295020Y-99618800D01*
X62393195Y-104990900D01*
X61513720Y-104508300D01*
X60923170Y-105511600D01*
X57741820Y-103670100D01*
X57741820Y-103085900D01*
X60815220Y-98488500D01*
X61374020Y-98336100D01*
X61297820Y-98361500D01*
G37*
X61297820Y-98361500D02*
X64295020Y-99618800D01*
X62393195Y-104990900D01*
X61513720Y-104508300D01*
X60923170Y-105511600D01*
X57741820Y-103670100D01*
X57741820Y-103085900D01*
X60815220Y-98488500D01*
X61374020Y-98336100D01*
X61297820Y-98361500D01*
G36*
X60510420Y-98056700D02*
G01*
X57284620Y-103136700D01*
X54922420Y-100749100D01*
X54681120Y-100723700D01*
X53576220Y-98958400D01*
X53715920Y-98450400D01*
X57906920Y-95453200D01*
X57881520Y-95402400D01*
X60510420Y-98056700D01*
G37*
X60510420Y-98056700D02*
X57284620Y-103136700D01*
X54922420Y-100749100D01*
X54681120Y-100723700D01*
X53576220Y-98958400D01*
X53715920Y-98450400D01*
X57906920Y-95453200D01*
X57881520Y-95402400D01*
X60510420Y-98056700D01*
G36*
X70098920Y-74422000D02*
G01*
X70505320Y-74676000D01*
X71102220Y-75272900D01*
X71534020Y-75996800D01*
X71788020Y-76796900D01*
X71927720Y-78066900D01*
X71724520Y-79565500D01*
X70886320Y-80416400D01*
X70619620Y-80987900D01*
X70010020Y-81165700D01*
X69527420Y-81445100D01*
X68841620Y-81470500D01*
X68397120Y-81368900D01*
X67825620Y-81064100D01*
X67228720Y-80467200D01*
X66746120Y-79603600D01*
X66492120Y-78816200D01*
X66390520Y-77800200D01*
X66390520Y-77711300D01*
X66479420Y-77254100D01*
X66771520Y-76542900D01*
X67025520Y-75882500D01*
X67381120Y-75260200D01*
X67939920Y-74663300D01*
X68727320Y-74383900D01*
X69425820Y-74307700D01*
X69413120Y-74307700D01*
X69629020Y-74295000D01*
X70098920Y-74422000D01*
G37*
X70098920Y-74422000D02*
X70505320Y-74676000D01*
X71102220Y-75272900D01*
X71534020Y-75996800D01*
X71788020Y-76796900D01*
X71927720Y-78066900D01*
X71724520Y-79565500D01*
X70886320Y-80416400D01*
X70619620Y-80987900D01*
X70010020Y-81165700D01*
X69527420Y-81445100D01*
X68841620Y-81470500D01*
X68397120Y-81368900D01*
X67825620Y-81064100D01*
X67228720Y-80467200D01*
X66746120Y-79603600D01*
X66492120Y-78816200D01*
X66390520Y-77800200D01*
X66390520Y-77711300D01*
X66479420Y-77254100D01*
X66771520Y-76542900D01*
X67025520Y-75882500D01*
X67381120Y-75260200D01*
X67939920Y-74663300D01*
X68727320Y-74383900D01*
X69425820Y-74307700D01*
X69413120Y-74307700D01*
X69629020Y-74295000D01*
X70098920Y-74422000D01*
D11*
X95554040Y-153662340D03*
X95554040Y-155562340D03*
X93554040Y-154612340D03*
D10*
G36*
X78808986Y-104287047D02*
G01*
X78407483Y-103713640D01*
X79144720Y-103197421D01*
X79546223Y-103770828D01*
X78808986Y-104287047D01*
G37*
G36*
X80611120Y-103025179D02*
G01*
X80209617Y-102451772D01*
X80946854Y-101935553D01*
X81348357Y-102508960D01*
X80611120Y-103025179D01*
G37*
D12*
X73777020Y-54394100D03*
X71577020Y-54394100D03*
D10*
G36*
X57964381Y-105128609D02*
G01*
X58314381Y-104522391D01*
X59093803Y-104972391D01*
X58743803Y-105578609D01*
X57964381Y-105128609D01*
G37*
G36*
X59869637Y-106228609D02*
G01*
X60219637Y-105622391D01*
X60999059Y-106072391D01*
X60649059Y-106678609D01*
X59869637Y-106228609D01*
G37*
G36*
X91436311Y-63196261D02*
G01*
X92042529Y-62846261D01*
X92492529Y-63625683D01*
X91886311Y-63975683D01*
X91436311Y-63196261D01*
G37*
G36*
X92536311Y-65101517D02*
G01*
X93142529Y-64751517D01*
X93592529Y-65530939D01*
X92986311Y-65880939D01*
X92536311Y-65101517D01*
G37*
G36*
X72623522Y-75689628D02*
G01*
X72128548Y-76184602D01*
X71492152Y-75548206D01*
X71987126Y-75053232D01*
X72623522Y-75689628D01*
G37*
G36*
X71067888Y-74133994D02*
G01*
X70572914Y-74628968D01*
X69936518Y-73992572D01*
X70431492Y-73497598D01*
X71067888Y-74133994D01*
G37*
D12*
X64086920Y-83820000D03*
X61886920Y-83820000D03*
D10*
G36*
X61063656Y-96961693D02*
G01*
X60527425Y-97411645D01*
X59948916Y-96722205D01*
X60485147Y-96272253D01*
X61063656Y-96961693D01*
G37*
G36*
X59649524Y-95276395D02*
G01*
X59113293Y-95726347D01*
X58534784Y-95036907D01*
X59071015Y-94586955D01*
X59649524Y-95276395D01*
G37*
G36*
X79412325Y-93774155D02*
G01*
X79948556Y-94224107D01*
X79370047Y-94913547D01*
X78833816Y-94463595D01*
X79412325Y-93774155D01*
G37*
G36*
X77998193Y-95459453D02*
G01*
X78534424Y-95909405D01*
X77955915Y-96598845D01*
X77419684Y-96148893D01*
X77998193Y-95459453D01*
G37*
G36*
X82908915Y-101424845D02*
G01*
X82372684Y-100974893D01*
X82951193Y-100285453D01*
X83487424Y-100735405D01*
X82908915Y-101424845D01*
G37*
G36*
X84323047Y-99739547D02*
G01*
X83786816Y-99289595D01*
X84365325Y-98600155D01*
X84901556Y-99050107D01*
X84323047Y-99739547D01*
G37*
G36*
X92779159Y-83831269D02*
G01*
X93436943Y-84070683D01*
X93129125Y-84916407D01*
X92471341Y-84676993D01*
X92779159Y-83831269D01*
G37*
G36*
X92026715Y-85898593D02*
G01*
X92684499Y-86138007D01*
X92376681Y-86983731D01*
X91718897Y-86744317D01*
X92026715Y-85898593D01*
G37*
D12*
X70589320Y-83400900D03*
X68389320Y-83400900D03*
D10*
G36*
X53607184Y-100878907D02*
G01*
X54143415Y-100428955D01*
X54721924Y-101118395D01*
X54185693Y-101568347D01*
X53607184Y-100878907D01*
G37*
G36*
X55021316Y-102564205D02*
G01*
X55557547Y-102114253D01*
X56136056Y-102803693D01*
X55599825Y-103253645D01*
X55021316Y-102564205D01*
G37*
G36*
X77120959Y-96445191D02*
G01*
X77470959Y-97051409D01*
X76691537Y-97501409D01*
X76341537Y-96895191D01*
X77120959Y-96445191D01*
G37*
G36*
X75215703Y-97545191D02*
G01*
X75565703Y-98151409D01*
X74786281Y-98601409D01*
X74436281Y-97995191D01*
X75215703Y-97545191D01*
G37*
D13*
X94686120Y-75366700D03*
X94686120Y-77566700D03*
D12*
X62090120Y-88709500D03*
X64290120Y-88709500D03*
X73901120Y-88709500D03*
X76101120Y-88709500D03*
D10*
G36*
X50075257Y-105351676D02*
G01*
X49385892Y-105473229D01*
X49229609Y-104586902D01*
X49918974Y-104465349D01*
X50075257Y-105351676D01*
G37*
G36*
X49693231Y-103185098D02*
G01*
X49003866Y-103306651D01*
X48847583Y-102420324D01*
X49536948Y-102298771D01*
X49693231Y-103185098D01*
G37*
G36*
X73393396Y-98814463D02*
G01*
X73514949Y-99503828D01*
X72628622Y-99660111D01*
X72507069Y-98970746D01*
X73393396Y-98814463D01*
G37*
G36*
X71226818Y-99196489D02*
G01*
X71348371Y-99885854D01*
X70462044Y-100042137D01*
X70340491Y-99352772D01*
X71226818Y-99196489D01*
G37*
G36*
X74678807Y-107982536D02*
G01*
X74228855Y-107446305D01*
X74918295Y-106867796D01*
X75368247Y-107404027D01*
X74678807Y-107982536D01*
G37*
G36*
X76364105Y-106568404D02*
G01*
X75914153Y-106032173D01*
X76603593Y-105453664D01*
X77053545Y-105989895D01*
X76364105Y-106568404D01*
G37*
G36*
X45878029Y-67443039D02*
G01*
X45271811Y-67093039D01*
X45721811Y-66313617D01*
X46328029Y-66663617D01*
X45878029Y-67443039D01*
G37*
G36*
X46978029Y-65537783D02*
G01*
X46371811Y-65187783D01*
X46821811Y-64408361D01*
X47428029Y-64758361D01*
X46978029Y-65537783D01*
G37*
G36*
X48046086Y-97599061D02*
G01*
X47411670Y-97894894D01*
X47031314Y-97079217D01*
X47665730Y-96783384D01*
X48046086Y-97599061D01*
G37*
G36*
X47116326Y-95605183D02*
G01*
X46481910Y-95901016D01*
X46101554Y-95085339D01*
X46735970Y-94789506D01*
X47116326Y-95605183D01*
G37*
G36*
X69044549Y-99187672D02*
G01*
X68922996Y-99877037D01*
X68036669Y-99720754D01*
X68158222Y-99031389D01*
X69044549Y-99187672D01*
G37*
G36*
X66877971Y-98805646D02*
G01*
X66756418Y-99495011D01*
X65870091Y-99338728D01*
X65991644Y-98649363D01*
X66877971Y-98805646D01*
G37*
G36*
X64071771Y-107657228D02*
G01*
X64193324Y-106967863D01*
X65079651Y-107124146D01*
X64958098Y-107813511D01*
X64071771Y-107657228D01*
G37*
G36*
X66238349Y-108039254D02*
G01*
X66359902Y-107349889D01*
X67246229Y-107506172D01*
X67124676Y-108195537D01*
X66238349Y-108039254D01*
G37*
G36*
X91754411Y-92246761D02*
G01*
X92360629Y-92596761D01*
X91910629Y-93376183D01*
X91304411Y-93026183D01*
X91754411Y-92246761D01*
G37*
G36*
X90654411Y-94152017D02*
G01*
X91260629Y-94502017D01*
X90810629Y-95281439D01*
X90204411Y-94931439D01*
X90654411Y-94152017D01*
G37*
D13*
X43619420Y-79382800D03*
X43619420Y-77182800D03*
D12*
X76672620Y-83972400D03*
X74472620Y-83972400D03*
D10*
G36*
X68089948Y-73484898D02*
G01*
X68584922Y-73979872D01*
X67948526Y-74616268D01*
X67453552Y-74121294D01*
X68089948Y-73484898D01*
G37*
G36*
X66534314Y-75040532D02*
G01*
X67029288Y-75535506D01*
X66392892Y-76171902D01*
X65897918Y-75676928D01*
X66534314Y-75040532D01*
G37*
G36*
X64415359Y-98680991D02*
G01*
X64065359Y-99287209D01*
X63285937Y-98837209D01*
X63635937Y-98230991D01*
X64415359Y-98680991D01*
G37*
G36*
X62510103Y-97580991D02*
G01*
X62160103Y-98187209D01*
X61380681Y-97737209D01*
X61730681Y-97130991D01*
X62510103Y-97580991D01*
G37*
G36*
X89213092Y-99619071D02*
G01*
X89902457Y-99740624D01*
X89746174Y-100626951D01*
X89056809Y-100505398D01*
X89213092Y-99619071D01*
G37*
G36*
X88831066Y-101785649D02*
G01*
X89520431Y-101907202D01*
X89364148Y-102793529D01*
X88674783Y-102671976D01*
X88831066Y-101785649D01*
G37*
G36*
X46712656Y-90002093D02*
G01*
X46176425Y-90452045D01*
X45597916Y-89762605D01*
X46134147Y-89312653D01*
X46712656Y-90002093D01*
G37*
G36*
X45298524Y-88316795D02*
G01*
X44762293Y-88766747D01*
X44183784Y-88077307D01*
X44720015Y-87627355D01*
X45298524Y-88316795D01*
G37*
D14*
X95648715Y-133281291D02*
X95648715Y-133281291D01*
D10*
G36*
X98159542Y-130850169D02*
G01*
X99009542Y-132322413D01*
X97537298Y-133172413D01*
X96687298Y-131700169D01*
X98159542Y-130850169D01*
G37*
D14*
X96918715Y-135480995D02*
X96918715Y-135480995D01*
X99118420Y-134210995D02*
X99118420Y-134210995D01*
X98188715Y-137680700D02*
X98188715Y-137680700D01*
D15*
X100388420Y-136410700D03*
D16*
X42715011Y-130414398D03*
X43982866Y-127695474D03*
D10*
G36*
X44524963Y-132472108D02*
G01*
X43165502Y-131838181D01*
X43461335Y-131203766D01*
X44820796Y-131837693D01*
X44524963Y-132472108D01*
G37*
G36*
X45792818Y-129753184D02*
G01*
X44433357Y-129119257D01*
X44729190Y-128484842D01*
X46088651Y-129118769D01*
X45792818Y-129753184D01*
G37*
G36*
X46426745Y-128393723D02*
G01*
X45067284Y-127759796D01*
X45363117Y-127125381D01*
X46722578Y-127759308D01*
X46426745Y-128393723D01*
G37*
G36*
X40960657Y-132520280D02*
G01*
X40235611Y-132182186D01*
X40658229Y-131275878D01*
X41383275Y-131613972D01*
X40960657Y-132520280D01*
G37*
G36*
X44045771Y-125904233D02*
G01*
X43320725Y-125566139D01*
X43743343Y-124659831D01*
X44468389Y-124997925D01*
X44045771Y-125904233D01*
G37*
G36*
X46048711Y-126838220D02*
G01*
X45323665Y-126500126D01*
X45746283Y-125593818D01*
X46471329Y-125931912D01*
X46048711Y-126838220D01*
G37*
G36*
X42963597Y-133454267D02*
G01*
X42238551Y-133116173D01*
X42661169Y-132209865D01*
X43386215Y-132547959D01*
X42963597Y-133454267D01*
G37*
D17*
X79808520Y-132694100D03*
D18*
X79808520Y-80704100D03*
D17*
X58408520Y-80714100D03*
D18*
X58408520Y-132704100D03*
D11*
X81481420Y-116710500D03*
X81481420Y-114810500D03*
X83481420Y-115760500D03*
D19*
X78328520Y-116789200D03*
X79828520Y-116789200D03*
D20*
X83022440Y-148272500D03*
X100108520Y-146104100D03*
X94876620Y-146646900D03*
X64008520Y-136504100D03*
X64930020Y-144678400D03*
X64930020Y-146964400D03*
X64396620Y-115227100D03*
X56878220Y-113753900D03*
X62301120Y-115227100D03*
X75420220Y-112014000D03*
X54744620Y-113766600D03*
X78430120Y-113906300D03*
X76537820Y-116789200D03*
X89608520Y-113704100D03*
X64295020Y-110680500D03*
X73312020Y-112014000D03*
X81308520Y-111604100D03*
D19*
X91739020Y-135115300D03*
X93239020Y-135115300D03*
D21*
X79852520Y-152415200D03*
X79852520Y-153365200D03*
X79852520Y-154315200D03*
X77652520Y-154315200D03*
X77652520Y-152415200D03*
D10*
G36*
X70244024Y-136491124D02*
G01*
X70268293Y-136494724D01*
X70292091Y-136500685D01*
X70315191Y-136508950D01*
X70337369Y-136519440D01*
X70358413Y-136532053D01*
X70378118Y-136546667D01*
X70396297Y-136563143D01*
X70412773Y-136581322D01*
X70427387Y-136601027D01*
X70440000Y-136622071D01*
X70450490Y-136644249D01*
X70458755Y-136667349D01*
X70464716Y-136691147D01*
X70468316Y-136715416D01*
X70469520Y-136739920D01*
X70469520Y-138839920D01*
X70468316Y-138864424D01*
X70464716Y-138888693D01*
X70458755Y-138912491D01*
X70450490Y-138935591D01*
X70440000Y-138957769D01*
X70427387Y-138978813D01*
X70412773Y-138998518D01*
X70396297Y-139016697D01*
X70378118Y-139033173D01*
X70358413Y-139047787D01*
X70337369Y-139060400D01*
X70315191Y-139070890D01*
X70292091Y-139079155D01*
X70268293Y-139085116D01*
X70244024Y-139088716D01*
X70219520Y-139089920D01*
X68119520Y-139089920D01*
X68095016Y-139088716D01*
X68070747Y-139085116D01*
X68046949Y-139079155D01*
X68023849Y-139070890D01*
X68001671Y-139060400D01*
X67980627Y-139047787D01*
X67960922Y-139033173D01*
X67942743Y-139016697D01*
X67926267Y-138998518D01*
X67911653Y-138978813D01*
X67899040Y-138957769D01*
X67888550Y-138935591D01*
X67880285Y-138912491D01*
X67874324Y-138888693D01*
X67870724Y-138864424D01*
X67869520Y-138839920D01*
X67869520Y-136739920D01*
X67870724Y-136715416D01*
X67874324Y-136691147D01*
X67880285Y-136667349D01*
X67888550Y-136644249D01*
X67899040Y-136622071D01*
X67911653Y-136601027D01*
X67926267Y-136581322D01*
X67942743Y-136563143D01*
X67960922Y-136546667D01*
X67980627Y-136532053D01*
X68001671Y-136519440D01*
X68023849Y-136508950D01*
X68046949Y-136500685D01*
X68070747Y-136494724D01*
X68095016Y-136491124D01*
X68119520Y-136489920D01*
X70219520Y-136489920D01*
X70244024Y-136491124D01*
G37*
G36*
X70488146Y-139315221D02*
G01*
X70494213Y-139316121D01*
X70500163Y-139317611D01*
X70505938Y-139319678D01*
X70511482Y-139322300D01*
X70516743Y-139325453D01*
X70521670Y-139329107D01*
X70526214Y-139333226D01*
X70530333Y-139337770D01*
X70533987Y-139342697D01*
X70537140Y-139347958D01*
X70539762Y-139353502D01*
X70541829Y-139359277D01*
X70543319Y-139365227D01*
X70544219Y-139371294D01*
X70544520Y-139377420D01*
X70544520Y-140077420D01*
X70544219Y-140083546D01*
X70543319Y-140089613D01*
X70541829Y-140095563D01*
X70539762Y-140101338D01*
X70537140Y-140106882D01*
X70533987Y-140112143D01*
X70530333Y-140117070D01*
X70526214Y-140121614D01*
X70521670Y-140125733D01*
X70516743Y-140129387D01*
X70511482Y-140132540D01*
X70505938Y-140135162D01*
X70500163Y-140137229D01*
X70494213Y-140138719D01*
X70488146Y-140139619D01*
X70482020Y-140139920D01*
X70357020Y-140139920D01*
X70350894Y-140139619D01*
X70344827Y-140138719D01*
X70338877Y-140137229D01*
X70333102Y-140135162D01*
X70327558Y-140132540D01*
X70322297Y-140129387D01*
X70317370Y-140125733D01*
X70312826Y-140121614D01*
X70308707Y-140117070D01*
X70305053Y-140112143D01*
X70301900Y-140106882D01*
X70299278Y-140101338D01*
X70297211Y-140095563D01*
X70295721Y-140089613D01*
X70294821Y-140083546D01*
X70294520Y-140077420D01*
X70294520Y-139377420D01*
X70294821Y-139371294D01*
X70295721Y-139365227D01*
X70297211Y-139359277D01*
X70299278Y-139353502D01*
X70301900Y-139347958D01*
X70305053Y-139342697D01*
X70308707Y-139337770D01*
X70312826Y-139333226D01*
X70317370Y-139329107D01*
X70322297Y-139325453D01*
X70327558Y-139322300D01*
X70333102Y-139319678D01*
X70338877Y-139317611D01*
X70344827Y-139316121D01*
X70350894Y-139315221D01*
X70357020Y-139314920D01*
X70482020Y-139314920D01*
X70488146Y-139315221D01*
G37*
G36*
X69988146Y-139315221D02*
G01*
X69994213Y-139316121D01*
X70000163Y-139317611D01*
X70005938Y-139319678D01*
X70011482Y-139322300D01*
X70016743Y-139325453D01*
X70021670Y-139329107D01*
X70026214Y-139333226D01*
X70030333Y-139337770D01*
X70033987Y-139342697D01*
X70037140Y-139347958D01*
X70039762Y-139353502D01*
X70041829Y-139359277D01*
X70043319Y-139365227D01*
X70044219Y-139371294D01*
X70044520Y-139377420D01*
X70044520Y-140077420D01*
X70044219Y-140083546D01*
X70043319Y-140089613D01*
X70041829Y-140095563D01*
X70039762Y-140101338D01*
X70037140Y-140106882D01*
X70033987Y-140112143D01*
X70030333Y-140117070D01*
X70026214Y-140121614D01*
X70021670Y-140125733D01*
X70016743Y-140129387D01*
X70011482Y-140132540D01*
X70005938Y-140135162D01*
X70000163Y-140137229D01*
X69994213Y-140138719D01*
X69988146Y-140139619D01*
X69982020Y-140139920D01*
X69857020Y-140139920D01*
X69850894Y-140139619D01*
X69844827Y-140138719D01*
X69838877Y-140137229D01*
X69833102Y-140135162D01*
X69827558Y-140132540D01*
X69822297Y-140129387D01*
X69817370Y-140125733D01*
X69812826Y-140121614D01*
X69808707Y-140117070D01*
X69805053Y-140112143D01*
X69801900Y-140106882D01*
X69799278Y-140101338D01*
X69797211Y-140095563D01*
X69795721Y-140089613D01*
X69794821Y-140083546D01*
X69794520Y-140077420D01*
X69794520Y-139377420D01*
X69794821Y-139371294D01*
X69795721Y-139365227D01*
X69797211Y-139359277D01*
X69799278Y-139353502D01*
X69801900Y-139347958D01*
X69805053Y-139342697D01*
X69808707Y-139337770D01*
X69812826Y-139333226D01*
X69817370Y-139329107D01*
X69822297Y-139325453D01*
X69827558Y-139322300D01*
X69833102Y-139319678D01*
X69838877Y-139317611D01*
X69844827Y-139316121D01*
X69850894Y-139315221D01*
X69857020Y-139314920D01*
X69982020Y-139314920D01*
X69988146Y-139315221D01*
G37*
G36*
X69488146Y-139315221D02*
G01*
X69494213Y-139316121D01*
X69500163Y-139317611D01*
X69505938Y-139319678D01*
X69511482Y-139322300D01*
X69516743Y-139325453D01*
X69521670Y-139329107D01*
X69526214Y-139333226D01*
X69530333Y-139337770D01*
X69533987Y-139342697D01*
X69537140Y-139347958D01*
X69539762Y-139353502D01*
X69541829Y-139359277D01*
X69543319Y-139365227D01*
X69544219Y-139371294D01*
X69544520Y-139377420D01*
X69544520Y-140077420D01*
X69544219Y-140083546D01*
X69543319Y-140089613D01*
X69541829Y-140095563D01*
X69539762Y-140101338D01*
X69537140Y-140106882D01*
X69533987Y-140112143D01*
X69530333Y-140117070D01*
X69526214Y-140121614D01*
X69521670Y-140125733D01*
X69516743Y-140129387D01*
X69511482Y-140132540D01*
X69505938Y-140135162D01*
X69500163Y-140137229D01*
X69494213Y-140138719D01*
X69488146Y-140139619D01*
X69482020Y-140139920D01*
X69357020Y-140139920D01*
X69350894Y-140139619D01*
X69344827Y-140138719D01*
X69338877Y-140137229D01*
X69333102Y-140135162D01*
X69327558Y-140132540D01*
X69322297Y-140129387D01*
X69317370Y-140125733D01*
X69312826Y-140121614D01*
X69308707Y-140117070D01*
X69305053Y-140112143D01*
X69301900Y-140106882D01*
X69299278Y-140101338D01*
X69297211Y-140095563D01*
X69295721Y-140089613D01*
X69294821Y-140083546D01*
X69294520Y-140077420D01*
X69294520Y-139377420D01*
X69294821Y-139371294D01*
X69295721Y-139365227D01*
X69297211Y-139359277D01*
X69299278Y-139353502D01*
X69301900Y-139347958D01*
X69305053Y-139342697D01*
X69308707Y-139337770D01*
X69312826Y-139333226D01*
X69317370Y-139329107D01*
X69322297Y-139325453D01*
X69327558Y-139322300D01*
X69333102Y-139319678D01*
X69338877Y-139317611D01*
X69344827Y-139316121D01*
X69350894Y-139315221D01*
X69357020Y-139314920D01*
X69482020Y-139314920D01*
X69488146Y-139315221D01*
G37*
G36*
X68988146Y-139315221D02*
G01*
X68994213Y-139316121D01*
X69000163Y-139317611D01*
X69005938Y-139319678D01*
X69011482Y-139322300D01*
X69016743Y-139325453D01*
X69021670Y-139329107D01*
X69026214Y-139333226D01*
X69030333Y-139337770D01*
X69033987Y-139342697D01*
X69037140Y-139347958D01*
X69039762Y-139353502D01*
X69041829Y-139359277D01*
X69043319Y-139365227D01*
X69044219Y-139371294D01*
X69044520Y-139377420D01*
X69044520Y-140077420D01*
X69044219Y-140083546D01*
X69043319Y-140089613D01*
X69041829Y-140095563D01*
X69039762Y-140101338D01*
X69037140Y-140106882D01*
X69033987Y-140112143D01*
X69030333Y-140117070D01*
X69026214Y-140121614D01*
X69021670Y-140125733D01*
X69016743Y-140129387D01*
X69011482Y-140132540D01*
X69005938Y-140135162D01*
X69000163Y-140137229D01*
X68994213Y-140138719D01*
X68988146Y-140139619D01*
X68982020Y-140139920D01*
X68857020Y-140139920D01*
X68850894Y-140139619D01*
X68844827Y-140138719D01*
X68838877Y-140137229D01*
X68833102Y-140135162D01*
X68827558Y-140132540D01*
X68822297Y-140129387D01*
X68817370Y-140125733D01*
X68812826Y-140121614D01*
X68808707Y-140117070D01*
X68805053Y-140112143D01*
X68801900Y-140106882D01*
X68799278Y-140101338D01*
X68797211Y-140095563D01*
X68795721Y-140089613D01*
X68794821Y-140083546D01*
X68794520Y-140077420D01*
X68794520Y-139377420D01*
X68794821Y-139371294D01*
X68795721Y-139365227D01*
X68797211Y-139359277D01*
X68799278Y-139353502D01*
X68801900Y-139347958D01*
X68805053Y-139342697D01*
X68808707Y-139337770D01*
X68812826Y-139333226D01*
X68817370Y-139329107D01*
X68822297Y-139325453D01*
X68827558Y-139322300D01*
X68833102Y-139319678D01*
X68838877Y-139317611D01*
X68844827Y-139316121D01*
X68850894Y-139315221D01*
X68857020Y-139314920D01*
X68982020Y-139314920D01*
X68988146Y-139315221D01*
G37*
G36*
X68488146Y-139315221D02*
G01*
X68494213Y-139316121D01*
X68500163Y-139317611D01*
X68505938Y-139319678D01*
X68511482Y-139322300D01*
X68516743Y-139325453D01*
X68521670Y-139329107D01*
X68526214Y-139333226D01*
X68530333Y-139337770D01*
X68533987Y-139342697D01*
X68537140Y-139347958D01*
X68539762Y-139353502D01*
X68541829Y-139359277D01*
X68543319Y-139365227D01*
X68544219Y-139371294D01*
X68544520Y-139377420D01*
X68544520Y-140077420D01*
X68544219Y-140083546D01*
X68543319Y-140089613D01*
X68541829Y-140095563D01*
X68539762Y-140101338D01*
X68537140Y-140106882D01*
X68533987Y-140112143D01*
X68530333Y-140117070D01*
X68526214Y-140121614D01*
X68521670Y-140125733D01*
X68516743Y-140129387D01*
X68511482Y-140132540D01*
X68505938Y-140135162D01*
X68500163Y-140137229D01*
X68494213Y-140138719D01*
X68488146Y-140139619D01*
X68482020Y-140139920D01*
X68357020Y-140139920D01*
X68350894Y-140139619D01*
X68344827Y-140138719D01*
X68338877Y-140137229D01*
X68333102Y-140135162D01*
X68327558Y-140132540D01*
X68322297Y-140129387D01*
X68317370Y-140125733D01*
X68312826Y-140121614D01*
X68308707Y-140117070D01*
X68305053Y-140112143D01*
X68301900Y-140106882D01*
X68299278Y-140101338D01*
X68297211Y-140095563D01*
X68295721Y-140089613D01*
X68294821Y-140083546D01*
X68294520Y-140077420D01*
X68294520Y-139377420D01*
X68294821Y-139371294D01*
X68295721Y-139365227D01*
X68297211Y-139359277D01*
X68299278Y-139353502D01*
X68301900Y-139347958D01*
X68305053Y-139342697D01*
X68308707Y-139337770D01*
X68312826Y-139333226D01*
X68317370Y-139329107D01*
X68322297Y-139325453D01*
X68327558Y-139322300D01*
X68333102Y-139319678D01*
X68338877Y-139317611D01*
X68344827Y-139316121D01*
X68350894Y-139315221D01*
X68357020Y-139314920D01*
X68482020Y-139314920D01*
X68488146Y-139315221D01*
G37*
G36*
X67988146Y-139315221D02*
G01*
X67994213Y-139316121D01*
X68000163Y-139317611D01*
X68005938Y-139319678D01*
X68011482Y-139322300D01*
X68016743Y-139325453D01*
X68021670Y-139329107D01*
X68026214Y-139333226D01*
X68030333Y-139337770D01*
X68033987Y-139342697D01*
X68037140Y-139347958D01*
X68039762Y-139353502D01*
X68041829Y-139359277D01*
X68043319Y-139365227D01*
X68044219Y-139371294D01*
X68044520Y-139377420D01*
X68044520Y-140077420D01*
X68044219Y-140083546D01*
X68043319Y-140089613D01*
X68041829Y-140095563D01*
X68039762Y-140101338D01*
X68037140Y-140106882D01*
X68033987Y-140112143D01*
X68030333Y-140117070D01*
X68026214Y-140121614D01*
X68021670Y-140125733D01*
X68016743Y-140129387D01*
X68011482Y-140132540D01*
X68005938Y-140135162D01*
X68000163Y-140137229D01*
X67994213Y-140138719D01*
X67988146Y-140139619D01*
X67982020Y-140139920D01*
X67857020Y-140139920D01*
X67850894Y-140139619D01*
X67844827Y-140138719D01*
X67838877Y-140137229D01*
X67833102Y-140135162D01*
X67827558Y-140132540D01*
X67822297Y-140129387D01*
X67817370Y-140125733D01*
X67812826Y-140121614D01*
X67808707Y-140117070D01*
X67805053Y-140112143D01*
X67801900Y-140106882D01*
X67799278Y-140101338D01*
X67797211Y-140095563D01*
X67795721Y-140089613D01*
X67794821Y-140083546D01*
X67794520Y-140077420D01*
X67794520Y-139377420D01*
X67794821Y-139371294D01*
X67795721Y-139365227D01*
X67797211Y-139359277D01*
X67799278Y-139353502D01*
X67801900Y-139347958D01*
X67805053Y-139342697D01*
X67808707Y-139337770D01*
X67812826Y-139333226D01*
X67817370Y-139329107D01*
X67822297Y-139325453D01*
X67827558Y-139322300D01*
X67833102Y-139319678D01*
X67838877Y-139317611D01*
X67844827Y-139316121D01*
X67850894Y-139315221D01*
X67857020Y-139314920D01*
X67982020Y-139314920D01*
X67988146Y-139315221D01*
G37*
G36*
X67588146Y-138915221D02*
G01*
X67594213Y-138916121D01*
X67600163Y-138917611D01*
X67605938Y-138919678D01*
X67611482Y-138922300D01*
X67616743Y-138925453D01*
X67621670Y-138929107D01*
X67626214Y-138933226D01*
X67630333Y-138937770D01*
X67633987Y-138942697D01*
X67637140Y-138947958D01*
X67639762Y-138953502D01*
X67641829Y-138959277D01*
X67643319Y-138965227D01*
X67644219Y-138971294D01*
X67644520Y-138977420D01*
X67644520Y-139102420D01*
X67644219Y-139108546D01*
X67643319Y-139114613D01*
X67641829Y-139120563D01*
X67639762Y-139126338D01*
X67637140Y-139131882D01*
X67633987Y-139137143D01*
X67630333Y-139142070D01*
X67626214Y-139146614D01*
X67621670Y-139150733D01*
X67616743Y-139154387D01*
X67611482Y-139157540D01*
X67605938Y-139160162D01*
X67600163Y-139162229D01*
X67594213Y-139163719D01*
X67588146Y-139164619D01*
X67582020Y-139164920D01*
X66882020Y-139164920D01*
X66875894Y-139164619D01*
X66869827Y-139163719D01*
X66863877Y-139162229D01*
X66858102Y-139160162D01*
X66852558Y-139157540D01*
X66847297Y-139154387D01*
X66842370Y-139150733D01*
X66837826Y-139146614D01*
X66833707Y-139142070D01*
X66830053Y-139137143D01*
X66826900Y-139131882D01*
X66824278Y-139126338D01*
X66822211Y-139120563D01*
X66820721Y-139114613D01*
X66819821Y-139108546D01*
X66819520Y-139102420D01*
X66819520Y-138977420D01*
X66819821Y-138971294D01*
X66820721Y-138965227D01*
X66822211Y-138959277D01*
X66824278Y-138953502D01*
X66826900Y-138947958D01*
X66830053Y-138942697D01*
X66833707Y-138937770D01*
X66837826Y-138933226D01*
X66842370Y-138929107D01*
X66847297Y-138925453D01*
X66852558Y-138922300D01*
X66858102Y-138919678D01*
X66863877Y-138917611D01*
X66869827Y-138916121D01*
X66875894Y-138915221D01*
X66882020Y-138914920D01*
X67582020Y-138914920D01*
X67588146Y-138915221D01*
G37*
G36*
X67588146Y-138415221D02*
G01*
X67594213Y-138416121D01*
X67600163Y-138417611D01*
X67605938Y-138419678D01*
X67611482Y-138422300D01*
X67616743Y-138425453D01*
X67621670Y-138429107D01*
X67626214Y-138433226D01*
X67630333Y-138437770D01*
X67633987Y-138442697D01*
X67637140Y-138447958D01*
X67639762Y-138453502D01*
X67641829Y-138459277D01*
X67643319Y-138465227D01*
X67644219Y-138471294D01*
X67644520Y-138477420D01*
X67644520Y-138602420D01*
X67644219Y-138608546D01*
X67643319Y-138614613D01*
X67641829Y-138620563D01*
X67639762Y-138626338D01*
X67637140Y-138631882D01*
X67633987Y-138637143D01*
X67630333Y-138642070D01*
X67626214Y-138646614D01*
X67621670Y-138650733D01*
X67616743Y-138654387D01*
X67611482Y-138657540D01*
X67605938Y-138660162D01*
X67600163Y-138662229D01*
X67594213Y-138663719D01*
X67588146Y-138664619D01*
X67582020Y-138664920D01*
X66882020Y-138664920D01*
X66875894Y-138664619D01*
X66869827Y-138663719D01*
X66863877Y-138662229D01*
X66858102Y-138660162D01*
X66852558Y-138657540D01*
X66847297Y-138654387D01*
X66842370Y-138650733D01*
X66837826Y-138646614D01*
X66833707Y-138642070D01*
X66830053Y-138637143D01*
X66826900Y-138631882D01*
X66824278Y-138626338D01*
X66822211Y-138620563D01*
X66820721Y-138614613D01*
X66819821Y-138608546D01*
X66819520Y-138602420D01*
X66819520Y-138477420D01*
X66819821Y-138471294D01*
X66820721Y-138465227D01*
X66822211Y-138459277D01*
X66824278Y-138453502D01*
X66826900Y-138447958D01*
X66830053Y-138442697D01*
X66833707Y-138437770D01*
X66837826Y-138433226D01*
X66842370Y-138429107D01*
X66847297Y-138425453D01*
X66852558Y-138422300D01*
X66858102Y-138419678D01*
X66863877Y-138417611D01*
X66869827Y-138416121D01*
X66875894Y-138415221D01*
X66882020Y-138414920D01*
X67582020Y-138414920D01*
X67588146Y-138415221D01*
G37*
G36*
X67588146Y-137915221D02*
G01*
X67594213Y-137916121D01*
X67600163Y-137917611D01*
X67605938Y-137919678D01*
X67611482Y-137922300D01*
X67616743Y-137925453D01*
X67621670Y-137929107D01*
X67626214Y-137933226D01*
X67630333Y-137937770D01*
X67633987Y-137942697D01*
X67637140Y-137947958D01*
X67639762Y-137953502D01*
X67641829Y-137959277D01*
X67643319Y-137965227D01*
X67644219Y-137971294D01*
X67644520Y-137977420D01*
X67644520Y-138102420D01*
X67644219Y-138108546D01*
X67643319Y-138114613D01*
X67641829Y-138120563D01*
X67639762Y-138126338D01*
X67637140Y-138131882D01*
X67633987Y-138137143D01*
X67630333Y-138142070D01*
X67626214Y-138146614D01*
X67621670Y-138150733D01*
X67616743Y-138154387D01*
X67611482Y-138157540D01*
X67605938Y-138160162D01*
X67600163Y-138162229D01*
X67594213Y-138163719D01*
X67588146Y-138164619D01*
X67582020Y-138164920D01*
X66882020Y-138164920D01*
X66875894Y-138164619D01*
X66869827Y-138163719D01*
X66863877Y-138162229D01*
X66858102Y-138160162D01*
X66852558Y-138157540D01*
X66847297Y-138154387D01*
X66842370Y-138150733D01*
X66837826Y-138146614D01*
X66833707Y-138142070D01*
X66830053Y-138137143D01*
X66826900Y-138131882D01*
X66824278Y-138126338D01*
X66822211Y-138120563D01*
X66820721Y-138114613D01*
X66819821Y-138108546D01*
X66819520Y-138102420D01*
X66819520Y-137977420D01*
X66819821Y-137971294D01*
X66820721Y-137965227D01*
X66822211Y-137959277D01*
X66824278Y-137953502D01*
X66826900Y-137947958D01*
X66830053Y-137942697D01*
X66833707Y-137937770D01*
X66837826Y-137933226D01*
X66842370Y-137929107D01*
X66847297Y-137925453D01*
X66852558Y-137922300D01*
X66858102Y-137919678D01*
X66863877Y-137917611D01*
X66869827Y-137916121D01*
X66875894Y-137915221D01*
X66882020Y-137914920D01*
X67582020Y-137914920D01*
X67588146Y-137915221D01*
G37*
G36*
X67588146Y-137415221D02*
G01*
X67594213Y-137416121D01*
X67600163Y-137417611D01*
X67605938Y-137419678D01*
X67611482Y-137422300D01*
X67616743Y-137425453D01*
X67621670Y-137429107D01*
X67626214Y-137433226D01*
X67630333Y-137437770D01*
X67633987Y-137442697D01*
X67637140Y-137447958D01*
X67639762Y-137453502D01*
X67641829Y-137459277D01*
X67643319Y-137465227D01*
X67644219Y-137471294D01*
X67644520Y-137477420D01*
X67644520Y-137602420D01*
X67644219Y-137608546D01*
X67643319Y-137614613D01*
X67641829Y-137620563D01*
X67639762Y-137626338D01*
X67637140Y-137631882D01*
X67633987Y-137637143D01*
X67630333Y-137642070D01*
X67626214Y-137646614D01*
X67621670Y-137650733D01*
X67616743Y-137654387D01*
X67611482Y-137657540D01*
X67605938Y-137660162D01*
X67600163Y-137662229D01*
X67594213Y-137663719D01*
X67588146Y-137664619D01*
X67582020Y-137664920D01*
X66882020Y-137664920D01*
X66875894Y-137664619D01*
X66869827Y-137663719D01*
X66863877Y-137662229D01*
X66858102Y-137660162D01*
X66852558Y-137657540D01*
X66847297Y-137654387D01*
X66842370Y-137650733D01*
X66837826Y-137646614D01*
X66833707Y-137642070D01*
X66830053Y-137637143D01*
X66826900Y-137631882D01*
X66824278Y-137626338D01*
X66822211Y-137620563D01*
X66820721Y-137614613D01*
X66819821Y-137608546D01*
X66819520Y-137602420D01*
X66819520Y-137477420D01*
X66819821Y-137471294D01*
X66820721Y-137465227D01*
X66822211Y-137459277D01*
X66824278Y-137453502D01*
X66826900Y-137447958D01*
X66830053Y-137442697D01*
X66833707Y-137437770D01*
X66837826Y-137433226D01*
X66842370Y-137429107D01*
X66847297Y-137425453D01*
X66852558Y-137422300D01*
X66858102Y-137419678D01*
X66863877Y-137417611D01*
X66869827Y-137416121D01*
X66875894Y-137415221D01*
X66882020Y-137414920D01*
X67582020Y-137414920D01*
X67588146Y-137415221D01*
G37*
G36*
X67588146Y-136915221D02*
G01*
X67594213Y-136916121D01*
X67600163Y-136917611D01*
X67605938Y-136919678D01*
X67611482Y-136922300D01*
X67616743Y-136925453D01*
X67621670Y-136929107D01*
X67626214Y-136933226D01*
X67630333Y-136937770D01*
X67633987Y-136942697D01*
X67637140Y-136947958D01*
X67639762Y-136953502D01*
X67641829Y-136959277D01*
X67643319Y-136965227D01*
X67644219Y-136971294D01*
X67644520Y-136977420D01*
X67644520Y-137102420D01*
X67644219Y-137108546D01*
X67643319Y-137114613D01*
X67641829Y-137120563D01*
X67639762Y-137126338D01*
X67637140Y-137131882D01*
X67633987Y-137137143D01*
X67630333Y-137142070D01*
X67626214Y-137146614D01*
X67621670Y-137150733D01*
X67616743Y-137154387D01*
X67611482Y-137157540D01*
X67605938Y-137160162D01*
X67600163Y-137162229D01*
X67594213Y-137163719D01*
X67588146Y-137164619D01*
X67582020Y-137164920D01*
X66882020Y-137164920D01*
X66875894Y-137164619D01*
X66869827Y-137163719D01*
X66863877Y-137162229D01*
X66858102Y-137160162D01*
X66852558Y-137157540D01*
X66847297Y-137154387D01*
X66842370Y-137150733D01*
X66837826Y-137146614D01*
X66833707Y-137142070D01*
X66830053Y-137137143D01*
X66826900Y-137131882D01*
X66824278Y-137126338D01*
X66822211Y-137120563D01*
X66820721Y-137114613D01*
X66819821Y-137108546D01*
X66819520Y-137102420D01*
X66819520Y-136977420D01*
X66819821Y-136971294D01*
X66820721Y-136965227D01*
X66822211Y-136959277D01*
X66824278Y-136953502D01*
X66826900Y-136947958D01*
X66830053Y-136942697D01*
X66833707Y-136937770D01*
X66837826Y-136933226D01*
X66842370Y-136929107D01*
X66847297Y-136925453D01*
X66852558Y-136922300D01*
X66858102Y-136919678D01*
X66863877Y-136917611D01*
X66869827Y-136916121D01*
X66875894Y-136915221D01*
X66882020Y-136914920D01*
X67582020Y-136914920D01*
X67588146Y-136915221D01*
G37*
G36*
X67588146Y-136415221D02*
G01*
X67594213Y-136416121D01*
X67600163Y-136417611D01*
X67605938Y-136419678D01*
X67611482Y-136422300D01*
X67616743Y-136425453D01*
X67621670Y-136429107D01*
X67626214Y-136433226D01*
X67630333Y-136437770D01*
X67633987Y-136442697D01*
X67637140Y-136447958D01*
X67639762Y-136453502D01*
X67641829Y-136459277D01*
X67643319Y-136465227D01*
X67644219Y-136471294D01*
X67644520Y-136477420D01*
X67644520Y-136602420D01*
X67644219Y-136608546D01*
X67643319Y-136614613D01*
X67641829Y-136620563D01*
X67639762Y-136626338D01*
X67637140Y-136631882D01*
X67633987Y-136637143D01*
X67630333Y-136642070D01*
X67626214Y-136646614D01*
X67621670Y-136650733D01*
X67616743Y-136654387D01*
X67611482Y-136657540D01*
X67605938Y-136660162D01*
X67600163Y-136662229D01*
X67594213Y-136663719D01*
X67588146Y-136664619D01*
X67582020Y-136664920D01*
X66882020Y-136664920D01*
X66875894Y-136664619D01*
X66869827Y-136663719D01*
X66863877Y-136662229D01*
X66858102Y-136660162D01*
X66852558Y-136657540D01*
X66847297Y-136654387D01*
X66842370Y-136650733D01*
X66837826Y-136646614D01*
X66833707Y-136642070D01*
X66830053Y-136637143D01*
X66826900Y-136631882D01*
X66824278Y-136626338D01*
X66822211Y-136620563D01*
X66820721Y-136614613D01*
X66819821Y-136608546D01*
X66819520Y-136602420D01*
X66819520Y-136477420D01*
X66819821Y-136471294D01*
X66820721Y-136465227D01*
X66822211Y-136459277D01*
X66824278Y-136453502D01*
X66826900Y-136447958D01*
X66830053Y-136442697D01*
X66833707Y-136437770D01*
X66837826Y-136433226D01*
X66842370Y-136429107D01*
X66847297Y-136425453D01*
X66852558Y-136422300D01*
X66858102Y-136419678D01*
X66863877Y-136417611D01*
X66869827Y-136416121D01*
X66875894Y-136415221D01*
X66882020Y-136414920D01*
X67582020Y-136414920D01*
X67588146Y-136415221D01*
G37*
G36*
X67988146Y-135440221D02*
G01*
X67994213Y-135441121D01*
X68000163Y-135442611D01*
X68005938Y-135444678D01*
X68011482Y-135447300D01*
X68016743Y-135450453D01*
X68021670Y-135454107D01*
X68026214Y-135458226D01*
X68030333Y-135462770D01*
X68033987Y-135467697D01*
X68037140Y-135472958D01*
X68039762Y-135478502D01*
X68041829Y-135484277D01*
X68043319Y-135490227D01*
X68044219Y-135496294D01*
X68044520Y-135502420D01*
X68044520Y-136202420D01*
X68044219Y-136208546D01*
X68043319Y-136214613D01*
X68041829Y-136220563D01*
X68039762Y-136226338D01*
X68037140Y-136231882D01*
X68033987Y-136237143D01*
X68030333Y-136242070D01*
X68026214Y-136246614D01*
X68021670Y-136250733D01*
X68016743Y-136254387D01*
X68011482Y-136257540D01*
X68005938Y-136260162D01*
X68000163Y-136262229D01*
X67994213Y-136263719D01*
X67988146Y-136264619D01*
X67982020Y-136264920D01*
X67857020Y-136264920D01*
X67850894Y-136264619D01*
X67844827Y-136263719D01*
X67838877Y-136262229D01*
X67833102Y-136260162D01*
X67827558Y-136257540D01*
X67822297Y-136254387D01*
X67817370Y-136250733D01*
X67812826Y-136246614D01*
X67808707Y-136242070D01*
X67805053Y-136237143D01*
X67801900Y-136231882D01*
X67799278Y-136226338D01*
X67797211Y-136220563D01*
X67795721Y-136214613D01*
X67794821Y-136208546D01*
X67794520Y-136202420D01*
X67794520Y-135502420D01*
X67794821Y-135496294D01*
X67795721Y-135490227D01*
X67797211Y-135484277D01*
X67799278Y-135478502D01*
X67801900Y-135472958D01*
X67805053Y-135467697D01*
X67808707Y-135462770D01*
X67812826Y-135458226D01*
X67817370Y-135454107D01*
X67822297Y-135450453D01*
X67827558Y-135447300D01*
X67833102Y-135444678D01*
X67838877Y-135442611D01*
X67844827Y-135441121D01*
X67850894Y-135440221D01*
X67857020Y-135439920D01*
X67982020Y-135439920D01*
X67988146Y-135440221D01*
G37*
G36*
X68488146Y-135440221D02*
G01*
X68494213Y-135441121D01*
X68500163Y-135442611D01*
X68505938Y-135444678D01*
X68511482Y-135447300D01*
X68516743Y-135450453D01*
X68521670Y-135454107D01*
X68526214Y-135458226D01*
X68530333Y-135462770D01*
X68533987Y-135467697D01*
X68537140Y-135472958D01*
X68539762Y-135478502D01*
X68541829Y-135484277D01*
X68543319Y-135490227D01*
X68544219Y-135496294D01*
X68544520Y-135502420D01*
X68544520Y-136202420D01*
X68544219Y-136208546D01*
X68543319Y-136214613D01*
X68541829Y-136220563D01*
X68539762Y-136226338D01*
X68537140Y-136231882D01*
X68533987Y-136237143D01*
X68530333Y-136242070D01*
X68526214Y-136246614D01*
X68521670Y-136250733D01*
X68516743Y-136254387D01*
X68511482Y-136257540D01*
X68505938Y-136260162D01*
X68500163Y-136262229D01*
X68494213Y-136263719D01*
X68488146Y-136264619D01*
X68482020Y-136264920D01*
X68357020Y-136264920D01*
X68350894Y-136264619D01*
X68344827Y-136263719D01*
X68338877Y-136262229D01*
X68333102Y-136260162D01*
X68327558Y-136257540D01*
X68322297Y-136254387D01*
X68317370Y-136250733D01*
X68312826Y-136246614D01*
X68308707Y-136242070D01*
X68305053Y-136237143D01*
X68301900Y-136231882D01*
X68299278Y-136226338D01*
X68297211Y-136220563D01*
X68295721Y-136214613D01*
X68294821Y-136208546D01*
X68294520Y-136202420D01*
X68294520Y-135502420D01*
X68294821Y-135496294D01*
X68295721Y-135490227D01*
X68297211Y-135484277D01*
X68299278Y-135478502D01*
X68301900Y-135472958D01*
X68305053Y-135467697D01*
X68308707Y-135462770D01*
X68312826Y-135458226D01*
X68317370Y-135454107D01*
X68322297Y-135450453D01*
X68327558Y-135447300D01*
X68333102Y-135444678D01*
X68338877Y-135442611D01*
X68344827Y-135441121D01*
X68350894Y-135440221D01*
X68357020Y-135439920D01*
X68482020Y-135439920D01*
X68488146Y-135440221D01*
G37*
G36*
X68988146Y-135440221D02*
G01*
X68994213Y-135441121D01*
X69000163Y-135442611D01*
X69005938Y-135444678D01*
X69011482Y-135447300D01*
X69016743Y-135450453D01*
X69021670Y-135454107D01*
X69026214Y-135458226D01*
X69030333Y-135462770D01*
X69033987Y-135467697D01*
X69037140Y-135472958D01*
X69039762Y-135478502D01*
X69041829Y-135484277D01*
X69043319Y-135490227D01*
X69044219Y-135496294D01*
X69044520Y-135502420D01*
X69044520Y-136202420D01*
X69044219Y-136208546D01*
X69043319Y-136214613D01*
X69041829Y-136220563D01*
X69039762Y-136226338D01*
X69037140Y-136231882D01*
X69033987Y-136237143D01*
X69030333Y-136242070D01*
X69026214Y-136246614D01*
X69021670Y-136250733D01*
X69016743Y-136254387D01*
X69011482Y-136257540D01*
X69005938Y-136260162D01*
X69000163Y-136262229D01*
X68994213Y-136263719D01*
X68988146Y-136264619D01*
X68982020Y-136264920D01*
X68857020Y-136264920D01*
X68850894Y-136264619D01*
X68844827Y-136263719D01*
X68838877Y-136262229D01*
X68833102Y-136260162D01*
X68827558Y-136257540D01*
X68822297Y-136254387D01*
X68817370Y-136250733D01*
X68812826Y-136246614D01*
X68808707Y-136242070D01*
X68805053Y-136237143D01*
X68801900Y-136231882D01*
X68799278Y-136226338D01*
X68797211Y-136220563D01*
X68795721Y-136214613D01*
X68794821Y-136208546D01*
X68794520Y-136202420D01*
X68794520Y-135502420D01*
X68794821Y-135496294D01*
X68795721Y-135490227D01*
X68797211Y-135484277D01*
X68799278Y-135478502D01*
X68801900Y-135472958D01*
X68805053Y-135467697D01*
X68808707Y-135462770D01*
X68812826Y-135458226D01*
X68817370Y-135454107D01*
X68822297Y-135450453D01*
X68827558Y-135447300D01*
X68833102Y-135444678D01*
X68838877Y-135442611D01*
X68844827Y-135441121D01*
X68850894Y-135440221D01*
X68857020Y-135439920D01*
X68982020Y-135439920D01*
X68988146Y-135440221D01*
G37*
G36*
X69488146Y-135440221D02*
G01*
X69494213Y-135441121D01*
X69500163Y-135442611D01*
X69505938Y-135444678D01*
X69511482Y-135447300D01*
X69516743Y-135450453D01*
X69521670Y-135454107D01*
X69526214Y-135458226D01*
X69530333Y-135462770D01*
X69533987Y-135467697D01*
X69537140Y-135472958D01*
X69539762Y-135478502D01*
X69541829Y-135484277D01*
X69543319Y-135490227D01*
X69544219Y-135496294D01*
X69544520Y-135502420D01*
X69544520Y-136202420D01*
X69544219Y-136208546D01*
X69543319Y-136214613D01*
X69541829Y-136220563D01*
X69539762Y-136226338D01*
X69537140Y-136231882D01*
X69533987Y-136237143D01*
X69530333Y-136242070D01*
X69526214Y-136246614D01*
X69521670Y-136250733D01*
X69516743Y-136254387D01*
X69511482Y-136257540D01*
X69505938Y-136260162D01*
X69500163Y-136262229D01*
X69494213Y-136263719D01*
X69488146Y-136264619D01*
X69482020Y-136264920D01*
X69357020Y-136264920D01*
X69350894Y-136264619D01*
X69344827Y-136263719D01*
X69338877Y-136262229D01*
X69333102Y-136260162D01*
X69327558Y-136257540D01*
X69322297Y-136254387D01*
X69317370Y-136250733D01*
X69312826Y-136246614D01*
X69308707Y-136242070D01*
X69305053Y-136237143D01*
X69301900Y-136231882D01*
X69299278Y-136226338D01*
X69297211Y-136220563D01*
X69295721Y-136214613D01*
X69294821Y-136208546D01*
X69294520Y-136202420D01*
X69294520Y-135502420D01*
X69294821Y-135496294D01*
X69295721Y-135490227D01*
X69297211Y-135484277D01*
X69299278Y-135478502D01*
X69301900Y-135472958D01*
X69305053Y-135467697D01*
X69308707Y-135462770D01*
X69312826Y-135458226D01*
X69317370Y-135454107D01*
X69322297Y-135450453D01*
X69327558Y-135447300D01*
X69333102Y-135444678D01*
X69338877Y-135442611D01*
X69344827Y-135441121D01*
X69350894Y-135440221D01*
X69357020Y-135439920D01*
X69482020Y-135439920D01*
X69488146Y-135440221D01*
G37*
G36*
X69988146Y-135440221D02*
G01*
X69994213Y-135441121D01*
X70000163Y-135442611D01*
X70005938Y-135444678D01*
X70011482Y-135447300D01*
X70016743Y-135450453D01*
X70021670Y-135454107D01*
X70026214Y-135458226D01*
X70030333Y-135462770D01*
X70033987Y-135467697D01*
X70037140Y-135472958D01*
X70039762Y-135478502D01*
X70041829Y-135484277D01*
X70043319Y-135490227D01*
X70044219Y-135496294D01*
X70044520Y-135502420D01*
X70044520Y-136202420D01*
X70044219Y-136208546D01*
X70043319Y-136214613D01*
X70041829Y-136220563D01*
X70039762Y-136226338D01*
X70037140Y-136231882D01*
X70033987Y-136237143D01*
X70030333Y-136242070D01*
X70026214Y-136246614D01*
X70021670Y-136250733D01*
X70016743Y-136254387D01*
X70011482Y-136257540D01*
X70005938Y-136260162D01*
X70000163Y-136262229D01*
X69994213Y-136263719D01*
X69988146Y-136264619D01*
X69982020Y-136264920D01*
X69857020Y-136264920D01*
X69850894Y-136264619D01*
X69844827Y-136263719D01*
X69838877Y-136262229D01*
X69833102Y-136260162D01*
X69827558Y-136257540D01*
X69822297Y-136254387D01*
X69817370Y-136250733D01*
X69812826Y-136246614D01*
X69808707Y-136242070D01*
X69805053Y-136237143D01*
X69801900Y-136231882D01*
X69799278Y-136226338D01*
X69797211Y-136220563D01*
X69795721Y-136214613D01*
X69794821Y-136208546D01*
X69794520Y-136202420D01*
X69794520Y-135502420D01*
X69794821Y-135496294D01*
X69795721Y-135490227D01*
X69797211Y-135484277D01*
X69799278Y-135478502D01*
X69801900Y-135472958D01*
X69805053Y-135467697D01*
X69808707Y-135462770D01*
X69812826Y-135458226D01*
X69817370Y-135454107D01*
X69822297Y-135450453D01*
X69827558Y-135447300D01*
X69833102Y-135444678D01*
X69838877Y-135442611D01*
X69844827Y-135441121D01*
X69850894Y-135440221D01*
X69857020Y-135439920D01*
X69982020Y-135439920D01*
X69988146Y-135440221D01*
G37*
G36*
X70488146Y-135440221D02*
G01*
X70494213Y-135441121D01*
X70500163Y-135442611D01*
X70505938Y-135444678D01*
X70511482Y-135447300D01*
X70516743Y-135450453D01*
X70521670Y-135454107D01*
X70526214Y-135458226D01*
X70530333Y-135462770D01*
X70533987Y-135467697D01*
X70537140Y-135472958D01*
X70539762Y-135478502D01*
X70541829Y-135484277D01*
X70543319Y-135490227D01*
X70544219Y-135496294D01*
X70544520Y-135502420D01*
X70544520Y-136202420D01*
X70544219Y-136208546D01*
X70543319Y-136214613D01*
X70541829Y-136220563D01*
X70539762Y-136226338D01*
X70537140Y-136231882D01*
X70533987Y-136237143D01*
X70530333Y-136242070D01*
X70526214Y-136246614D01*
X70521670Y-136250733D01*
X70516743Y-136254387D01*
X70511482Y-136257540D01*
X70505938Y-136260162D01*
X70500163Y-136262229D01*
X70494213Y-136263719D01*
X70488146Y-136264619D01*
X70482020Y-136264920D01*
X70357020Y-136264920D01*
X70350894Y-136264619D01*
X70344827Y-136263719D01*
X70338877Y-136262229D01*
X70333102Y-136260162D01*
X70327558Y-136257540D01*
X70322297Y-136254387D01*
X70317370Y-136250733D01*
X70312826Y-136246614D01*
X70308707Y-136242070D01*
X70305053Y-136237143D01*
X70301900Y-136231882D01*
X70299278Y-136226338D01*
X70297211Y-136220563D01*
X70295721Y-136214613D01*
X70294821Y-136208546D01*
X70294520Y-136202420D01*
X70294520Y-135502420D01*
X70294821Y-135496294D01*
X70295721Y-135490227D01*
X70297211Y-135484277D01*
X70299278Y-135478502D01*
X70301900Y-135472958D01*
X70305053Y-135467697D01*
X70308707Y-135462770D01*
X70312826Y-135458226D01*
X70317370Y-135454107D01*
X70322297Y-135450453D01*
X70327558Y-135447300D01*
X70333102Y-135444678D01*
X70338877Y-135442611D01*
X70344827Y-135441121D01*
X70350894Y-135440221D01*
X70357020Y-135439920D01*
X70482020Y-135439920D01*
X70488146Y-135440221D01*
G37*
G36*
X71463146Y-136415221D02*
G01*
X71469213Y-136416121D01*
X71475163Y-136417611D01*
X71480938Y-136419678D01*
X71486482Y-136422300D01*
X71491743Y-136425453D01*
X71496670Y-136429107D01*
X71501214Y-136433226D01*
X71505333Y-136437770D01*
X71508987Y-136442697D01*
X71512140Y-136447958D01*
X71514762Y-136453502D01*
X71516829Y-136459277D01*
X71518319Y-136465227D01*
X71519219Y-136471294D01*
X71519520Y-136477420D01*
X71519520Y-136602420D01*
X71519219Y-136608546D01*
X71518319Y-136614613D01*
X71516829Y-136620563D01*
X71514762Y-136626338D01*
X71512140Y-136631882D01*
X71508987Y-136637143D01*
X71505333Y-136642070D01*
X71501214Y-136646614D01*
X71496670Y-136650733D01*
X71491743Y-136654387D01*
X71486482Y-136657540D01*
X71480938Y-136660162D01*
X71475163Y-136662229D01*
X71469213Y-136663719D01*
X71463146Y-136664619D01*
X71457020Y-136664920D01*
X70757020Y-136664920D01*
X70750894Y-136664619D01*
X70744827Y-136663719D01*
X70738877Y-136662229D01*
X70733102Y-136660162D01*
X70727558Y-136657540D01*
X70722297Y-136654387D01*
X70717370Y-136650733D01*
X70712826Y-136646614D01*
X70708707Y-136642070D01*
X70705053Y-136637143D01*
X70701900Y-136631882D01*
X70699278Y-136626338D01*
X70697211Y-136620563D01*
X70695721Y-136614613D01*
X70694821Y-136608546D01*
X70694520Y-136602420D01*
X70694520Y-136477420D01*
X70694821Y-136471294D01*
X70695721Y-136465227D01*
X70697211Y-136459277D01*
X70699278Y-136453502D01*
X70701900Y-136447958D01*
X70705053Y-136442697D01*
X70708707Y-136437770D01*
X70712826Y-136433226D01*
X70717370Y-136429107D01*
X70722297Y-136425453D01*
X70727558Y-136422300D01*
X70733102Y-136419678D01*
X70738877Y-136417611D01*
X70744827Y-136416121D01*
X70750894Y-136415221D01*
X70757020Y-136414920D01*
X71457020Y-136414920D01*
X71463146Y-136415221D01*
G37*
G36*
X71463146Y-136915221D02*
G01*
X71469213Y-136916121D01*
X71475163Y-136917611D01*
X71480938Y-136919678D01*
X71486482Y-136922300D01*
X71491743Y-136925453D01*
X71496670Y-136929107D01*
X71501214Y-136933226D01*
X71505333Y-136937770D01*
X71508987Y-136942697D01*
X71512140Y-136947958D01*
X71514762Y-136953502D01*
X71516829Y-136959277D01*
X71518319Y-136965227D01*
X71519219Y-136971294D01*
X71519520Y-136977420D01*
X71519520Y-137102420D01*
X71519219Y-137108546D01*
X71518319Y-137114613D01*
X71516829Y-137120563D01*
X71514762Y-137126338D01*
X71512140Y-137131882D01*
X71508987Y-137137143D01*
X71505333Y-137142070D01*
X71501214Y-137146614D01*
X71496670Y-137150733D01*
X71491743Y-137154387D01*
X71486482Y-137157540D01*
X71480938Y-137160162D01*
X71475163Y-137162229D01*
X71469213Y-137163719D01*
X71463146Y-137164619D01*
X71457020Y-137164920D01*
X70757020Y-137164920D01*
X70750894Y-137164619D01*
X70744827Y-137163719D01*
X70738877Y-137162229D01*
X70733102Y-137160162D01*
X70727558Y-137157540D01*
X70722297Y-137154387D01*
X70717370Y-137150733D01*
X70712826Y-137146614D01*
X70708707Y-137142070D01*
X70705053Y-137137143D01*
X70701900Y-137131882D01*
X70699278Y-137126338D01*
X70697211Y-137120563D01*
X70695721Y-137114613D01*
X70694821Y-137108546D01*
X70694520Y-137102420D01*
X70694520Y-136977420D01*
X70694821Y-136971294D01*
X70695721Y-136965227D01*
X70697211Y-136959277D01*
X70699278Y-136953502D01*
X70701900Y-136947958D01*
X70705053Y-136942697D01*
X70708707Y-136937770D01*
X70712826Y-136933226D01*
X70717370Y-136929107D01*
X70722297Y-136925453D01*
X70727558Y-136922300D01*
X70733102Y-136919678D01*
X70738877Y-136917611D01*
X70744827Y-136916121D01*
X70750894Y-136915221D01*
X70757020Y-136914920D01*
X71457020Y-136914920D01*
X71463146Y-136915221D01*
G37*
G36*
X71463146Y-137415221D02*
G01*
X71469213Y-137416121D01*
X71475163Y-137417611D01*
X71480938Y-137419678D01*
X71486482Y-137422300D01*
X71491743Y-137425453D01*
X71496670Y-137429107D01*
X71501214Y-137433226D01*
X71505333Y-137437770D01*
X71508987Y-137442697D01*
X71512140Y-137447958D01*
X71514762Y-137453502D01*
X71516829Y-137459277D01*
X71518319Y-137465227D01*
X71519219Y-137471294D01*
X71519520Y-137477420D01*
X71519520Y-137602420D01*
X71519219Y-137608546D01*
X71518319Y-137614613D01*
X71516829Y-137620563D01*
X71514762Y-137626338D01*
X71512140Y-137631882D01*
X71508987Y-137637143D01*
X71505333Y-137642070D01*
X71501214Y-137646614D01*
X71496670Y-137650733D01*
X71491743Y-137654387D01*
X71486482Y-137657540D01*
X71480938Y-137660162D01*
X71475163Y-137662229D01*
X71469213Y-137663719D01*
X71463146Y-137664619D01*
X71457020Y-137664920D01*
X70757020Y-137664920D01*
X70750894Y-137664619D01*
X70744827Y-137663719D01*
X70738877Y-137662229D01*
X70733102Y-137660162D01*
X70727558Y-137657540D01*
X70722297Y-137654387D01*
X70717370Y-137650733D01*
X70712826Y-137646614D01*
X70708707Y-137642070D01*
X70705053Y-137637143D01*
X70701900Y-137631882D01*
X70699278Y-137626338D01*
X70697211Y-137620563D01*
X70695721Y-137614613D01*
X70694821Y-137608546D01*
X70694520Y-137602420D01*
X70694520Y-137477420D01*
X70694821Y-137471294D01*
X70695721Y-137465227D01*
X70697211Y-137459277D01*
X70699278Y-137453502D01*
X70701900Y-137447958D01*
X70705053Y-137442697D01*
X70708707Y-137437770D01*
X70712826Y-137433226D01*
X70717370Y-137429107D01*
X70722297Y-137425453D01*
X70727558Y-137422300D01*
X70733102Y-137419678D01*
X70738877Y-137417611D01*
X70744827Y-137416121D01*
X70750894Y-137415221D01*
X70757020Y-137414920D01*
X71457020Y-137414920D01*
X71463146Y-137415221D01*
G37*
G36*
X71463146Y-137915221D02*
G01*
X71469213Y-137916121D01*
X71475163Y-137917611D01*
X71480938Y-137919678D01*
X71486482Y-137922300D01*
X71491743Y-137925453D01*
X71496670Y-137929107D01*
X71501214Y-137933226D01*
X71505333Y-137937770D01*
X71508987Y-137942697D01*
X71512140Y-137947958D01*
X71514762Y-137953502D01*
X71516829Y-137959277D01*
X71518319Y-137965227D01*
X71519219Y-137971294D01*
X71519520Y-137977420D01*
X71519520Y-138102420D01*
X71519219Y-138108546D01*
X71518319Y-138114613D01*
X71516829Y-138120563D01*
X71514762Y-138126338D01*
X71512140Y-138131882D01*
X71508987Y-138137143D01*
X71505333Y-138142070D01*
X71501214Y-138146614D01*
X71496670Y-138150733D01*
X71491743Y-138154387D01*
X71486482Y-138157540D01*
X71480938Y-138160162D01*
X71475163Y-138162229D01*
X71469213Y-138163719D01*
X71463146Y-138164619D01*
X71457020Y-138164920D01*
X70757020Y-138164920D01*
X70750894Y-138164619D01*
X70744827Y-138163719D01*
X70738877Y-138162229D01*
X70733102Y-138160162D01*
X70727558Y-138157540D01*
X70722297Y-138154387D01*
X70717370Y-138150733D01*
X70712826Y-138146614D01*
X70708707Y-138142070D01*
X70705053Y-138137143D01*
X70701900Y-138131882D01*
X70699278Y-138126338D01*
X70697211Y-138120563D01*
X70695721Y-138114613D01*
X70694821Y-138108546D01*
X70694520Y-138102420D01*
X70694520Y-137977420D01*
X70694821Y-137971294D01*
X70695721Y-137965227D01*
X70697211Y-137959277D01*
X70699278Y-137953502D01*
X70701900Y-137947958D01*
X70705053Y-137942697D01*
X70708707Y-137937770D01*
X70712826Y-137933226D01*
X70717370Y-137929107D01*
X70722297Y-137925453D01*
X70727558Y-137922300D01*
X70733102Y-137919678D01*
X70738877Y-137917611D01*
X70744827Y-137916121D01*
X70750894Y-137915221D01*
X70757020Y-137914920D01*
X71457020Y-137914920D01*
X71463146Y-137915221D01*
G37*
G36*
X71463146Y-138415221D02*
G01*
X71469213Y-138416121D01*
X71475163Y-138417611D01*
X71480938Y-138419678D01*
X71486482Y-138422300D01*
X71491743Y-138425453D01*
X71496670Y-138429107D01*
X71501214Y-138433226D01*
X71505333Y-138437770D01*
X71508987Y-138442697D01*
X71512140Y-138447958D01*
X71514762Y-138453502D01*
X71516829Y-138459277D01*
X71518319Y-138465227D01*
X71519219Y-138471294D01*
X71519520Y-138477420D01*
X71519520Y-138602420D01*
X71519219Y-138608546D01*
X71518319Y-138614613D01*
X71516829Y-138620563D01*
X71514762Y-138626338D01*
X71512140Y-138631882D01*
X71508987Y-138637143D01*
X71505333Y-138642070D01*
X71501214Y-138646614D01*
X71496670Y-138650733D01*
X71491743Y-138654387D01*
X71486482Y-138657540D01*
X71480938Y-138660162D01*
X71475163Y-138662229D01*
X71469213Y-138663719D01*
X71463146Y-138664619D01*
X71457020Y-138664920D01*
X70757020Y-138664920D01*
X70750894Y-138664619D01*
X70744827Y-138663719D01*
X70738877Y-138662229D01*
X70733102Y-138660162D01*
X70727558Y-138657540D01*
X70722297Y-138654387D01*
X70717370Y-138650733D01*
X70712826Y-138646614D01*
X70708707Y-138642070D01*
X70705053Y-138637143D01*
X70701900Y-138631882D01*
X70699278Y-138626338D01*
X70697211Y-138620563D01*
X70695721Y-138614613D01*
X70694821Y-138608546D01*
X70694520Y-138602420D01*
X70694520Y-138477420D01*
X70694821Y-138471294D01*
X70695721Y-138465227D01*
X70697211Y-138459277D01*
X70699278Y-138453502D01*
X70701900Y-138447958D01*
X70705053Y-138442697D01*
X70708707Y-138437770D01*
X70712826Y-138433226D01*
X70717370Y-138429107D01*
X70722297Y-138425453D01*
X70727558Y-138422300D01*
X70733102Y-138419678D01*
X70738877Y-138417611D01*
X70744827Y-138416121D01*
X70750894Y-138415221D01*
X70757020Y-138414920D01*
X71457020Y-138414920D01*
X71463146Y-138415221D01*
G37*
G36*
X71463146Y-138915221D02*
G01*
X71469213Y-138916121D01*
X71475163Y-138917611D01*
X71480938Y-138919678D01*
X71486482Y-138922300D01*
X71491743Y-138925453D01*
X71496670Y-138929107D01*
X71501214Y-138933226D01*
X71505333Y-138937770D01*
X71508987Y-138942697D01*
X71512140Y-138947958D01*
X71514762Y-138953502D01*
X71516829Y-138959277D01*
X71518319Y-138965227D01*
X71519219Y-138971294D01*
X71519520Y-138977420D01*
X71519520Y-139102420D01*
X71519219Y-139108546D01*
X71518319Y-139114613D01*
X71516829Y-139120563D01*
X71514762Y-139126338D01*
X71512140Y-139131882D01*
X71508987Y-139137143D01*
X71505333Y-139142070D01*
X71501214Y-139146614D01*
X71496670Y-139150733D01*
X71491743Y-139154387D01*
X71486482Y-139157540D01*
X71480938Y-139160162D01*
X71475163Y-139162229D01*
X71469213Y-139163719D01*
X71463146Y-139164619D01*
X71457020Y-139164920D01*
X70757020Y-139164920D01*
X70750894Y-139164619D01*
X70744827Y-139163719D01*
X70738877Y-139162229D01*
X70733102Y-139160162D01*
X70727558Y-139157540D01*
X70722297Y-139154387D01*
X70717370Y-139150733D01*
X70712826Y-139146614D01*
X70708707Y-139142070D01*
X70705053Y-139137143D01*
X70701900Y-139131882D01*
X70699278Y-139126338D01*
X70697211Y-139120563D01*
X70695721Y-139114613D01*
X70694821Y-139108546D01*
X70694520Y-139102420D01*
X70694520Y-138977420D01*
X70694821Y-138971294D01*
X70695721Y-138965227D01*
X70697211Y-138959277D01*
X70699278Y-138953502D01*
X70701900Y-138947958D01*
X70705053Y-138942697D01*
X70708707Y-138937770D01*
X70712826Y-138933226D01*
X70717370Y-138929107D01*
X70722297Y-138925453D01*
X70727558Y-138922300D01*
X70733102Y-138919678D01*
X70738877Y-138917611D01*
X70744827Y-138916121D01*
X70750894Y-138915221D01*
X70757020Y-138914920D01*
X71457020Y-138914920D01*
X71463146Y-138915221D01*
G37*
D19*
X52751420Y-139890500D03*
X51251420Y-139890500D03*
X61895420Y-141795500D03*
X60395420Y-141795500D03*
X96591820Y-151132540D03*
X95091820Y-151132540D03*
D22*
X60612020Y-152955400D03*
X60612020Y-155705400D03*
D23*
X49940620Y-143586200D03*
X52690620Y-143586200D03*
D24*
X60612020Y-150762400D03*
X60612020Y-149262400D03*
D25*
X47745520Y-141465300D03*
X49245520Y-141465300D03*
D26*
X40851820Y-155511500D03*
X44151820Y-155511500D03*
D27*
X89580720Y-110400400D03*
X89580720Y-111900400D03*
D19*
X54161120Y-111683800D03*
X52661120Y-111683800D03*
D27*
X86075520Y-109462000D03*
X86075520Y-107962000D03*
D19*
X54338920Y-115874800D03*
X52838920Y-115874800D03*
D27*
X61793120Y-108585700D03*
X61793120Y-107085700D03*
D28*
X90289420Y-108886500D03*
X88389420Y-108886500D03*
X89339420Y-106886500D03*
D11*
X55763920Y-111694000D03*
X55763920Y-109794000D03*
X57763920Y-110744000D03*
D28*
X86161920Y-105990900D03*
X84261920Y-105990900D03*
X85211920Y-103990900D03*
X51173420Y-115858800D03*
X49273420Y-115858800D03*
X50223420Y-113858800D03*
D29*
X69108520Y-154597140D03*
X69108520Y-161597140D03*
D30*
X72358520Y-159997140D03*
X72358520Y-156997140D03*
X72358520Y-152997140D03*
X65858520Y-151897140D03*
D10*
G36*
X57403620Y-145320200D02*
G01*
X58003620Y-146170200D01*
X55803620Y-146170200D01*
X56403620Y-145320200D01*
X57403620Y-145320200D01*
G37*
D31*
X58403620Y-149892200D03*
D32*
X56903620Y-149745700D03*
D31*
X55403620Y-149892200D03*
D33*
X56903620Y-147078700D03*
D10*
G36*
X56503620Y-148988400D02*
G01*
X55803620Y-147988400D01*
X58003620Y-147988400D01*
X57303620Y-148988400D01*
X56503620Y-148988400D01*
G37*
D34*
X91079320Y-131978400D03*
X91079320Y-130708400D03*
X91079320Y-129438400D03*
X91079320Y-128168400D03*
X84729320Y-128168400D03*
X84729320Y-129438400D03*
X84729320Y-130708400D03*
X84729320Y-131978400D03*
D10*
G36*
X41686799Y-158524913D02*
G01*
X43360973Y-158820115D01*
X43065771Y-160494289D01*
X41391597Y-160199087D01*
X41686799Y-158524913D01*
G37*
D14*
X44877697Y-159950667D02*
X44877697Y-159950667D01*
X47379108Y-160391734D02*
X47379108Y-160391734D01*
X49880520Y-160832800D02*
X49880520Y-160832800D01*
D27*
X66885820Y-110655800D03*
X66885820Y-109155800D03*
D19*
X73312720Y-113995200D03*
X71812720Y-113995200D03*
X76333920Y-109156500D03*
X77833920Y-109156500D03*
D27*
X87955120Y-138759500D03*
X87955120Y-140259500D03*
X87993220Y-120904700D03*
X87993220Y-119404700D03*
X51252120Y-120828500D03*
X51252120Y-119328500D03*
X80068420Y-109919200D03*
X80068420Y-108419200D03*
X52433220Y-105461500D03*
X52433220Y-103961500D03*
D19*
X47404720Y-157111700D03*
X45904720Y-157111700D03*
X101316220Y-147866100D03*
X99816220Y-147866100D03*
D27*
X75844400Y-157025340D03*
X75844400Y-155525340D03*
X75844400Y-154383740D03*
X75844400Y-152883740D03*
D19*
X91726320Y-136626600D03*
X93226320Y-136626600D03*
D35*
X52502720Y-149529800D03*
X46902720Y-149529800D03*
D26*
X55036720Y-152742900D03*
X58336720Y-152742900D03*
D24*
X97576640Y-155306460D03*
X97576640Y-153806460D03*
D25*
X69926900Y-141262100D03*
X68426900Y-141262100D03*
X87217820Y-133781800D03*
X88717820Y-133781800D03*
M02*
