M48
; DRILL file {KiCad 5.1.5} date Sun 22 Dec 2019 11:03:37 PM CET
; FORMAT={2:4/ absolute / inch / suppress leading zeros}
; #@! TF.CreationDate,2019-12-22T23:03:37+01:00
; #@! TF.GenerationSoftware,Kicad,Pcbnew,5.1.5
; #@! TF.FileFunction,Plated,1,4,PTH
FMAT,2
INCH,TZ
T1C0.0157
T2C0.0394
T3C0.0402
T4C0.1181
%
G90
G05
T1
X15183Y-61485
X16663Y-60265
X17570Y-33830
X18353Y-30825
X18353Y-31250
X18448Y-47885
X18528Y-42665
X18913Y-26735
X18963Y-34990
X19295Y-42561
X19643Y-37935
X20181Y-46537
X20181Y-55592
X20240Y-41990
X20268Y-43965
X20465Y-44520
X20638Y-42118
X21038Y-54400
X21693Y-55805
X21863Y-42470
X22030Y-34223
X22948Y-34660
X22963Y-35295
X22995Y-45028
X24293Y-41405
X24908Y-57890
X24913Y-38305
X24913Y-57235
X24923Y-58525
X25453Y-31550
X25921Y-48387
X25998Y-45560
X26343Y-34680
X26431Y-32617
X26696Y-45789
X26703Y-38540
X27203Y-42090
X27238Y-54253
X27333Y-52035
X27363Y-60000
X27543Y-46740
X27583Y-28150
X27598Y-52380
X27843Y-45154
X27875Y-42080
X28038Y-38650
X28421Y-47474
X28436Y-46151
X28463Y-38350
X28468Y-45750
X28725Y-47170
X28778Y-32655
X28793Y-60985
X28862Y-45464
X28909Y-48120
X28958Y-58505
X29006Y-37813
X29047Y-46849
X29268Y-62915
X29463Y-36065
X29680Y-37101
X29908Y-36490
X30118Y-35705
X30436Y-50317
X30869Y-50356
X31303Y-44057
X31513Y-49675
X31630Y-57395
X31762Y-39787
X31920Y-60855
X32068Y-54445
X32129Y-43269
X32185Y-59095
X32348Y-56705
X32398Y-42310
X32893Y-44785
X33547Y-42128
X33568Y-44020
X33665Y-54017
X33873Y-46025
X34028Y-57360
X34185Y-63650
X34629Y-46537
X34629Y-55592
X34678Y-41315
X34852Y-41668
X34993Y-36235
X35168Y-35615
X35295Y-41428
X35333Y-25485
X35515Y-53584
X35623Y-56455
X35858Y-32375
X36098Y-29960
X36163Y-29515
X36895Y-32480
X37863Y-55350
X39649Y-59569
X40279Y-59569
X41338Y-56310
T2
X16684Y-62799
X17668Y-62973
X18653Y-63146
X19638Y-63320
X37657Y-52473
X38157Y-53339
X38523Y-51973
X38657Y-54205
X39023Y-52839
X39523Y-53705
T3
X31421Y-31773
X31421Y-52242
X22995Y-31777
X22995Y-52246
T4
X27208Y-11301
T0
M30
