G04 #@! TF.GenerationSoftware,KiCad,Pcbnew,5.1.5*
G04 #@! TF.CreationDate,2019-12-22T23:03:36+01:00*
G04 #@! TF.ProjectId,hh2020v1,68683230-3230-4763-912e-6b696361645f,rev?*
G04 #@! TF.SameCoordinates,Original*
G04 #@! TF.FileFunction,Other,User*
%FSLAX46Y46*%
G04 Gerber Fmt 4.6, Leading zero omitted, Abs format (unit mm)*
G04 Created by KiCad (PCBNEW 5.1.5) date 2019-12-22 23:03:36*
%MOMM*%
%LPD*%
G04 APERTURE LIST*
%ADD10C,0.050000*%
%ADD11C,0.120000*%
G04 APERTURE END LIST*
D10*
X96254040Y-152862340D02*
X92854040Y-152862340D01*
X92854040Y-152862340D02*
X92854040Y-156362340D01*
X92854040Y-156362340D02*
X96254040Y-156362340D01*
X96254040Y-156362340D02*
X96254040Y-152862340D01*
D11*
X78014222Y-103500695D02*
X78731192Y-104524635D01*
X80881254Y-101493177D02*
X78014222Y-103500695D01*
X81598224Y-102517117D02*
X80881254Y-101493177D01*
X78731192Y-104524635D02*
X81598224Y-102517117D01*
X74427020Y-55144100D02*
X74427020Y-53894100D01*
X70927020Y-55144100D02*
X74427020Y-55144100D01*
X70927020Y-53894100D02*
X70927020Y-55144100D01*
X74427020Y-53894100D02*
X70927020Y-53894100D01*
X58341176Y-104075981D02*
X57716176Y-105158513D01*
X61372264Y-105825981D02*
X58341176Y-104075981D01*
X60747264Y-106908513D02*
X61372264Y-105825981D01*
X57716176Y-105158513D02*
X60747264Y-106908513D01*
X92288939Y-62473056D02*
X91206407Y-63098056D01*
X94038939Y-65504144D02*
X92288939Y-62473056D01*
X92956407Y-66129144D02*
X94038939Y-65504144D01*
X91206407Y-63098056D02*
X92956407Y-66129144D01*
X71987127Y-76608867D02*
X72871010Y-75724983D01*
X69512253Y-74133993D02*
X71987127Y-76608867D01*
X70396137Y-73250110D02*
X69512253Y-74133993D01*
X72871010Y-75724983D02*
X70396137Y-73250110D01*
X64736920Y-84570000D02*
X64736920Y-83320000D01*
X61236920Y-84570000D02*
X64736920Y-84570000D01*
X61236920Y-83320000D02*
X61236920Y-84570000D01*
X64736920Y-83320000D02*
X61236920Y-83320000D01*
X60349565Y-97821968D02*
X61307121Y-97018484D01*
X58099808Y-95140813D02*
X60349565Y-97821968D01*
X59057364Y-94337328D02*
X58099808Y-95140813D01*
X61307121Y-97018484D02*
X59057364Y-94337328D01*
X80383532Y-94328013D02*
X79425976Y-93524528D01*
X78133775Y-97009168D02*
X80383532Y-94328013D01*
X77176219Y-96205684D02*
X78133775Y-97009168D01*
X79425976Y-93524528D02*
X77176219Y-96205684D01*
X81937708Y-100870987D02*
X82895264Y-101674472D01*
X84187465Y-98189832D02*
X81937708Y-100870987D01*
X85145021Y-98993316D02*
X84187465Y-98189832D01*
X82895264Y-101674472D02*
X85145021Y-98993316D01*
X93881225Y-84019553D02*
X92706609Y-83592028D01*
X92684154Y-87308477D02*
X93881225Y-84019553D01*
X91509538Y-86880952D02*
X92684154Y-87308477D01*
X92706609Y-83592028D02*
X91509538Y-86880952D01*
X71239320Y-84150900D02*
X71239320Y-82900900D01*
X67739320Y-84150900D02*
X71239320Y-84150900D01*
X67739320Y-82900900D02*
X67739320Y-84150900D01*
X71239320Y-82900900D02*
X67739320Y-82900900D01*
X54321275Y-100018632D02*
X53363719Y-100822116D01*
X56571032Y-102699787D02*
X54321275Y-100018632D01*
X55613476Y-103503272D02*
X56571032Y-102699787D01*
X53363719Y-100822116D02*
X55613476Y-103503272D01*
X77844164Y-97297819D02*
X77219164Y-96215287D01*
X74813076Y-99047819D02*
X77844164Y-97297819D01*
X74188076Y-97965287D02*
X74813076Y-99047819D01*
X77219164Y-96215287D02*
X74188076Y-97965287D01*
X95436120Y-74716700D02*
X94186120Y-74716700D01*
X95436120Y-78216700D02*
X95436120Y-74716700D01*
X94186120Y-78216700D02*
X95436120Y-78216700D01*
X94186120Y-74716700D02*
X94186120Y-78216700D01*
X61440120Y-87959500D02*
X61440120Y-89209500D01*
X64940120Y-87959500D02*
X61440120Y-87959500D01*
X64940120Y-89209500D02*
X64940120Y-87959500D01*
X61440120Y-89209500D02*
X64940120Y-89209500D01*
X73251120Y-87959500D02*
X73251120Y-89209500D01*
X76751120Y-87959500D02*
X73251120Y-87959500D01*
X76751120Y-89209500D02*
X76751120Y-87959500D01*
X73251120Y-89209500D02*
X76751120Y-89209500D01*
X49026698Y-105739650D02*
X50257708Y-105522589D01*
X48418930Y-102292823D02*
X49026698Y-105739650D01*
X49649940Y-102075762D02*
X48418930Y-102292823D01*
X50257708Y-105522589D02*
X49649940Y-102075762D01*
X73781370Y-99863022D02*
X73564309Y-98632012D01*
X70334543Y-100470790D02*
X73781370Y-99863022D01*
X70117482Y-99239780D02*
X70334543Y-100470790D01*
X73564309Y-98632012D02*
X70117482Y-99239780D01*
X73818532Y-107268445D02*
X74622016Y-108226001D01*
X76499687Y-105018688D02*
X73818532Y-107268445D01*
X77303172Y-105976244D02*
X76499687Y-105018688D01*
X74622016Y-108226001D02*
X77303172Y-105976244D01*
X44825401Y-67066244D02*
X45907933Y-67691244D01*
X46575401Y-64035156D02*
X44825401Y-67066244D01*
X47657933Y-64660156D02*
X46575401Y-64035156D01*
X45907933Y-67691244D02*
X47657933Y-64660156D01*
X47133671Y-98245202D02*
X48266556Y-97716929D01*
X45654507Y-95073125D02*
X47133671Y-98245202D01*
X46787392Y-94544852D02*
X45654507Y-95073125D01*
X48266556Y-97716929D02*
X46787392Y-94544852D01*
X69050497Y-100305690D02*
X69267558Y-99074680D01*
X65603670Y-99697922D02*
X69050497Y-100305690D01*
X65820731Y-98466912D02*
X65603670Y-99697922D01*
X69267558Y-99074680D02*
X65820731Y-98466912D01*
X64065823Y-106539210D02*
X63848762Y-107770220D01*
X67512650Y-107146978D02*
X64065823Y-106539210D01*
X67295589Y-108377988D02*
X67512650Y-107146978D01*
X63848762Y-107770220D02*
X67295589Y-108377988D01*
X92807039Y-92623556D02*
X91724507Y-91998556D01*
X91057039Y-95654644D02*
X92807039Y-92623556D01*
X89974507Y-95029644D02*
X91057039Y-95654644D01*
X91724507Y-91998556D02*
X89974507Y-95029644D01*
X42869420Y-80032800D02*
X44119420Y-80032800D01*
X42869420Y-76532800D02*
X42869420Y-80032800D01*
X44119420Y-76532800D02*
X42869420Y-76532800D01*
X44119420Y-80032800D02*
X44119420Y-76532800D01*
X77322620Y-84722400D02*
X77322620Y-83472400D01*
X73822620Y-84722400D02*
X77322620Y-84722400D01*
X73822620Y-83472400D02*
X73822620Y-84722400D01*
X77322620Y-83472400D02*
X73822620Y-83472400D01*
X69009187Y-74121293D02*
X68125303Y-73237410D01*
X66534313Y-76596167D02*
X69009187Y-74121293D01*
X65650430Y-75712283D02*
X66534313Y-76596167D01*
X68125303Y-73237410D02*
X65650430Y-75712283D01*
X64038564Y-99733619D02*
X64663564Y-98651087D01*
X61007476Y-97983619D02*
X64038564Y-99733619D01*
X61632476Y-96901087D02*
X61007476Y-97983619D01*
X64663564Y-98651087D02*
X61632476Y-96901087D01*
X90331110Y-99613123D02*
X89100100Y-99396062D01*
X89723342Y-103059950D02*
X90331110Y-99613123D01*
X88492332Y-102842889D02*
X89723342Y-103059950D01*
X89100100Y-99396062D02*
X88492332Y-102842889D01*
X45998565Y-90862368D02*
X46956121Y-90058884D01*
X43748808Y-88181213D02*
X45998565Y-90862368D01*
X44706364Y-87377728D02*
X43748808Y-88181213D01*
X46956121Y-90058884D02*
X44706364Y-87377728D01*
D10*
X44008954Y-134217569D02*
X47727994Y-126242060D01*
X47727994Y-126242060D02*
X43604294Y-124319147D01*
X43604294Y-124319147D02*
X42442094Y-126811494D01*
X42442094Y-126811494D02*
X41263894Y-126262090D01*
X41263894Y-126262090D02*
X39869253Y-129252906D01*
X39869253Y-129252906D02*
X41047454Y-129802309D01*
X41047454Y-129802309D02*
X39885253Y-132294656D01*
X39885253Y-132294656D02*
X44008954Y-134217569D01*
X88508520Y-135454100D02*
X88508520Y-77954100D01*
X71108520Y-135454100D02*
X88508520Y-135454100D01*
X71108520Y-77954100D02*
X71108520Y-135454100D01*
X88508520Y-77954100D02*
X71108520Y-77954100D01*
X49708520Y-77954100D02*
X49708520Y-135454100D01*
X67108520Y-77954100D02*
X49708520Y-77954100D01*
X67108520Y-135454100D02*
X67108520Y-77954100D01*
X49708520Y-135454100D02*
X67108520Y-135454100D01*
X80781420Y-117510500D02*
X84181420Y-117510500D01*
X84181420Y-117510500D02*
X84181420Y-114010500D01*
X84181420Y-114010500D02*
X80781420Y-114010500D01*
X80781420Y-114010500D02*
X80781420Y-117510500D01*
X77828520Y-117489200D02*
X80328520Y-117489200D01*
X77828520Y-117489200D02*
X77828520Y-116089200D01*
X80328520Y-116089200D02*
X80328520Y-117489200D01*
X80328520Y-116089200D02*
X77828520Y-116089200D01*
X84022440Y-147272500D02*
X82022440Y-147272500D01*
X84022440Y-147272500D02*
X84022440Y-149272500D01*
X82022440Y-149272500D02*
X82022440Y-147272500D01*
X82022440Y-149272500D02*
X84022440Y-149272500D01*
X101108520Y-145104100D02*
X99108520Y-145104100D01*
X101108520Y-145104100D02*
X101108520Y-147104100D01*
X99108520Y-147104100D02*
X99108520Y-145104100D01*
X99108520Y-147104100D02*
X101108520Y-147104100D01*
X95876620Y-145646900D02*
X93876620Y-145646900D01*
X95876620Y-145646900D02*
X95876620Y-147646900D01*
X93876620Y-147646900D02*
X93876620Y-145646900D01*
X93876620Y-147646900D02*
X95876620Y-147646900D01*
X65008520Y-135504100D02*
X63008520Y-135504100D01*
X65008520Y-135504100D02*
X65008520Y-137504100D01*
X63008520Y-137504100D02*
X63008520Y-135504100D01*
X63008520Y-137504100D02*
X65008520Y-137504100D01*
X65930020Y-143678400D02*
X63930020Y-143678400D01*
X65930020Y-143678400D02*
X65930020Y-145678400D01*
X63930020Y-145678400D02*
X63930020Y-143678400D01*
X63930020Y-145678400D02*
X65930020Y-145678400D01*
X65930020Y-145964400D02*
X63930020Y-145964400D01*
X65930020Y-145964400D02*
X65930020Y-147964400D01*
X63930020Y-147964400D02*
X63930020Y-145964400D01*
X63930020Y-147964400D02*
X65930020Y-147964400D01*
X65396620Y-114227100D02*
X63396620Y-114227100D01*
X65396620Y-114227100D02*
X65396620Y-116227100D01*
X63396620Y-116227100D02*
X63396620Y-114227100D01*
X63396620Y-116227100D02*
X65396620Y-116227100D01*
X57878220Y-112753900D02*
X55878220Y-112753900D01*
X57878220Y-112753900D02*
X57878220Y-114753900D01*
X55878220Y-114753900D02*
X55878220Y-112753900D01*
X55878220Y-114753900D02*
X57878220Y-114753900D01*
X63301120Y-114227100D02*
X61301120Y-114227100D01*
X63301120Y-114227100D02*
X63301120Y-116227100D01*
X61301120Y-116227100D02*
X61301120Y-114227100D01*
X61301120Y-116227100D02*
X63301120Y-116227100D01*
X76420220Y-111014000D02*
X74420220Y-111014000D01*
X76420220Y-111014000D02*
X76420220Y-113014000D01*
X74420220Y-113014000D02*
X74420220Y-111014000D01*
X74420220Y-113014000D02*
X76420220Y-113014000D01*
X55744620Y-112766600D02*
X53744620Y-112766600D01*
X55744620Y-112766600D02*
X55744620Y-114766600D01*
X53744620Y-114766600D02*
X53744620Y-112766600D01*
X53744620Y-114766600D02*
X55744620Y-114766600D01*
X79430120Y-112906300D02*
X77430120Y-112906300D01*
X79430120Y-112906300D02*
X79430120Y-114906300D01*
X77430120Y-114906300D02*
X77430120Y-112906300D01*
X77430120Y-114906300D02*
X79430120Y-114906300D01*
X75537820Y-117789200D02*
X77537820Y-117789200D01*
X75537820Y-117789200D02*
X75537820Y-115789200D01*
X77537820Y-115789200D02*
X77537820Y-117789200D01*
X77537820Y-115789200D02*
X75537820Y-115789200D01*
X90608520Y-112704100D02*
X88608520Y-112704100D01*
X90608520Y-112704100D02*
X90608520Y-114704100D01*
X88608520Y-114704100D02*
X88608520Y-112704100D01*
X88608520Y-114704100D02*
X90608520Y-114704100D01*
X65295020Y-109680500D02*
X63295020Y-109680500D01*
X65295020Y-109680500D02*
X65295020Y-111680500D01*
X63295020Y-111680500D02*
X63295020Y-109680500D01*
X63295020Y-111680500D02*
X65295020Y-111680500D01*
X74312020Y-111014000D02*
X72312020Y-111014000D01*
X74312020Y-111014000D02*
X74312020Y-113014000D01*
X72312020Y-113014000D02*
X72312020Y-111014000D01*
X72312020Y-113014000D02*
X74312020Y-113014000D01*
X82308520Y-110604100D02*
X80308520Y-110604100D01*
X82308520Y-110604100D02*
X82308520Y-112604100D01*
X80308520Y-112604100D02*
X80308520Y-110604100D01*
X80308520Y-112604100D02*
X82308520Y-112604100D01*
X91239020Y-135815300D02*
X93739020Y-135815300D01*
X91239020Y-135815300D02*
X91239020Y-134415300D01*
X93739020Y-134415300D02*
X93739020Y-135815300D01*
X93739020Y-134415300D02*
X91239020Y-134415300D01*
X80652520Y-151565200D02*
X76852520Y-151565200D01*
X76852520Y-151565200D02*
X76852520Y-155165200D01*
X76852520Y-155165200D02*
X80652520Y-155165200D01*
X80652520Y-155165200D02*
X80652520Y-151565200D01*
X71769520Y-140389920D02*
X66569520Y-140389920D01*
X66569520Y-140389920D02*
X66569520Y-135189920D01*
X66569520Y-135189920D02*
X71769520Y-135189920D01*
X71769520Y-135189920D02*
X71769520Y-140389920D01*
X53251420Y-139190500D02*
X50751420Y-139190500D01*
X53251420Y-139190500D02*
X53251420Y-140590500D01*
X50751420Y-140590500D02*
X50751420Y-139190500D01*
X50751420Y-140590500D02*
X53251420Y-140590500D01*
X62395420Y-141095500D02*
X59895420Y-141095500D01*
X62395420Y-141095500D02*
X62395420Y-142495500D01*
X59895420Y-142495500D02*
X59895420Y-141095500D01*
X59895420Y-142495500D02*
X62395420Y-142495500D01*
X97091820Y-150432540D02*
X94591820Y-150432540D01*
X97091820Y-150432540D02*
X97091820Y-151832540D01*
X94591820Y-151832540D02*
X94591820Y-150432540D01*
X94591820Y-151832540D02*
X97091820Y-151832540D01*
X59412020Y-151580400D02*
X61812020Y-151580400D01*
X61812020Y-151580400D02*
X61812020Y-157080400D01*
X61812020Y-157080400D02*
X59412020Y-157080400D01*
X59412020Y-157080400D02*
X59412020Y-151580400D01*
X48565620Y-144786200D02*
X48565620Y-142386200D01*
X48565620Y-142386200D02*
X54065620Y-142386200D01*
X54065620Y-142386200D02*
X54065620Y-144786200D01*
X54065620Y-144786200D02*
X48565620Y-144786200D01*
X61262020Y-151412400D02*
X61262020Y-148612400D01*
X61262020Y-151412400D02*
X59962020Y-151412400D01*
X59962020Y-148612400D02*
X61262020Y-148612400D01*
X59962020Y-148612400D02*
X59962020Y-151412400D01*
X47095520Y-142115300D02*
X49895520Y-142115300D01*
X47095520Y-142115300D02*
X47095520Y-140815300D01*
X49895520Y-140815300D02*
X49895520Y-142115300D01*
X49895520Y-140815300D02*
X47095520Y-140815300D01*
X40151820Y-156661500D02*
X44851820Y-156661500D01*
X44851820Y-156661500D02*
X44851820Y-154361500D01*
X44851820Y-154361500D02*
X40151820Y-154361500D01*
X40151820Y-156661500D02*
X40151820Y-154361500D01*
X88880720Y-109900400D02*
X88880720Y-112400400D01*
X88880720Y-109900400D02*
X90280720Y-109900400D01*
X90280720Y-112400400D02*
X88880720Y-112400400D01*
X90280720Y-112400400D02*
X90280720Y-109900400D01*
X54661120Y-110983800D02*
X52161120Y-110983800D01*
X54661120Y-110983800D02*
X54661120Y-112383800D01*
X52161120Y-112383800D02*
X52161120Y-110983800D01*
X52161120Y-112383800D02*
X54661120Y-112383800D01*
X86775520Y-109962000D02*
X86775520Y-107462000D01*
X86775520Y-109962000D02*
X85375520Y-109962000D01*
X85375520Y-107462000D02*
X86775520Y-107462000D01*
X85375520Y-107462000D02*
X85375520Y-109962000D01*
X54838920Y-115174800D02*
X52338920Y-115174800D01*
X54838920Y-115174800D02*
X54838920Y-116574800D01*
X52338920Y-116574800D02*
X52338920Y-115174800D01*
X52338920Y-116574800D02*
X54838920Y-116574800D01*
X62493120Y-109085700D02*
X62493120Y-106585700D01*
X62493120Y-109085700D02*
X61093120Y-109085700D01*
X61093120Y-106585700D02*
X62493120Y-106585700D01*
X61093120Y-106585700D02*
X61093120Y-109085700D01*
X91089420Y-109586500D02*
X91089420Y-106186500D01*
X91089420Y-106186500D02*
X87589420Y-106186500D01*
X87589420Y-106186500D02*
X87589420Y-109586500D01*
X87589420Y-109586500D02*
X91089420Y-109586500D01*
X55063920Y-112494000D02*
X58463920Y-112494000D01*
X58463920Y-112494000D02*
X58463920Y-108994000D01*
X58463920Y-108994000D02*
X55063920Y-108994000D01*
X55063920Y-108994000D02*
X55063920Y-112494000D01*
X86961920Y-106690900D02*
X86961920Y-103290900D01*
X86961920Y-103290900D02*
X83461920Y-103290900D01*
X83461920Y-103290900D02*
X83461920Y-106690900D01*
X83461920Y-106690900D02*
X86961920Y-106690900D01*
X51973420Y-116558800D02*
X51973420Y-113158800D01*
X51973420Y-113158800D02*
X48473420Y-113158800D01*
X48473420Y-113158800D02*
X48473420Y-116558800D01*
X48473420Y-116558800D02*
X51973420Y-116558800D01*
X74108520Y-165552140D02*
X74108520Y-150752140D01*
X64108520Y-165552140D02*
X64108520Y-150752140D01*
X64108520Y-165552140D02*
X74108520Y-165552140D01*
X64108520Y-150752140D02*
X74108520Y-150752140D01*
X59453620Y-145182200D02*
X54353620Y-145182200D01*
X59453620Y-145182200D02*
X59453620Y-150892200D01*
X54353620Y-150892200D02*
X54353620Y-145182200D01*
X54353620Y-150892200D02*
X59453620Y-150892200D01*
X40916198Y-157424380D02*
X51946045Y-159369240D01*
X51946045Y-159369240D02*
X51320911Y-162914548D01*
X51320911Y-162914548D02*
X40291064Y-160969688D01*
X40291064Y-160969688D02*
X40916198Y-157424380D01*
X67585820Y-111155800D02*
X67585820Y-108655800D01*
X67585820Y-111155800D02*
X66185820Y-111155800D01*
X66185820Y-108655800D02*
X67585820Y-108655800D01*
X66185820Y-108655800D02*
X66185820Y-111155800D01*
X73812720Y-113295200D02*
X71312720Y-113295200D01*
X73812720Y-113295200D02*
X73812720Y-114695200D01*
X71312720Y-114695200D02*
X71312720Y-113295200D01*
X71312720Y-114695200D02*
X73812720Y-114695200D01*
X75833920Y-109856500D02*
X78333920Y-109856500D01*
X75833920Y-109856500D02*
X75833920Y-108456500D01*
X78333920Y-108456500D02*
X78333920Y-109856500D01*
X78333920Y-108456500D02*
X75833920Y-108456500D01*
X87255120Y-138259500D02*
X87255120Y-140759500D01*
X87255120Y-138259500D02*
X88655120Y-138259500D01*
X88655120Y-140759500D02*
X87255120Y-140759500D01*
X88655120Y-140759500D02*
X88655120Y-138259500D01*
X88693220Y-121404700D02*
X88693220Y-118904700D01*
X88693220Y-121404700D02*
X87293220Y-121404700D01*
X87293220Y-118904700D02*
X88693220Y-118904700D01*
X87293220Y-118904700D02*
X87293220Y-121404700D01*
X51952120Y-121328500D02*
X51952120Y-118828500D01*
X51952120Y-121328500D02*
X50552120Y-121328500D01*
X50552120Y-118828500D02*
X51952120Y-118828500D01*
X50552120Y-118828500D02*
X50552120Y-121328500D01*
X80768420Y-110419200D02*
X80768420Y-107919200D01*
X80768420Y-110419200D02*
X79368420Y-110419200D01*
X79368420Y-107919200D02*
X80768420Y-107919200D01*
X79368420Y-107919200D02*
X79368420Y-110419200D01*
X53133220Y-105961500D02*
X53133220Y-103461500D01*
X53133220Y-105961500D02*
X51733220Y-105961500D01*
X51733220Y-103461500D02*
X53133220Y-103461500D01*
X51733220Y-103461500D02*
X51733220Y-105961500D01*
X47904720Y-156411700D02*
X45404720Y-156411700D01*
X47904720Y-156411700D02*
X47904720Y-157811700D01*
X45404720Y-157811700D02*
X45404720Y-156411700D01*
X45404720Y-157811700D02*
X47904720Y-157811700D01*
X101816220Y-147166100D02*
X99316220Y-147166100D01*
X101816220Y-147166100D02*
X101816220Y-148566100D01*
X99316220Y-148566100D02*
X99316220Y-147166100D01*
X99316220Y-148566100D02*
X101816220Y-148566100D01*
X76544400Y-157525340D02*
X76544400Y-155025340D01*
X76544400Y-157525340D02*
X75144400Y-157525340D01*
X75144400Y-155025340D02*
X76544400Y-155025340D01*
X75144400Y-155025340D02*
X75144400Y-157525340D01*
X76544400Y-154883740D02*
X76544400Y-152383740D01*
X76544400Y-154883740D02*
X75144400Y-154883740D01*
X75144400Y-152383740D02*
X76544400Y-152383740D01*
X75144400Y-152383740D02*
X75144400Y-154883740D01*
X91226320Y-137326600D02*
X93726320Y-137326600D01*
X91226320Y-137326600D02*
X91226320Y-135926600D01*
X93726320Y-135926600D02*
X93726320Y-137326600D01*
X93726320Y-135926600D02*
X91226320Y-135926600D01*
X45352720Y-153879800D02*
X45352720Y-145179800D01*
X45352720Y-153879800D02*
X54052720Y-153879800D01*
X54052720Y-153879800D02*
X54052720Y-145179800D01*
X45352720Y-145179800D02*
X54052720Y-145179800D01*
X59036720Y-151592900D02*
X59036720Y-153892900D01*
X54336720Y-153892900D02*
X59036720Y-153892900D01*
X54336720Y-151592900D02*
X54336720Y-153892900D01*
X59036720Y-151592900D02*
X54336720Y-151592900D01*
X98226640Y-155956460D02*
X98226640Y-153156460D01*
X98226640Y-155956460D02*
X96926640Y-155956460D01*
X96926640Y-153156460D02*
X98226640Y-153156460D01*
X96926640Y-153156460D02*
X96926640Y-155956460D01*
X70576900Y-140612100D02*
X67776900Y-140612100D01*
X70576900Y-140612100D02*
X70576900Y-141912100D01*
X67776900Y-141912100D02*
X67776900Y-140612100D01*
X67776900Y-141912100D02*
X70576900Y-141912100D01*
X86567820Y-134431800D02*
X89367820Y-134431800D01*
X86567820Y-134431800D02*
X86567820Y-133131800D01*
X89367820Y-133131800D02*
X89367820Y-134431800D01*
X89367820Y-133131800D02*
X86567820Y-133131800D01*
M02*
