G04 #@! TF.GenerationSoftware,KiCad,Pcbnew,5.1.5*
G04 #@! TF.CreationDate,2019-12-22T23:03:36+01:00*
G04 #@! TF.ProjectId,hh2020v1,68683230-3230-4763-912e-6b696361645f,rev?*
G04 #@! TF.SameCoordinates,Original*
G04 #@! TF.FileFunction,Paste,Bot*
G04 #@! TF.FilePolarity,Positive*
%FSLAX46Y46*%
G04 Gerber Fmt 4.6, Leading zero omitted, Abs format (unit mm)*
G04 Created by KiCad (PCBNEW 5.1.5) date 2019-12-22 23:03:36*
%MOMM*%
%LPD*%
G04 APERTURE LIST*
%ADD10R,0.900000X0.800000*%
%ADD11C,0.100000*%
%ADD12R,0.900000X0.700000*%
%ADD13R,0.700000X0.900000*%
%ADD14R,0.500000X0.900000*%
%ADD15R,1.060000X0.650000*%
%ADD16R,1.500000X1.950000*%
%ADD17R,1.950000X1.500000*%
%ADD18R,0.750000X0.800000*%
%ADD19R,0.800000X0.750000*%
%ADD20R,0.900000X1.200000*%
%ADD21R,0.900000X0.500000*%
%ADD22R,0.800000X0.900000*%
%ADD23R,2.500000X1.200000*%
%ADD24R,1.000000X1.500000*%
%ADD25R,1.000000X1.800000*%
%ADD26R,2.200000X1.840000*%
%ADD27R,1.143000X0.508000*%
%ADD28R,2.600000X8.200000*%
G04 APERTURE END LIST*
D10*
X95554040Y-153662340D03*
X95554040Y-155562340D03*
X93554040Y-154612340D03*
D11*
G36*
X78808986Y-104287047D02*
G01*
X78407483Y-103713640D01*
X79144720Y-103197421D01*
X79546223Y-103770828D01*
X78808986Y-104287047D01*
G37*
G36*
X80611120Y-103025179D02*
G01*
X80209617Y-102451772D01*
X80946854Y-101935553D01*
X81348357Y-102508960D01*
X80611120Y-103025179D01*
G37*
D12*
X73777020Y-54394100D03*
X71577020Y-54394100D03*
D11*
G36*
X57964381Y-105128609D02*
G01*
X58314381Y-104522391D01*
X59093803Y-104972391D01*
X58743803Y-105578609D01*
X57964381Y-105128609D01*
G37*
G36*
X59869637Y-106228609D02*
G01*
X60219637Y-105622391D01*
X60999059Y-106072391D01*
X60649059Y-106678609D01*
X59869637Y-106228609D01*
G37*
G36*
X91436311Y-63196261D02*
G01*
X92042529Y-62846261D01*
X92492529Y-63625683D01*
X91886311Y-63975683D01*
X91436311Y-63196261D01*
G37*
G36*
X92536311Y-65101517D02*
G01*
X93142529Y-64751517D01*
X93592529Y-65530939D01*
X92986311Y-65880939D01*
X92536311Y-65101517D01*
G37*
G36*
X72623522Y-75689628D02*
G01*
X72128548Y-76184602D01*
X71492152Y-75548206D01*
X71987126Y-75053232D01*
X72623522Y-75689628D01*
G37*
G36*
X71067888Y-74133994D02*
G01*
X70572914Y-74628968D01*
X69936518Y-73992572D01*
X70431492Y-73497598D01*
X71067888Y-74133994D01*
G37*
D12*
X64086920Y-83820000D03*
X61886920Y-83820000D03*
D11*
G36*
X61063656Y-96961693D02*
G01*
X60527425Y-97411645D01*
X59948916Y-96722205D01*
X60485147Y-96272253D01*
X61063656Y-96961693D01*
G37*
G36*
X59649524Y-95276395D02*
G01*
X59113293Y-95726347D01*
X58534784Y-95036907D01*
X59071015Y-94586955D01*
X59649524Y-95276395D01*
G37*
G36*
X79412325Y-93774155D02*
G01*
X79948556Y-94224107D01*
X79370047Y-94913547D01*
X78833816Y-94463595D01*
X79412325Y-93774155D01*
G37*
G36*
X77998193Y-95459453D02*
G01*
X78534424Y-95909405D01*
X77955915Y-96598845D01*
X77419684Y-96148893D01*
X77998193Y-95459453D01*
G37*
G36*
X82908915Y-101424845D02*
G01*
X82372684Y-100974893D01*
X82951193Y-100285453D01*
X83487424Y-100735405D01*
X82908915Y-101424845D01*
G37*
G36*
X84323047Y-99739547D02*
G01*
X83786816Y-99289595D01*
X84365325Y-98600155D01*
X84901556Y-99050107D01*
X84323047Y-99739547D01*
G37*
G36*
X92779159Y-83831269D02*
G01*
X93436943Y-84070683D01*
X93129125Y-84916407D01*
X92471341Y-84676993D01*
X92779159Y-83831269D01*
G37*
G36*
X92026715Y-85898593D02*
G01*
X92684499Y-86138007D01*
X92376681Y-86983731D01*
X91718897Y-86744317D01*
X92026715Y-85898593D01*
G37*
D12*
X70589320Y-83400900D03*
X68389320Y-83400900D03*
D11*
G36*
X53607184Y-100878907D02*
G01*
X54143415Y-100428955D01*
X54721924Y-101118395D01*
X54185693Y-101568347D01*
X53607184Y-100878907D01*
G37*
G36*
X55021316Y-102564205D02*
G01*
X55557547Y-102114253D01*
X56136056Y-102803693D01*
X55599825Y-103253645D01*
X55021316Y-102564205D01*
G37*
G36*
X77120959Y-96445191D02*
G01*
X77470959Y-97051409D01*
X76691537Y-97501409D01*
X76341537Y-96895191D01*
X77120959Y-96445191D01*
G37*
G36*
X75215703Y-97545191D02*
G01*
X75565703Y-98151409D01*
X74786281Y-98601409D01*
X74436281Y-97995191D01*
X75215703Y-97545191D01*
G37*
D13*
X94686120Y-75366700D03*
X94686120Y-77566700D03*
D12*
X62090120Y-88709500D03*
X64290120Y-88709500D03*
X73901120Y-88709500D03*
X76101120Y-88709500D03*
D11*
G36*
X50075257Y-105351676D02*
G01*
X49385892Y-105473229D01*
X49229609Y-104586902D01*
X49918974Y-104465349D01*
X50075257Y-105351676D01*
G37*
G36*
X49693231Y-103185098D02*
G01*
X49003866Y-103306651D01*
X48847583Y-102420324D01*
X49536948Y-102298771D01*
X49693231Y-103185098D01*
G37*
G36*
X73393396Y-98814463D02*
G01*
X73514949Y-99503828D01*
X72628622Y-99660111D01*
X72507069Y-98970746D01*
X73393396Y-98814463D01*
G37*
G36*
X71226818Y-99196489D02*
G01*
X71348371Y-99885854D01*
X70462044Y-100042137D01*
X70340491Y-99352772D01*
X71226818Y-99196489D01*
G37*
G36*
X74678807Y-107982536D02*
G01*
X74228855Y-107446305D01*
X74918295Y-106867796D01*
X75368247Y-107404027D01*
X74678807Y-107982536D01*
G37*
G36*
X76364105Y-106568404D02*
G01*
X75914153Y-106032173D01*
X76603593Y-105453664D01*
X77053545Y-105989895D01*
X76364105Y-106568404D01*
G37*
G36*
X45878029Y-67443039D02*
G01*
X45271811Y-67093039D01*
X45721811Y-66313617D01*
X46328029Y-66663617D01*
X45878029Y-67443039D01*
G37*
G36*
X46978029Y-65537783D02*
G01*
X46371811Y-65187783D01*
X46821811Y-64408361D01*
X47428029Y-64758361D01*
X46978029Y-65537783D01*
G37*
G36*
X48046086Y-97599061D02*
G01*
X47411670Y-97894894D01*
X47031314Y-97079217D01*
X47665730Y-96783384D01*
X48046086Y-97599061D01*
G37*
G36*
X47116326Y-95605183D02*
G01*
X46481910Y-95901016D01*
X46101554Y-95085339D01*
X46735970Y-94789506D01*
X47116326Y-95605183D01*
G37*
G36*
X69044549Y-99187672D02*
G01*
X68922996Y-99877037D01*
X68036669Y-99720754D01*
X68158222Y-99031389D01*
X69044549Y-99187672D01*
G37*
G36*
X66877971Y-98805646D02*
G01*
X66756418Y-99495011D01*
X65870091Y-99338728D01*
X65991644Y-98649363D01*
X66877971Y-98805646D01*
G37*
G36*
X64071771Y-107657228D02*
G01*
X64193324Y-106967863D01*
X65079651Y-107124146D01*
X64958098Y-107813511D01*
X64071771Y-107657228D01*
G37*
G36*
X66238349Y-108039254D02*
G01*
X66359902Y-107349889D01*
X67246229Y-107506172D01*
X67124676Y-108195537D01*
X66238349Y-108039254D01*
G37*
G36*
X91754411Y-92246761D02*
G01*
X92360629Y-92596761D01*
X91910629Y-93376183D01*
X91304411Y-93026183D01*
X91754411Y-92246761D01*
G37*
G36*
X90654411Y-94152017D02*
G01*
X91260629Y-94502017D01*
X90810629Y-95281439D01*
X90204411Y-94931439D01*
X90654411Y-94152017D01*
G37*
D13*
X43619420Y-79382800D03*
X43619420Y-77182800D03*
D12*
X76672620Y-83972400D03*
X74472620Y-83972400D03*
D11*
G36*
X68089948Y-73484898D02*
G01*
X68584922Y-73979872D01*
X67948526Y-74616268D01*
X67453552Y-74121294D01*
X68089948Y-73484898D01*
G37*
G36*
X66534314Y-75040532D02*
G01*
X67029288Y-75535506D01*
X66392892Y-76171902D01*
X65897918Y-75676928D01*
X66534314Y-75040532D01*
G37*
G36*
X64415359Y-98680991D02*
G01*
X64065359Y-99287209D01*
X63285937Y-98837209D01*
X63635937Y-98230991D01*
X64415359Y-98680991D01*
G37*
G36*
X62510103Y-97580991D02*
G01*
X62160103Y-98187209D01*
X61380681Y-97737209D01*
X61730681Y-97130991D01*
X62510103Y-97580991D01*
G37*
G36*
X89213092Y-99619071D02*
G01*
X89902457Y-99740624D01*
X89746174Y-100626951D01*
X89056809Y-100505398D01*
X89213092Y-99619071D01*
G37*
G36*
X88831066Y-101785649D02*
G01*
X89520431Y-101907202D01*
X89364148Y-102793529D01*
X88674783Y-102671976D01*
X88831066Y-101785649D01*
G37*
G36*
X46712656Y-90002093D02*
G01*
X46176425Y-90452045D01*
X45597916Y-89762605D01*
X46134147Y-89312653D01*
X46712656Y-90002093D01*
G37*
G36*
X45298524Y-88316795D02*
G01*
X44762293Y-88766747D01*
X44183784Y-88077307D01*
X44720015Y-87627355D01*
X45298524Y-88316795D01*
G37*
G36*
X44524963Y-132472108D02*
G01*
X43165502Y-131838181D01*
X43461335Y-131203766D01*
X44820796Y-131837693D01*
X44524963Y-132472108D01*
G37*
G36*
X45792818Y-129753184D02*
G01*
X44433357Y-129119257D01*
X44729190Y-128484842D01*
X46088651Y-129118769D01*
X45792818Y-129753184D01*
G37*
G36*
X46426745Y-128393723D02*
G01*
X45067284Y-127759796D01*
X45363117Y-127125381D01*
X46722578Y-127759308D01*
X46426745Y-128393723D01*
G37*
G36*
X40960657Y-132520280D02*
G01*
X40235611Y-132182186D01*
X40658229Y-131275878D01*
X41383275Y-131613972D01*
X40960657Y-132520280D01*
G37*
G36*
X44045771Y-125904233D02*
G01*
X43320725Y-125566139D01*
X43743343Y-124659831D01*
X44468389Y-124997925D01*
X44045771Y-125904233D01*
G37*
G36*
X46048711Y-126838220D02*
G01*
X45323665Y-126500126D01*
X45746283Y-125593818D01*
X46471329Y-125931912D01*
X46048711Y-126838220D01*
G37*
G36*
X42963597Y-133454267D02*
G01*
X42238551Y-133116173D01*
X42661169Y-132209865D01*
X43386215Y-132547959D01*
X42963597Y-133454267D01*
G37*
D10*
X81481420Y-116710500D03*
X81481420Y-114810500D03*
X83481420Y-115760500D03*
D14*
X78328520Y-116789200D03*
X79828520Y-116789200D03*
X91739020Y-135115300D03*
X93239020Y-135115300D03*
D15*
X79852520Y-152415200D03*
X79852520Y-153365200D03*
X79852520Y-154315200D03*
X77652520Y-154315200D03*
X77652520Y-152415200D03*
D11*
G36*
X70119025Y-137916124D02*
G01*
X70143293Y-137919724D01*
X70167092Y-137925685D01*
X70190191Y-137933950D01*
X70212370Y-137944440D01*
X70233413Y-137957052D01*
X70253119Y-137971667D01*
X70271297Y-137988143D01*
X70287773Y-138006321D01*
X70302388Y-138026027D01*
X70315000Y-138047070D01*
X70325490Y-138069249D01*
X70333755Y-138092348D01*
X70339716Y-138116147D01*
X70343316Y-138140415D01*
X70344520Y-138164919D01*
X70344520Y-138714921D01*
X70343316Y-138739425D01*
X70339716Y-138763693D01*
X70333755Y-138787492D01*
X70325490Y-138810591D01*
X70315000Y-138832770D01*
X70302388Y-138853813D01*
X70287773Y-138873519D01*
X70271297Y-138891697D01*
X70253119Y-138908173D01*
X70233413Y-138922788D01*
X70212370Y-138935400D01*
X70190191Y-138945890D01*
X70167092Y-138954155D01*
X70143293Y-138960116D01*
X70119025Y-138963716D01*
X70094521Y-138964920D01*
X69544519Y-138964920D01*
X69520015Y-138963716D01*
X69495747Y-138960116D01*
X69471948Y-138954155D01*
X69448849Y-138945890D01*
X69426670Y-138935400D01*
X69405627Y-138922788D01*
X69385921Y-138908173D01*
X69367743Y-138891697D01*
X69351267Y-138873519D01*
X69336652Y-138853813D01*
X69324040Y-138832770D01*
X69313550Y-138810591D01*
X69305285Y-138787492D01*
X69299324Y-138763693D01*
X69295724Y-138739425D01*
X69294520Y-138714921D01*
X69294520Y-138164919D01*
X69295724Y-138140415D01*
X69299324Y-138116147D01*
X69305285Y-138092348D01*
X69313550Y-138069249D01*
X69324040Y-138047070D01*
X69336652Y-138026027D01*
X69351267Y-138006321D01*
X69367743Y-137988143D01*
X69385921Y-137971667D01*
X69405627Y-137957052D01*
X69426670Y-137944440D01*
X69448849Y-137933950D01*
X69471948Y-137925685D01*
X69495747Y-137919724D01*
X69520015Y-137916124D01*
X69544519Y-137914920D01*
X70094521Y-137914920D01*
X70119025Y-137916124D01*
G37*
G36*
X68819025Y-137916124D02*
G01*
X68843293Y-137919724D01*
X68867092Y-137925685D01*
X68890191Y-137933950D01*
X68912370Y-137944440D01*
X68933413Y-137957052D01*
X68953119Y-137971667D01*
X68971297Y-137988143D01*
X68987773Y-138006321D01*
X69002388Y-138026027D01*
X69015000Y-138047070D01*
X69025490Y-138069249D01*
X69033755Y-138092348D01*
X69039716Y-138116147D01*
X69043316Y-138140415D01*
X69044520Y-138164919D01*
X69044520Y-138714921D01*
X69043316Y-138739425D01*
X69039716Y-138763693D01*
X69033755Y-138787492D01*
X69025490Y-138810591D01*
X69015000Y-138832770D01*
X69002388Y-138853813D01*
X68987773Y-138873519D01*
X68971297Y-138891697D01*
X68953119Y-138908173D01*
X68933413Y-138922788D01*
X68912370Y-138935400D01*
X68890191Y-138945890D01*
X68867092Y-138954155D01*
X68843293Y-138960116D01*
X68819025Y-138963716D01*
X68794521Y-138964920D01*
X68244519Y-138964920D01*
X68220015Y-138963716D01*
X68195747Y-138960116D01*
X68171948Y-138954155D01*
X68148849Y-138945890D01*
X68126670Y-138935400D01*
X68105627Y-138922788D01*
X68085921Y-138908173D01*
X68067743Y-138891697D01*
X68051267Y-138873519D01*
X68036652Y-138853813D01*
X68024040Y-138832770D01*
X68013550Y-138810591D01*
X68005285Y-138787492D01*
X67999324Y-138763693D01*
X67995724Y-138739425D01*
X67994520Y-138714921D01*
X67994520Y-138164919D01*
X67995724Y-138140415D01*
X67999324Y-138116147D01*
X68005285Y-138092348D01*
X68013550Y-138069249D01*
X68024040Y-138047070D01*
X68036652Y-138026027D01*
X68051267Y-138006321D01*
X68067743Y-137988143D01*
X68085921Y-137971667D01*
X68105627Y-137957052D01*
X68126670Y-137944440D01*
X68148849Y-137933950D01*
X68171948Y-137925685D01*
X68195747Y-137919724D01*
X68220015Y-137916124D01*
X68244519Y-137914920D01*
X68794521Y-137914920D01*
X68819025Y-137916124D01*
G37*
G36*
X70119025Y-136616124D02*
G01*
X70143293Y-136619724D01*
X70167092Y-136625685D01*
X70190191Y-136633950D01*
X70212370Y-136644440D01*
X70233413Y-136657052D01*
X70253119Y-136671667D01*
X70271297Y-136688143D01*
X70287773Y-136706321D01*
X70302388Y-136726027D01*
X70315000Y-136747070D01*
X70325490Y-136769249D01*
X70333755Y-136792348D01*
X70339716Y-136816147D01*
X70343316Y-136840415D01*
X70344520Y-136864919D01*
X70344520Y-137414921D01*
X70343316Y-137439425D01*
X70339716Y-137463693D01*
X70333755Y-137487492D01*
X70325490Y-137510591D01*
X70315000Y-137532770D01*
X70302388Y-137553813D01*
X70287773Y-137573519D01*
X70271297Y-137591697D01*
X70253119Y-137608173D01*
X70233413Y-137622788D01*
X70212370Y-137635400D01*
X70190191Y-137645890D01*
X70167092Y-137654155D01*
X70143293Y-137660116D01*
X70119025Y-137663716D01*
X70094521Y-137664920D01*
X69544519Y-137664920D01*
X69520015Y-137663716D01*
X69495747Y-137660116D01*
X69471948Y-137654155D01*
X69448849Y-137645890D01*
X69426670Y-137635400D01*
X69405627Y-137622788D01*
X69385921Y-137608173D01*
X69367743Y-137591697D01*
X69351267Y-137573519D01*
X69336652Y-137553813D01*
X69324040Y-137532770D01*
X69313550Y-137510591D01*
X69305285Y-137487492D01*
X69299324Y-137463693D01*
X69295724Y-137439425D01*
X69294520Y-137414921D01*
X69294520Y-136864919D01*
X69295724Y-136840415D01*
X69299324Y-136816147D01*
X69305285Y-136792348D01*
X69313550Y-136769249D01*
X69324040Y-136747070D01*
X69336652Y-136726027D01*
X69351267Y-136706321D01*
X69367743Y-136688143D01*
X69385921Y-136671667D01*
X69405627Y-136657052D01*
X69426670Y-136644440D01*
X69448849Y-136633950D01*
X69471948Y-136625685D01*
X69495747Y-136619724D01*
X69520015Y-136616124D01*
X69544519Y-136614920D01*
X70094521Y-136614920D01*
X70119025Y-136616124D01*
G37*
G36*
X68819025Y-136616124D02*
G01*
X68843293Y-136619724D01*
X68867092Y-136625685D01*
X68890191Y-136633950D01*
X68912370Y-136644440D01*
X68933413Y-136657052D01*
X68953119Y-136671667D01*
X68971297Y-136688143D01*
X68987773Y-136706321D01*
X69002388Y-136726027D01*
X69015000Y-136747070D01*
X69025490Y-136769249D01*
X69033755Y-136792348D01*
X69039716Y-136816147D01*
X69043316Y-136840415D01*
X69044520Y-136864919D01*
X69044520Y-137414921D01*
X69043316Y-137439425D01*
X69039716Y-137463693D01*
X69033755Y-137487492D01*
X69025490Y-137510591D01*
X69015000Y-137532770D01*
X69002388Y-137553813D01*
X68987773Y-137573519D01*
X68971297Y-137591697D01*
X68953119Y-137608173D01*
X68933413Y-137622788D01*
X68912370Y-137635400D01*
X68890191Y-137645890D01*
X68867092Y-137654155D01*
X68843293Y-137660116D01*
X68819025Y-137663716D01*
X68794521Y-137664920D01*
X68244519Y-137664920D01*
X68220015Y-137663716D01*
X68195747Y-137660116D01*
X68171948Y-137654155D01*
X68148849Y-137645890D01*
X68126670Y-137635400D01*
X68105627Y-137622788D01*
X68085921Y-137608173D01*
X68067743Y-137591697D01*
X68051267Y-137573519D01*
X68036652Y-137553813D01*
X68024040Y-137532770D01*
X68013550Y-137510591D01*
X68005285Y-137487492D01*
X67999324Y-137463693D01*
X67995724Y-137439425D01*
X67994520Y-137414921D01*
X67994520Y-136864919D01*
X67995724Y-136840415D01*
X67999324Y-136816147D01*
X68005285Y-136792348D01*
X68013550Y-136769249D01*
X68024040Y-136747070D01*
X68036652Y-136726027D01*
X68051267Y-136706321D01*
X68067743Y-136688143D01*
X68085921Y-136671667D01*
X68105627Y-136657052D01*
X68126670Y-136644440D01*
X68148849Y-136633950D01*
X68171948Y-136625685D01*
X68195747Y-136619724D01*
X68220015Y-136616124D01*
X68244519Y-136614920D01*
X68794521Y-136614920D01*
X68819025Y-136616124D01*
G37*
G36*
X70488146Y-139315221D02*
G01*
X70494213Y-139316121D01*
X70500163Y-139317611D01*
X70505938Y-139319678D01*
X70511482Y-139322300D01*
X70516743Y-139325453D01*
X70521670Y-139329107D01*
X70526214Y-139333226D01*
X70530333Y-139337770D01*
X70533987Y-139342697D01*
X70537140Y-139347958D01*
X70539762Y-139353502D01*
X70541829Y-139359277D01*
X70543319Y-139365227D01*
X70544219Y-139371294D01*
X70544520Y-139377420D01*
X70544520Y-140077420D01*
X70544219Y-140083546D01*
X70543319Y-140089613D01*
X70541829Y-140095563D01*
X70539762Y-140101338D01*
X70537140Y-140106882D01*
X70533987Y-140112143D01*
X70530333Y-140117070D01*
X70526214Y-140121614D01*
X70521670Y-140125733D01*
X70516743Y-140129387D01*
X70511482Y-140132540D01*
X70505938Y-140135162D01*
X70500163Y-140137229D01*
X70494213Y-140138719D01*
X70488146Y-140139619D01*
X70482020Y-140139920D01*
X70357020Y-140139920D01*
X70350894Y-140139619D01*
X70344827Y-140138719D01*
X70338877Y-140137229D01*
X70333102Y-140135162D01*
X70327558Y-140132540D01*
X70322297Y-140129387D01*
X70317370Y-140125733D01*
X70312826Y-140121614D01*
X70308707Y-140117070D01*
X70305053Y-140112143D01*
X70301900Y-140106882D01*
X70299278Y-140101338D01*
X70297211Y-140095563D01*
X70295721Y-140089613D01*
X70294821Y-140083546D01*
X70294520Y-140077420D01*
X70294520Y-139377420D01*
X70294821Y-139371294D01*
X70295721Y-139365227D01*
X70297211Y-139359277D01*
X70299278Y-139353502D01*
X70301900Y-139347958D01*
X70305053Y-139342697D01*
X70308707Y-139337770D01*
X70312826Y-139333226D01*
X70317370Y-139329107D01*
X70322297Y-139325453D01*
X70327558Y-139322300D01*
X70333102Y-139319678D01*
X70338877Y-139317611D01*
X70344827Y-139316121D01*
X70350894Y-139315221D01*
X70357020Y-139314920D01*
X70482020Y-139314920D01*
X70488146Y-139315221D01*
G37*
G36*
X69988146Y-139315221D02*
G01*
X69994213Y-139316121D01*
X70000163Y-139317611D01*
X70005938Y-139319678D01*
X70011482Y-139322300D01*
X70016743Y-139325453D01*
X70021670Y-139329107D01*
X70026214Y-139333226D01*
X70030333Y-139337770D01*
X70033987Y-139342697D01*
X70037140Y-139347958D01*
X70039762Y-139353502D01*
X70041829Y-139359277D01*
X70043319Y-139365227D01*
X70044219Y-139371294D01*
X70044520Y-139377420D01*
X70044520Y-140077420D01*
X70044219Y-140083546D01*
X70043319Y-140089613D01*
X70041829Y-140095563D01*
X70039762Y-140101338D01*
X70037140Y-140106882D01*
X70033987Y-140112143D01*
X70030333Y-140117070D01*
X70026214Y-140121614D01*
X70021670Y-140125733D01*
X70016743Y-140129387D01*
X70011482Y-140132540D01*
X70005938Y-140135162D01*
X70000163Y-140137229D01*
X69994213Y-140138719D01*
X69988146Y-140139619D01*
X69982020Y-140139920D01*
X69857020Y-140139920D01*
X69850894Y-140139619D01*
X69844827Y-140138719D01*
X69838877Y-140137229D01*
X69833102Y-140135162D01*
X69827558Y-140132540D01*
X69822297Y-140129387D01*
X69817370Y-140125733D01*
X69812826Y-140121614D01*
X69808707Y-140117070D01*
X69805053Y-140112143D01*
X69801900Y-140106882D01*
X69799278Y-140101338D01*
X69797211Y-140095563D01*
X69795721Y-140089613D01*
X69794821Y-140083546D01*
X69794520Y-140077420D01*
X69794520Y-139377420D01*
X69794821Y-139371294D01*
X69795721Y-139365227D01*
X69797211Y-139359277D01*
X69799278Y-139353502D01*
X69801900Y-139347958D01*
X69805053Y-139342697D01*
X69808707Y-139337770D01*
X69812826Y-139333226D01*
X69817370Y-139329107D01*
X69822297Y-139325453D01*
X69827558Y-139322300D01*
X69833102Y-139319678D01*
X69838877Y-139317611D01*
X69844827Y-139316121D01*
X69850894Y-139315221D01*
X69857020Y-139314920D01*
X69982020Y-139314920D01*
X69988146Y-139315221D01*
G37*
G36*
X69488146Y-139315221D02*
G01*
X69494213Y-139316121D01*
X69500163Y-139317611D01*
X69505938Y-139319678D01*
X69511482Y-139322300D01*
X69516743Y-139325453D01*
X69521670Y-139329107D01*
X69526214Y-139333226D01*
X69530333Y-139337770D01*
X69533987Y-139342697D01*
X69537140Y-139347958D01*
X69539762Y-139353502D01*
X69541829Y-139359277D01*
X69543319Y-139365227D01*
X69544219Y-139371294D01*
X69544520Y-139377420D01*
X69544520Y-140077420D01*
X69544219Y-140083546D01*
X69543319Y-140089613D01*
X69541829Y-140095563D01*
X69539762Y-140101338D01*
X69537140Y-140106882D01*
X69533987Y-140112143D01*
X69530333Y-140117070D01*
X69526214Y-140121614D01*
X69521670Y-140125733D01*
X69516743Y-140129387D01*
X69511482Y-140132540D01*
X69505938Y-140135162D01*
X69500163Y-140137229D01*
X69494213Y-140138719D01*
X69488146Y-140139619D01*
X69482020Y-140139920D01*
X69357020Y-140139920D01*
X69350894Y-140139619D01*
X69344827Y-140138719D01*
X69338877Y-140137229D01*
X69333102Y-140135162D01*
X69327558Y-140132540D01*
X69322297Y-140129387D01*
X69317370Y-140125733D01*
X69312826Y-140121614D01*
X69308707Y-140117070D01*
X69305053Y-140112143D01*
X69301900Y-140106882D01*
X69299278Y-140101338D01*
X69297211Y-140095563D01*
X69295721Y-140089613D01*
X69294821Y-140083546D01*
X69294520Y-140077420D01*
X69294520Y-139377420D01*
X69294821Y-139371294D01*
X69295721Y-139365227D01*
X69297211Y-139359277D01*
X69299278Y-139353502D01*
X69301900Y-139347958D01*
X69305053Y-139342697D01*
X69308707Y-139337770D01*
X69312826Y-139333226D01*
X69317370Y-139329107D01*
X69322297Y-139325453D01*
X69327558Y-139322300D01*
X69333102Y-139319678D01*
X69338877Y-139317611D01*
X69344827Y-139316121D01*
X69350894Y-139315221D01*
X69357020Y-139314920D01*
X69482020Y-139314920D01*
X69488146Y-139315221D01*
G37*
G36*
X68988146Y-139315221D02*
G01*
X68994213Y-139316121D01*
X69000163Y-139317611D01*
X69005938Y-139319678D01*
X69011482Y-139322300D01*
X69016743Y-139325453D01*
X69021670Y-139329107D01*
X69026214Y-139333226D01*
X69030333Y-139337770D01*
X69033987Y-139342697D01*
X69037140Y-139347958D01*
X69039762Y-139353502D01*
X69041829Y-139359277D01*
X69043319Y-139365227D01*
X69044219Y-139371294D01*
X69044520Y-139377420D01*
X69044520Y-140077420D01*
X69044219Y-140083546D01*
X69043319Y-140089613D01*
X69041829Y-140095563D01*
X69039762Y-140101338D01*
X69037140Y-140106882D01*
X69033987Y-140112143D01*
X69030333Y-140117070D01*
X69026214Y-140121614D01*
X69021670Y-140125733D01*
X69016743Y-140129387D01*
X69011482Y-140132540D01*
X69005938Y-140135162D01*
X69000163Y-140137229D01*
X68994213Y-140138719D01*
X68988146Y-140139619D01*
X68982020Y-140139920D01*
X68857020Y-140139920D01*
X68850894Y-140139619D01*
X68844827Y-140138719D01*
X68838877Y-140137229D01*
X68833102Y-140135162D01*
X68827558Y-140132540D01*
X68822297Y-140129387D01*
X68817370Y-140125733D01*
X68812826Y-140121614D01*
X68808707Y-140117070D01*
X68805053Y-140112143D01*
X68801900Y-140106882D01*
X68799278Y-140101338D01*
X68797211Y-140095563D01*
X68795721Y-140089613D01*
X68794821Y-140083546D01*
X68794520Y-140077420D01*
X68794520Y-139377420D01*
X68794821Y-139371294D01*
X68795721Y-139365227D01*
X68797211Y-139359277D01*
X68799278Y-139353502D01*
X68801900Y-139347958D01*
X68805053Y-139342697D01*
X68808707Y-139337770D01*
X68812826Y-139333226D01*
X68817370Y-139329107D01*
X68822297Y-139325453D01*
X68827558Y-139322300D01*
X68833102Y-139319678D01*
X68838877Y-139317611D01*
X68844827Y-139316121D01*
X68850894Y-139315221D01*
X68857020Y-139314920D01*
X68982020Y-139314920D01*
X68988146Y-139315221D01*
G37*
G36*
X68488146Y-139315221D02*
G01*
X68494213Y-139316121D01*
X68500163Y-139317611D01*
X68505938Y-139319678D01*
X68511482Y-139322300D01*
X68516743Y-139325453D01*
X68521670Y-139329107D01*
X68526214Y-139333226D01*
X68530333Y-139337770D01*
X68533987Y-139342697D01*
X68537140Y-139347958D01*
X68539762Y-139353502D01*
X68541829Y-139359277D01*
X68543319Y-139365227D01*
X68544219Y-139371294D01*
X68544520Y-139377420D01*
X68544520Y-140077420D01*
X68544219Y-140083546D01*
X68543319Y-140089613D01*
X68541829Y-140095563D01*
X68539762Y-140101338D01*
X68537140Y-140106882D01*
X68533987Y-140112143D01*
X68530333Y-140117070D01*
X68526214Y-140121614D01*
X68521670Y-140125733D01*
X68516743Y-140129387D01*
X68511482Y-140132540D01*
X68505938Y-140135162D01*
X68500163Y-140137229D01*
X68494213Y-140138719D01*
X68488146Y-140139619D01*
X68482020Y-140139920D01*
X68357020Y-140139920D01*
X68350894Y-140139619D01*
X68344827Y-140138719D01*
X68338877Y-140137229D01*
X68333102Y-140135162D01*
X68327558Y-140132540D01*
X68322297Y-140129387D01*
X68317370Y-140125733D01*
X68312826Y-140121614D01*
X68308707Y-140117070D01*
X68305053Y-140112143D01*
X68301900Y-140106882D01*
X68299278Y-140101338D01*
X68297211Y-140095563D01*
X68295721Y-140089613D01*
X68294821Y-140083546D01*
X68294520Y-140077420D01*
X68294520Y-139377420D01*
X68294821Y-139371294D01*
X68295721Y-139365227D01*
X68297211Y-139359277D01*
X68299278Y-139353502D01*
X68301900Y-139347958D01*
X68305053Y-139342697D01*
X68308707Y-139337770D01*
X68312826Y-139333226D01*
X68317370Y-139329107D01*
X68322297Y-139325453D01*
X68327558Y-139322300D01*
X68333102Y-139319678D01*
X68338877Y-139317611D01*
X68344827Y-139316121D01*
X68350894Y-139315221D01*
X68357020Y-139314920D01*
X68482020Y-139314920D01*
X68488146Y-139315221D01*
G37*
G36*
X67988146Y-139315221D02*
G01*
X67994213Y-139316121D01*
X68000163Y-139317611D01*
X68005938Y-139319678D01*
X68011482Y-139322300D01*
X68016743Y-139325453D01*
X68021670Y-139329107D01*
X68026214Y-139333226D01*
X68030333Y-139337770D01*
X68033987Y-139342697D01*
X68037140Y-139347958D01*
X68039762Y-139353502D01*
X68041829Y-139359277D01*
X68043319Y-139365227D01*
X68044219Y-139371294D01*
X68044520Y-139377420D01*
X68044520Y-140077420D01*
X68044219Y-140083546D01*
X68043319Y-140089613D01*
X68041829Y-140095563D01*
X68039762Y-140101338D01*
X68037140Y-140106882D01*
X68033987Y-140112143D01*
X68030333Y-140117070D01*
X68026214Y-140121614D01*
X68021670Y-140125733D01*
X68016743Y-140129387D01*
X68011482Y-140132540D01*
X68005938Y-140135162D01*
X68000163Y-140137229D01*
X67994213Y-140138719D01*
X67988146Y-140139619D01*
X67982020Y-140139920D01*
X67857020Y-140139920D01*
X67850894Y-140139619D01*
X67844827Y-140138719D01*
X67838877Y-140137229D01*
X67833102Y-140135162D01*
X67827558Y-140132540D01*
X67822297Y-140129387D01*
X67817370Y-140125733D01*
X67812826Y-140121614D01*
X67808707Y-140117070D01*
X67805053Y-140112143D01*
X67801900Y-140106882D01*
X67799278Y-140101338D01*
X67797211Y-140095563D01*
X67795721Y-140089613D01*
X67794821Y-140083546D01*
X67794520Y-140077420D01*
X67794520Y-139377420D01*
X67794821Y-139371294D01*
X67795721Y-139365227D01*
X67797211Y-139359277D01*
X67799278Y-139353502D01*
X67801900Y-139347958D01*
X67805053Y-139342697D01*
X67808707Y-139337770D01*
X67812826Y-139333226D01*
X67817370Y-139329107D01*
X67822297Y-139325453D01*
X67827558Y-139322300D01*
X67833102Y-139319678D01*
X67838877Y-139317611D01*
X67844827Y-139316121D01*
X67850894Y-139315221D01*
X67857020Y-139314920D01*
X67982020Y-139314920D01*
X67988146Y-139315221D01*
G37*
G36*
X67588146Y-138915221D02*
G01*
X67594213Y-138916121D01*
X67600163Y-138917611D01*
X67605938Y-138919678D01*
X67611482Y-138922300D01*
X67616743Y-138925453D01*
X67621670Y-138929107D01*
X67626214Y-138933226D01*
X67630333Y-138937770D01*
X67633987Y-138942697D01*
X67637140Y-138947958D01*
X67639762Y-138953502D01*
X67641829Y-138959277D01*
X67643319Y-138965227D01*
X67644219Y-138971294D01*
X67644520Y-138977420D01*
X67644520Y-139102420D01*
X67644219Y-139108546D01*
X67643319Y-139114613D01*
X67641829Y-139120563D01*
X67639762Y-139126338D01*
X67637140Y-139131882D01*
X67633987Y-139137143D01*
X67630333Y-139142070D01*
X67626214Y-139146614D01*
X67621670Y-139150733D01*
X67616743Y-139154387D01*
X67611482Y-139157540D01*
X67605938Y-139160162D01*
X67600163Y-139162229D01*
X67594213Y-139163719D01*
X67588146Y-139164619D01*
X67582020Y-139164920D01*
X66882020Y-139164920D01*
X66875894Y-139164619D01*
X66869827Y-139163719D01*
X66863877Y-139162229D01*
X66858102Y-139160162D01*
X66852558Y-139157540D01*
X66847297Y-139154387D01*
X66842370Y-139150733D01*
X66837826Y-139146614D01*
X66833707Y-139142070D01*
X66830053Y-139137143D01*
X66826900Y-139131882D01*
X66824278Y-139126338D01*
X66822211Y-139120563D01*
X66820721Y-139114613D01*
X66819821Y-139108546D01*
X66819520Y-139102420D01*
X66819520Y-138977420D01*
X66819821Y-138971294D01*
X66820721Y-138965227D01*
X66822211Y-138959277D01*
X66824278Y-138953502D01*
X66826900Y-138947958D01*
X66830053Y-138942697D01*
X66833707Y-138937770D01*
X66837826Y-138933226D01*
X66842370Y-138929107D01*
X66847297Y-138925453D01*
X66852558Y-138922300D01*
X66858102Y-138919678D01*
X66863877Y-138917611D01*
X66869827Y-138916121D01*
X66875894Y-138915221D01*
X66882020Y-138914920D01*
X67582020Y-138914920D01*
X67588146Y-138915221D01*
G37*
G36*
X67588146Y-138415221D02*
G01*
X67594213Y-138416121D01*
X67600163Y-138417611D01*
X67605938Y-138419678D01*
X67611482Y-138422300D01*
X67616743Y-138425453D01*
X67621670Y-138429107D01*
X67626214Y-138433226D01*
X67630333Y-138437770D01*
X67633987Y-138442697D01*
X67637140Y-138447958D01*
X67639762Y-138453502D01*
X67641829Y-138459277D01*
X67643319Y-138465227D01*
X67644219Y-138471294D01*
X67644520Y-138477420D01*
X67644520Y-138602420D01*
X67644219Y-138608546D01*
X67643319Y-138614613D01*
X67641829Y-138620563D01*
X67639762Y-138626338D01*
X67637140Y-138631882D01*
X67633987Y-138637143D01*
X67630333Y-138642070D01*
X67626214Y-138646614D01*
X67621670Y-138650733D01*
X67616743Y-138654387D01*
X67611482Y-138657540D01*
X67605938Y-138660162D01*
X67600163Y-138662229D01*
X67594213Y-138663719D01*
X67588146Y-138664619D01*
X67582020Y-138664920D01*
X66882020Y-138664920D01*
X66875894Y-138664619D01*
X66869827Y-138663719D01*
X66863877Y-138662229D01*
X66858102Y-138660162D01*
X66852558Y-138657540D01*
X66847297Y-138654387D01*
X66842370Y-138650733D01*
X66837826Y-138646614D01*
X66833707Y-138642070D01*
X66830053Y-138637143D01*
X66826900Y-138631882D01*
X66824278Y-138626338D01*
X66822211Y-138620563D01*
X66820721Y-138614613D01*
X66819821Y-138608546D01*
X66819520Y-138602420D01*
X66819520Y-138477420D01*
X66819821Y-138471294D01*
X66820721Y-138465227D01*
X66822211Y-138459277D01*
X66824278Y-138453502D01*
X66826900Y-138447958D01*
X66830053Y-138442697D01*
X66833707Y-138437770D01*
X66837826Y-138433226D01*
X66842370Y-138429107D01*
X66847297Y-138425453D01*
X66852558Y-138422300D01*
X66858102Y-138419678D01*
X66863877Y-138417611D01*
X66869827Y-138416121D01*
X66875894Y-138415221D01*
X66882020Y-138414920D01*
X67582020Y-138414920D01*
X67588146Y-138415221D01*
G37*
G36*
X67588146Y-137915221D02*
G01*
X67594213Y-137916121D01*
X67600163Y-137917611D01*
X67605938Y-137919678D01*
X67611482Y-137922300D01*
X67616743Y-137925453D01*
X67621670Y-137929107D01*
X67626214Y-137933226D01*
X67630333Y-137937770D01*
X67633987Y-137942697D01*
X67637140Y-137947958D01*
X67639762Y-137953502D01*
X67641829Y-137959277D01*
X67643319Y-137965227D01*
X67644219Y-137971294D01*
X67644520Y-137977420D01*
X67644520Y-138102420D01*
X67644219Y-138108546D01*
X67643319Y-138114613D01*
X67641829Y-138120563D01*
X67639762Y-138126338D01*
X67637140Y-138131882D01*
X67633987Y-138137143D01*
X67630333Y-138142070D01*
X67626214Y-138146614D01*
X67621670Y-138150733D01*
X67616743Y-138154387D01*
X67611482Y-138157540D01*
X67605938Y-138160162D01*
X67600163Y-138162229D01*
X67594213Y-138163719D01*
X67588146Y-138164619D01*
X67582020Y-138164920D01*
X66882020Y-138164920D01*
X66875894Y-138164619D01*
X66869827Y-138163719D01*
X66863877Y-138162229D01*
X66858102Y-138160162D01*
X66852558Y-138157540D01*
X66847297Y-138154387D01*
X66842370Y-138150733D01*
X66837826Y-138146614D01*
X66833707Y-138142070D01*
X66830053Y-138137143D01*
X66826900Y-138131882D01*
X66824278Y-138126338D01*
X66822211Y-138120563D01*
X66820721Y-138114613D01*
X66819821Y-138108546D01*
X66819520Y-138102420D01*
X66819520Y-137977420D01*
X66819821Y-137971294D01*
X66820721Y-137965227D01*
X66822211Y-137959277D01*
X66824278Y-137953502D01*
X66826900Y-137947958D01*
X66830053Y-137942697D01*
X66833707Y-137937770D01*
X66837826Y-137933226D01*
X66842370Y-137929107D01*
X66847297Y-137925453D01*
X66852558Y-137922300D01*
X66858102Y-137919678D01*
X66863877Y-137917611D01*
X66869827Y-137916121D01*
X66875894Y-137915221D01*
X66882020Y-137914920D01*
X67582020Y-137914920D01*
X67588146Y-137915221D01*
G37*
G36*
X67588146Y-137415221D02*
G01*
X67594213Y-137416121D01*
X67600163Y-137417611D01*
X67605938Y-137419678D01*
X67611482Y-137422300D01*
X67616743Y-137425453D01*
X67621670Y-137429107D01*
X67626214Y-137433226D01*
X67630333Y-137437770D01*
X67633987Y-137442697D01*
X67637140Y-137447958D01*
X67639762Y-137453502D01*
X67641829Y-137459277D01*
X67643319Y-137465227D01*
X67644219Y-137471294D01*
X67644520Y-137477420D01*
X67644520Y-137602420D01*
X67644219Y-137608546D01*
X67643319Y-137614613D01*
X67641829Y-137620563D01*
X67639762Y-137626338D01*
X67637140Y-137631882D01*
X67633987Y-137637143D01*
X67630333Y-137642070D01*
X67626214Y-137646614D01*
X67621670Y-137650733D01*
X67616743Y-137654387D01*
X67611482Y-137657540D01*
X67605938Y-137660162D01*
X67600163Y-137662229D01*
X67594213Y-137663719D01*
X67588146Y-137664619D01*
X67582020Y-137664920D01*
X66882020Y-137664920D01*
X66875894Y-137664619D01*
X66869827Y-137663719D01*
X66863877Y-137662229D01*
X66858102Y-137660162D01*
X66852558Y-137657540D01*
X66847297Y-137654387D01*
X66842370Y-137650733D01*
X66837826Y-137646614D01*
X66833707Y-137642070D01*
X66830053Y-137637143D01*
X66826900Y-137631882D01*
X66824278Y-137626338D01*
X66822211Y-137620563D01*
X66820721Y-137614613D01*
X66819821Y-137608546D01*
X66819520Y-137602420D01*
X66819520Y-137477420D01*
X66819821Y-137471294D01*
X66820721Y-137465227D01*
X66822211Y-137459277D01*
X66824278Y-137453502D01*
X66826900Y-137447958D01*
X66830053Y-137442697D01*
X66833707Y-137437770D01*
X66837826Y-137433226D01*
X66842370Y-137429107D01*
X66847297Y-137425453D01*
X66852558Y-137422300D01*
X66858102Y-137419678D01*
X66863877Y-137417611D01*
X66869827Y-137416121D01*
X66875894Y-137415221D01*
X66882020Y-137414920D01*
X67582020Y-137414920D01*
X67588146Y-137415221D01*
G37*
G36*
X67588146Y-136915221D02*
G01*
X67594213Y-136916121D01*
X67600163Y-136917611D01*
X67605938Y-136919678D01*
X67611482Y-136922300D01*
X67616743Y-136925453D01*
X67621670Y-136929107D01*
X67626214Y-136933226D01*
X67630333Y-136937770D01*
X67633987Y-136942697D01*
X67637140Y-136947958D01*
X67639762Y-136953502D01*
X67641829Y-136959277D01*
X67643319Y-136965227D01*
X67644219Y-136971294D01*
X67644520Y-136977420D01*
X67644520Y-137102420D01*
X67644219Y-137108546D01*
X67643319Y-137114613D01*
X67641829Y-137120563D01*
X67639762Y-137126338D01*
X67637140Y-137131882D01*
X67633987Y-137137143D01*
X67630333Y-137142070D01*
X67626214Y-137146614D01*
X67621670Y-137150733D01*
X67616743Y-137154387D01*
X67611482Y-137157540D01*
X67605938Y-137160162D01*
X67600163Y-137162229D01*
X67594213Y-137163719D01*
X67588146Y-137164619D01*
X67582020Y-137164920D01*
X66882020Y-137164920D01*
X66875894Y-137164619D01*
X66869827Y-137163719D01*
X66863877Y-137162229D01*
X66858102Y-137160162D01*
X66852558Y-137157540D01*
X66847297Y-137154387D01*
X66842370Y-137150733D01*
X66837826Y-137146614D01*
X66833707Y-137142070D01*
X66830053Y-137137143D01*
X66826900Y-137131882D01*
X66824278Y-137126338D01*
X66822211Y-137120563D01*
X66820721Y-137114613D01*
X66819821Y-137108546D01*
X66819520Y-137102420D01*
X66819520Y-136977420D01*
X66819821Y-136971294D01*
X66820721Y-136965227D01*
X66822211Y-136959277D01*
X66824278Y-136953502D01*
X66826900Y-136947958D01*
X66830053Y-136942697D01*
X66833707Y-136937770D01*
X66837826Y-136933226D01*
X66842370Y-136929107D01*
X66847297Y-136925453D01*
X66852558Y-136922300D01*
X66858102Y-136919678D01*
X66863877Y-136917611D01*
X66869827Y-136916121D01*
X66875894Y-136915221D01*
X66882020Y-136914920D01*
X67582020Y-136914920D01*
X67588146Y-136915221D01*
G37*
G36*
X67588146Y-136415221D02*
G01*
X67594213Y-136416121D01*
X67600163Y-136417611D01*
X67605938Y-136419678D01*
X67611482Y-136422300D01*
X67616743Y-136425453D01*
X67621670Y-136429107D01*
X67626214Y-136433226D01*
X67630333Y-136437770D01*
X67633987Y-136442697D01*
X67637140Y-136447958D01*
X67639762Y-136453502D01*
X67641829Y-136459277D01*
X67643319Y-136465227D01*
X67644219Y-136471294D01*
X67644520Y-136477420D01*
X67644520Y-136602420D01*
X67644219Y-136608546D01*
X67643319Y-136614613D01*
X67641829Y-136620563D01*
X67639762Y-136626338D01*
X67637140Y-136631882D01*
X67633987Y-136637143D01*
X67630333Y-136642070D01*
X67626214Y-136646614D01*
X67621670Y-136650733D01*
X67616743Y-136654387D01*
X67611482Y-136657540D01*
X67605938Y-136660162D01*
X67600163Y-136662229D01*
X67594213Y-136663719D01*
X67588146Y-136664619D01*
X67582020Y-136664920D01*
X66882020Y-136664920D01*
X66875894Y-136664619D01*
X66869827Y-136663719D01*
X66863877Y-136662229D01*
X66858102Y-136660162D01*
X66852558Y-136657540D01*
X66847297Y-136654387D01*
X66842370Y-136650733D01*
X66837826Y-136646614D01*
X66833707Y-136642070D01*
X66830053Y-136637143D01*
X66826900Y-136631882D01*
X66824278Y-136626338D01*
X66822211Y-136620563D01*
X66820721Y-136614613D01*
X66819821Y-136608546D01*
X66819520Y-136602420D01*
X66819520Y-136477420D01*
X66819821Y-136471294D01*
X66820721Y-136465227D01*
X66822211Y-136459277D01*
X66824278Y-136453502D01*
X66826900Y-136447958D01*
X66830053Y-136442697D01*
X66833707Y-136437770D01*
X66837826Y-136433226D01*
X66842370Y-136429107D01*
X66847297Y-136425453D01*
X66852558Y-136422300D01*
X66858102Y-136419678D01*
X66863877Y-136417611D01*
X66869827Y-136416121D01*
X66875894Y-136415221D01*
X66882020Y-136414920D01*
X67582020Y-136414920D01*
X67588146Y-136415221D01*
G37*
G36*
X67988146Y-135440221D02*
G01*
X67994213Y-135441121D01*
X68000163Y-135442611D01*
X68005938Y-135444678D01*
X68011482Y-135447300D01*
X68016743Y-135450453D01*
X68021670Y-135454107D01*
X68026214Y-135458226D01*
X68030333Y-135462770D01*
X68033987Y-135467697D01*
X68037140Y-135472958D01*
X68039762Y-135478502D01*
X68041829Y-135484277D01*
X68043319Y-135490227D01*
X68044219Y-135496294D01*
X68044520Y-135502420D01*
X68044520Y-136202420D01*
X68044219Y-136208546D01*
X68043319Y-136214613D01*
X68041829Y-136220563D01*
X68039762Y-136226338D01*
X68037140Y-136231882D01*
X68033987Y-136237143D01*
X68030333Y-136242070D01*
X68026214Y-136246614D01*
X68021670Y-136250733D01*
X68016743Y-136254387D01*
X68011482Y-136257540D01*
X68005938Y-136260162D01*
X68000163Y-136262229D01*
X67994213Y-136263719D01*
X67988146Y-136264619D01*
X67982020Y-136264920D01*
X67857020Y-136264920D01*
X67850894Y-136264619D01*
X67844827Y-136263719D01*
X67838877Y-136262229D01*
X67833102Y-136260162D01*
X67827558Y-136257540D01*
X67822297Y-136254387D01*
X67817370Y-136250733D01*
X67812826Y-136246614D01*
X67808707Y-136242070D01*
X67805053Y-136237143D01*
X67801900Y-136231882D01*
X67799278Y-136226338D01*
X67797211Y-136220563D01*
X67795721Y-136214613D01*
X67794821Y-136208546D01*
X67794520Y-136202420D01*
X67794520Y-135502420D01*
X67794821Y-135496294D01*
X67795721Y-135490227D01*
X67797211Y-135484277D01*
X67799278Y-135478502D01*
X67801900Y-135472958D01*
X67805053Y-135467697D01*
X67808707Y-135462770D01*
X67812826Y-135458226D01*
X67817370Y-135454107D01*
X67822297Y-135450453D01*
X67827558Y-135447300D01*
X67833102Y-135444678D01*
X67838877Y-135442611D01*
X67844827Y-135441121D01*
X67850894Y-135440221D01*
X67857020Y-135439920D01*
X67982020Y-135439920D01*
X67988146Y-135440221D01*
G37*
G36*
X68488146Y-135440221D02*
G01*
X68494213Y-135441121D01*
X68500163Y-135442611D01*
X68505938Y-135444678D01*
X68511482Y-135447300D01*
X68516743Y-135450453D01*
X68521670Y-135454107D01*
X68526214Y-135458226D01*
X68530333Y-135462770D01*
X68533987Y-135467697D01*
X68537140Y-135472958D01*
X68539762Y-135478502D01*
X68541829Y-135484277D01*
X68543319Y-135490227D01*
X68544219Y-135496294D01*
X68544520Y-135502420D01*
X68544520Y-136202420D01*
X68544219Y-136208546D01*
X68543319Y-136214613D01*
X68541829Y-136220563D01*
X68539762Y-136226338D01*
X68537140Y-136231882D01*
X68533987Y-136237143D01*
X68530333Y-136242070D01*
X68526214Y-136246614D01*
X68521670Y-136250733D01*
X68516743Y-136254387D01*
X68511482Y-136257540D01*
X68505938Y-136260162D01*
X68500163Y-136262229D01*
X68494213Y-136263719D01*
X68488146Y-136264619D01*
X68482020Y-136264920D01*
X68357020Y-136264920D01*
X68350894Y-136264619D01*
X68344827Y-136263719D01*
X68338877Y-136262229D01*
X68333102Y-136260162D01*
X68327558Y-136257540D01*
X68322297Y-136254387D01*
X68317370Y-136250733D01*
X68312826Y-136246614D01*
X68308707Y-136242070D01*
X68305053Y-136237143D01*
X68301900Y-136231882D01*
X68299278Y-136226338D01*
X68297211Y-136220563D01*
X68295721Y-136214613D01*
X68294821Y-136208546D01*
X68294520Y-136202420D01*
X68294520Y-135502420D01*
X68294821Y-135496294D01*
X68295721Y-135490227D01*
X68297211Y-135484277D01*
X68299278Y-135478502D01*
X68301900Y-135472958D01*
X68305053Y-135467697D01*
X68308707Y-135462770D01*
X68312826Y-135458226D01*
X68317370Y-135454107D01*
X68322297Y-135450453D01*
X68327558Y-135447300D01*
X68333102Y-135444678D01*
X68338877Y-135442611D01*
X68344827Y-135441121D01*
X68350894Y-135440221D01*
X68357020Y-135439920D01*
X68482020Y-135439920D01*
X68488146Y-135440221D01*
G37*
G36*
X68988146Y-135440221D02*
G01*
X68994213Y-135441121D01*
X69000163Y-135442611D01*
X69005938Y-135444678D01*
X69011482Y-135447300D01*
X69016743Y-135450453D01*
X69021670Y-135454107D01*
X69026214Y-135458226D01*
X69030333Y-135462770D01*
X69033987Y-135467697D01*
X69037140Y-135472958D01*
X69039762Y-135478502D01*
X69041829Y-135484277D01*
X69043319Y-135490227D01*
X69044219Y-135496294D01*
X69044520Y-135502420D01*
X69044520Y-136202420D01*
X69044219Y-136208546D01*
X69043319Y-136214613D01*
X69041829Y-136220563D01*
X69039762Y-136226338D01*
X69037140Y-136231882D01*
X69033987Y-136237143D01*
X69030333Y-136242070D01*
X69026214Y-136246614D01*
X69021670Y-136250733D01*
X69016743Y-136254387D01*
X69011482Y-136257540D01*
X69005938Y-136260162D01*
X69000163Y-136262229D01*
X68994213Y-136263719D01*
X68988146Y-136264619D01*
X68982020Y-136264920D01*
X68857020Y-136264920D01*
X68850894Y-136264619D01*
X68844827Y-136263719D01*
X68838877Y-136262229D01*
X68833102Y-136260162D01*
X68827558Y-136257540D01*
X68822297Y-136254387D01*
X68817370Y-136250733D01*
X68812826Y-136246614D01*
X68808707Y-136242070D01*
X68805053Y-136237143D01*
X68801900Y-136231882D01*
X68799278Y-136226338D01*
X68797211Y-136220563D01*
X68795721Y-136214613D01*
X68794821Y-136208546D01*
X68794520Y-136202420D01*
X68794520Y-135502420D01*
X68794821Y-135496294D01*
X68795721Y-135490227D01*
X68797211Y-135484277D01*
X68799278Y-135478502D01*
X68801900Y-135472958D01*
X68805053Y-135467697D01*
X68808707Y-135462770D01*
X68812826Y-135458226D01*
X68817370Y-135454107D01*
X68822297Y-135450453D01*
X68827558Y-135447300D01*
X68833102Y-135444678D01*
X68838877Y-135442611D01*
X68844827Y-135441121D01*
X68850894Y-135440221D01*
X68857020Y-135439920D01*
X68982020Y-135439920D01*
X68988146Y-135440221D01*
G37*
G36*
X69488146Y-135440221D02*
G01*
X69494213Y-135441121D01*
X69500163Y-135442611D01*
X69505938Y-135444678D01*
X69511482Y-135447300D01*
X69516743Y-135450453D01*
X69521670Y-135454107D01*
X69526214Y-135458226D01*
X69530333Y-135462770D01*
X69533987Y-135467697D01*
X69537140Y-135472958D01*
X69539762Y-135478502D01*
X69541829Y-135484277D01*
X69543319Y-135490227D01*
X69544219Y-135496294D01*
X69544520Y-135502420D01*
X69544520Y-136202420D01*
X69544219Y-136208546D01*
X69543319Y-136214613D01*
X69541829Y-136220563D01*
X69539762Y-136226338D01*
X69537140Y-136231882D01*
X69533987Y-136237143D01*
X69530333Y-136242070D01*
X69526214Y-136246614D01*
X69521670Y-136250733D01*
X69516743Y-136254387D01*
X69511482Y-136257540D01*
X69505938Y-136260162D01*
X69500163Y-136262229D01*
X69494213Y-136263719D01*
X69488146Y-136264619D01*
X69482020Y-136264920D01*
X69357020Y-136264920D01*
X69350894Y-136264619D01*
X69344827Y-136263719D01*
X69338877Y-136262229D01*
X69333102Y-136260162D01*
X69327558Y-136257540D01*
X69322297Y-136254387D01*
X69317370Y-136250733D01*
X69312826Y-136246614D01*
X69308707Y-136242070D01*
X69305053Y-136237143D01*
X69301900Y-136231882D01*
X69299278Y-136226338D01*
X69297211Y-136220563D01*
X69295721Y-136214613D01*
X69294821Y-136208546D01*
X69294520Y-136202420D01*
X69294520Y-135502420D01*
X69294821Y-135496294D01*
X69295721Y-135490227D01*
X69297211Y-135484277D01*
X69299278Y-135478502D01*
X69301900Y-135472958D01*
X69305053Y-135467697D01*
X69308707Y-135462770D01*
X69312826Y-135458226D01*
X69317370Y-135454107D01*
X69322297Y-135450453D01*
X69327558Y-135447300D01*
X69333102Y-135444678D01*
X69338877Y-135442611D01*
X69344827Y-135441121D01*
X69350894Y-135440221D01*
X69357020Y-135439920D01*
X69482020Y-135439920D01*
X69488146Y-135440221D01*
G37*
G36*
X69988146Y-135440221D02*
G01*
X69994213Y-135441121D01*
X70000163Y-135442611D01*
X70005938Y-135444678D01*
X70011482Y-135447300D01*
X70016743Y-135450453D01*
X70021670Y-135454107D01*
X70026214Y-135458226D01*
X70030333Y-135462770D01*
X70033987Y-135467697D01*
X70037140Y-135472958D01*
X70039762Y-135478502D01*
X70041829Y-135484277D01*
X70043319Y-135490227D01*
X70044219Y-135496294D01*
X70044520Y-135502420D01*
X70044520Y-136202420D01*
X70044219Y-136208546D01*
X70043319Y-136214613D01*
X70041829Y-136220563D01*
X70039762Y-136226338D01*
X70037140Y-136231882D01*
X70033987Y-136237143D01*
X70030333Y-136242070D01*
X70026214Y-136246614D01*
X70021670Y-136250733D01*
X70016743Y-136254387D01*
X70011482Y-136257540D01*
X70005938Y-136260162D01*
X70000163Y-136262229D01*
X69994213Y-136263719D01*
X69988146Y-136264619D01*
X69982020Y-136264920D01*
X69857020Y-136264920D01*
X69850894Y-136264619D01*
X69844827Y-136263719D01*
X69838877Y-136262229D01*
X69833102Y-136260162D01*
X69827558Y-136257540D01*
X69822297Y-136254387D01*
X69817370Y-136250733D01*
X69812826Y-136246614D01*
X69808707Y-136242070D01*
X69805053Y-136237143D01*
X69801900Y-136231882D01*
X69799278Y-136226338D01*
X69797211Y-136220563D01*
X69795721Y-136214613D01*
X69794821Y-136208546D01*
X69794520Y-136202420D01*
X69794520Y-135502420D01*
X69794821Y-135496294D01*
X69795721Y-135490227D01*
X69797211Y-135484277D01*
X69799278Y-135478502D01*
X69801900Y-135472958D01*
X69805053Y-135467697D01*
X69808707Y-135462770D01*
X69812826Y-135458226D01*
X69817370Y-135454107D01*
X69822297Y-135450453D01*
X69827558Y-135447300D01*
X69833102Y-135444678D01*
X69838877Y-135442611D01*
X69844827Y-135441121D01*
X69850894Y-135440221D01*
X69857020Y-135439920D01*
X69982020Y-135439920D01*
X69988146Y-135440221D01*
G37*
G36*
X70488146Y-135440221D02*
G01*
X70494213Y-135441121D01*
X70500163Y-135442611D01*
X70505938Y-135444678D01*
X70511482Y-135447300D01*
X70516743Y-135450453D01*
X70521670Y-135454107D01*
X70526214Y-135458226D01*
X70530333Y-135462770D01*
X70533987Y-135467697D01*
X70537140Y-135472958D01*
X70539762Y-135478502D01*
X70541829Y-135484277D01*
X70543319Y-135490227D01*
X70544219Y-135496294D01*
X70544520Y-135502420D01*
X70544520Y-136202420D01*
X70544219Y-136208546D01*
X70543319Y-136214613D01*
X70541829Y-136220563D01*
X70539762Y-136226338D01*
X70537140Y-136231882D01*
X70533987Y-136237143D01*
X70530333Y-136242070D01*
X70526214Y-136246614D01*
X70521670Y-136250733D01*
X70516743Y-136254387D01*
X70511482Y-136257540D01*
X70505938Y-136260162D01*
X70500163Y-136262229D01*
X70494213Y-136263719D01*
X70488146Y-136264619D01*
X70482020Y-136264920D01*
X70357020Y-136264920D01*
X70350894Y-136264619D01*
X70344827Y-136263719D01*
X70338877Y-136262229D01*
X70333102Y-136260162D01*
X70327558Y-136257540D01*
X70322297Y-136254387D01*
X70317370Y-136250733D01*
X70312826Y-136246614D01*
X70308707Y-136242070D01*
X70305053Y-136237143D01*
X70301900Y-136231882D01*
X70299278Y-136226338D01*
X70297211Y-136220563D01*
X70295721Y-136214613D01*
X70294821Y-136208546D01*
X70294520Y-136202420D01*
X70294520Y-135502420D01*
X70294821Y-135496294D01*
X70295721Y-135490227D01*
X70297211Y-135484277D01*
X70299278Y-135478502D01*
X70301900Y-135472958D01*
X70305053Y-135467697D01*
X70308707Y-135462770D01*
X70312826Y-135458226D01*
X70317370Y-135454107D01*
X70322297Y-135450453D01*
X70327558Y-135447300D01*
X70333102Y-135444678D01*
X70338877Y-135442611D01*
X70344827Y-135441121D01*
X70350894Y-135440221D01*
X70357020Y-135439920D01*
X70482020Y-135439920D01*
X70488146Y-135440221D01*
G37*
G36*
X71463146Y-136415221D02*
G01*
X71469213Y-136416121D01*
X71475163Y-136417611D01*
X71480938Y-136419678D01*
X71486482Y-136422300D01*
X71491743Y-136425453D01*
X71496670Y-136429107D01*
X71501214Y-136433226D01*
X71505333Y-136437770D01*
X71508987Y-136442697D01*
X71512140Y-136447958D01*
X71514762Y-136453502D01*
X71516829Y-136459277D01*
X71518319Y-136465227D01*
X71519219Y-136471294D01*
X71519520Y-136477420D01*
X71519520Y-136602420D01*
X71519219Y-136608546D01*
X71518319Y-136614613D01*
X71516829Y-136620563D01*
X71514762Y-136626338D01*
X71512140Y-136631882D01*
X71508987Y-136637143D01*
X71505333Y-136642070D01*
X71501214Y-136646614D01*
X71496670Y-136650733D01*
X71491743Y-136654387D01*
X71486482Y-136657540D01*
X71480938Y-136660162D01*
X71475163Y-136662229D01*
X71469213Y-136663719D01*
X71463146Y-136664619D01*
X71457020Y-136664920D01*
X70757020Y-136664920D01*
X70750894Y-136664619D01*
X70744827Y-136663719D01*
X70738877Y-136662229D01*
X70733102Y-136660162D01*
X70727558Y-136657540D01*
X70722297Y-136654387D01*
X70717370Y-136650733D01*
X70712826Y-136646614D01*
X70708707Y-136642070D01*
X70705053Y-136637143D01*
X70701900Y-136631882D01*
X70699278Y-136626338D01*
X70697211Y-136620563D01*
X70695721Y-136614613D01*
X70694821Y-136608546D01*
X70694520Y-136602420D01*
X70694520Y-136477420D01*
X70694821Y-136471294D01*
X70695721Y-136465227D01*
X70697211Y-136459277D01*
X70699278Y-136453502D01*
X70701900Y-136447958D01*
X70705053Y-136442697D01*
X70708707Y-136437770D01*
X70712826Y-136433226D01*
X70717370Y-136429107D01*
X70722297Y-136425453D01*
X70727558Y-136422300D01*
X70733102Y-136419678D01*
X70738877Y-136417611D01*
X70744827Y-136416121D01*
X70750894Y-136415221D01*
X70757020Y-136414920D01*
X71457020Y-136414920D01*
X71463146Y-136415221D01*
G37*
G36*
X71463146Y-136915221D02*
G01*
X71469213Y-136916121D01*
X71475163Y-136917611D01*
X71480938Y-136919678D01*
X71486482Y-136922300D01*
X71491743Y-136925453D01*
X71496670Y-136929107D01*
X71501214Y-136933226D01*
X71505333Y-136937770D01*
X71508987Y-136942697D01*
X71512140Y-136947958D01*
X71514762Y-136953502D01*
X71516829Y-136959277D01*
X71518319Y-136965227D01*
X71519219Y-136971294D01*
X71519520Y-136977420D01*
X71519520Y-137102420D01*
X71519219Y-137108546D01*
X71518319Y-137114613D01*
X71516829Y-137120563D01*
X71514762Y-137126338D01*
X71512140Y-137131882D01*
X71508987Y-137137143D01*
X71505333Y-137142070D01*
X71501214Y-137146614D01*
X71496670Y-137150733D01*
X71491743Y-137154387D01*
X71486482Y-137157540D01*
X71480938Y-137160162D01*
X71475163Y-137162229D01*
X71469213Y-137163719D01*
X71463146Y-137164619D01*
X71457020Y-137164920D01*
X70757020Y-137164920D01*
X70750894Y-137164619D01*
X70744827Y-137163719D01*
X70738877Y-137162229D01*
X70733102Y-137160162D01*
X70727558Y-137157540D01*
X70722297Y-137154387D01*
X70717370Y-137150733D01*
X70712826Y-137146614D01*
X70708707Y-137142070D01*
X70705053Y-137137143D01*
X70701900Y-137131882D01*
X70699278Y-137126338D01*
X70697211Y-137120563D01*
X70695721Y-137114613D01*
X70694821Y-137108546D01*
X70694520Y-137102420D01*
X70694520Y-136977420D01*
X70694821Y-136971294D01*
X70695721Y-136965227D01*
X70697211Y-136959277D01*
X70699278Y-136953502D01*
X70701900Y-136947958D01*
X70705053Y-136942697D01*
X70708707Y-136937770D01*
X70712826Y-136933226D01*
X70717370Y-136929107D01*
X70722297Y-136925453D01*
X70727558Y-136922300D01*
X70733102Y-136919678D01*
X70738877Y-136917611D01*
X70744827Y-136916121D01*
X70750894Y-136915221D01*
X70757020Y-136914920D01*
X71457020Y-136914920D01*
X71463146Y-136915221D01*
G37*
G36*
X71463146Y-137415221D02*
G01*
X71469213Y-137416121D01*
X71475163Y-137417611D01*
X71480938Y-137419678D01*
X71486482Y-137422300D01*
X71491743Y-137425453D01*
X71496670Y-137429107D01*
X71501214Y-137433226D01*
X71505333Y-137437770D01*
X71508987Y-137442697D01*
X71512140Y-137447958D01*
X71514762Y-137453502D01*
X71516829Y-137459277D01*
X71518319Y-137465227D01*
X71519219Y-137471294D01*
X71519520Y-137477420D01*
X71519520Y-137602420D01*
X71519219Y-137608546D01*
X71518319Y-137614613D01*
X71516829Y-137620563D01*
X71514762Y-137626338D01*
X71512140Y-137631882D01*
X71508987Y-137637143D01*
X71505333Y-137642070D01*
X71501214Y-137646614D01*
X71496670Y-137650733D01*
X71491743Y-137654387D01*
X71486482Y-137657540D01*
X71480938Y-137660162D01*
X71475163Y-137662229D01*
X71469213Y-137663719D01*
X71463146Y-137664619D01*
X71457020Y-137664920D01*
X70757020Y-137664920D01*
X70750894Y-137664619D01*
X70744827Y-137663719D01*
X70738877Y-137662229D01*
X70733102Y-137660162D01*
X70727558Y-137657540D01*
X70722297Y-137654387D01*
X70717370Y-137650733D01*
X70712826Y-137646614D01*
X70708707Y-137642070D01*
X70705053Y-137637143D01*
X70701900Y-137631882D01*
X70699278Y-137626338D01*
X70697211Y-137620563D01*
X70695721Y-137614613D01*
X70694821Y-137608546D01*
X70694520Y-137602420D01*
X70694520Y-137477420D01*
X70694821Y-137471294D01*
X70695721Y-137465227D01*
X70697211Y-137459277D01*
X70699278Y-137453502D01*
X70701900Y-137447958D01*
X70705053Y-137442697D01*
X70708707Y-137437770D01*
X70712826Y-137433226D01*
X70717370Y-137429107D01*
X70722297Y-137425453D01*
X70727558Y-137422300D01*
X70733102Y-137419678D01*
X70738877Y-137417611D01*
X70744827Y-137416121D01*
X70750894Y-137415221D01*
X70757020Y-137414920D01*
X71457020Y-137414920D01*
X71463146Y-137415221D01*
G37*
G36*
X71463146Y-137915221D02*
G01*
X71469213Y-137916121D01*
X71475163Y-137917611D01*
X71480938Y-137919678D01*
X71486482Y-137922300D01*
X71491743Y-137925453D01*
X71496670Y-137929107D01*
X71501214Y-137933226D01*
X71505333Y-137937770D01*
X71508987Y-137942697D01*
X71512140Y-137947958D01*
X71514762Y-137953502D01*
X71516829Y-137959277D01*
X71518319Y-137965227D01*
X71519219Y-137971294D01*
X71519520Y-137977420D01*
X71519520Y-138102420D01*
X71519219Y-138108546D01*
X71518319Y-138114613D01*
X71516829Y-138120563D01*
X71514762Y-138126338D01*
X71512140Y-138131882D01*
X71508987Y-138137143D01*
X71505333Y-138142070D01*
X71501214Y-138146614D01*
X71496670Y-138150733D01*
X71491743Y-138154387D01*
X71486482Y-138157540D01*
X71480938Y-138160162D01*
X71475163Y-138162229D01*
X71469213Y-138163719D01*
X71463146Y-138164619D01*
X71457020Y-138164920D01*
X70757020Y-138164920D01*
X70750894Y-138164619D01*
X70744827Y-138163719D01*
X70738877Y-138162229D01*
X70733102Y-138160162D01*
X70727558Y-138157540D01*
X70722297Y-138154387D01*
X70717370Y-138150733D01*
X70712826Y-138146614D01*
X70708707Y-138142070D01*
X70705053Y-138137143D01*
X70701900Y-138131882D01*
X70699278Y-138126338D01*
X70697211Y-138120563D01*
X70695721Y-138114613D01*
X70694821Y-138108546D01*
X70694520Y-138102420D01*
X70694520Y-137977420D01*
X70694821Y-137971294D01*
X70695721Y-137965227D01*
X70697211Y-137959277D01*
X70699278Y-137953502D01*
X70701900Y-137947958D01*
X70705053Y-137942697D01*
X70708707Y-137937770D01*
X70712826Y-137933226D01*
X70717370Y-137929107D01*
X70722297Y-137925453D01*
X70727558Y-137922300D01*
X70733102Y-137919678D01*
X70738877Y-137917611D01*
X70744827Y-137916121D01*
X70750894Y-137915221D01*
X70757020Y-137914920D01*
X71457020Y-137914920D01*
X71463146Y-137915221D01*
G37*
G36*
X71463146Y-138415221D02*
G01*
X71469213Y-138416121D01*
X71475163Y-138417611D01*
X71480938Y-138419678D01*
X71486482Y-138422300D01*
X71491743Y-138425453D01*
X71496670Y-138429107D01*
X71501214Y-138433226D01*
X71505333Y-138437770D01*
X71508987Y-138442697D01*
X71512140Y-138447958D01*
X71514762Y-138453502D01*
X71516829Y-138459277D01*
X71518319Y-138465227D01*
X71519219Y-138471294D01*
X71519520Y-138477420D01*
X71519520Y-138602420D01*
X71519219Y-138608546D01*
X71518319Y-138614613D01*
X71516829Y-138620563D01*
X71514762Y-138626338D01*
X71512140Y-138631882D01*
X71508987Y-138637143D01*
X71505333Y-138642070D01*
X71501214Y-138646614D01*
X71496670Y-138650733D01*
X71491743Y-138654387D01*
X71486482Y-138657540D01*
X71480938Y-138660162D01*
X71475163Y-138662229D01*
X71469213Y-138663719D01*
X71463146Y-138664619D01*
X71457020Y-138664920D01*
X70757020Y-138664920D01*
X70750894Y-138664619D01*
X70744827Y-138663719D01*
X70738877Y-138662229D01*
X70733102Y-138660162D01*
X70727558Y-138657540D01*
X70722297Y-138654387D01*
X70717370Y-138650733D01*
X70712826Y-138646614D01*
X70708707Y-138642070D01*
X70705053Y-138637143D01*
X70701900Y-138631882D01*
X70699278Y-138626338D01*
X70697211Y-138620563D01*
X70695721Y-138614613D01*
X70694821Y-138608546D01*
X70694520Y-138602420D01*
X70694520Y-138477420D01*
X70694821Y-138471294D01*
X70695721Y-138465227D01*
X70697211Y-138459277D01*
X70699278Y-138453502D01*
X70701900Y-138447958D01*
X70705053Y-138442697D01*
X70708707Y-138437770D01*
X70712826Y-138433226D01*
X70717370Y-138429107D01*
X70722297Y-138425453D01*
X70727558Y-138422300D01*
X70733102Y-138419678D01*
X70738877Y-138417611D01*
X70744827Y-138416121D01*
X70750894Y-138415221D01*
X70757020Y-138414920D01*
X71457020Y-138414920D01*
X71463146Y-138415221D01*
G37*
G36*
X71463146Y-138915221D02*
G01*
X71469213Y-138916121D01*
X71475163Y-138917611D01*
X71480938Y-138919678D01*
X71486482Y-138922300D01*
X71491743Y-138925453D01*
X71496670Y-138929107D01*
X71501214Y-138933226D01*
X71505333Y-138937770D01*
X71508987Y-138942697D01*
X71512140Y-138947958D01*
X71514762Y-138953502D01*
X71516829Y-138959277D01*
X71518319Y-138965227D01*
X71519219Y-138971294D01*
X71519520Y-138977420D01*
X71519520Y-139102420D01*
X71519219Y-139108546D01*
X71518319Y-139114613D01*
X71516829Y-139120563D01*
X71514762Y-139126338D01*
X71512140Y-139131882D01*
X71508987Y-139137143D01*
X71505333Y-139142070D01*
X71501214Y-139146614D01*
X71496670Y-139150733D01*
X71491743Y-139154387D01*
X71486482Y-139157540D01*
X71480938Y-139160162D01*
X71475163Y-139162229D01*
X71469213Y-139163719D01*
X71463146Y-139164619D01*
X71457020Y-139164920D01*
X70757020Y-139164920D01*
X70750894Y-139164619D01*
X70744827Y-139163719D01*
X70738877Y-139162229D01*
X70733102Y-139160162D01*
X70727558Y-139157540D01*
X70722297Y-139154387D01*
X70717370Y-139150733D01*
X70712826Y-139146614D01*
X70708707Y-139142070D01*
X70705053Y-139137143D01*
X70701900Y-139131882D01*
X70699278Y-139126338D01*
X70697211Y-139120563D01*
X70695721Y-139114613D01*
X70694821Y-139108546D01*
X70694520Y-139102420D01*
X70694520Y-138977420D01*
X70694821Y-138971294D01*
X70695721Y-138965227D01*
X70697211Y-138959277D01*
X70699278Y-138953502D01*
X70701900Y-138947958D01*
X70705053Y-138942697D01*
X70708707Y-138937770D01*
X70712826Y-138933226D01*
X70717370Y-138929107D01*
X70722297Y-138925453D01*
X70727558Y-138922300D01*
X70733102Y-138919678D01*
X70738877Y-138917611D01*
X70744827Y-138916121D01*
X70750894Y-138915221D01*
X70757020Y-138914920D01*
X71457020Y-138914920D01*
X71463146Y-138915221D01*
G37*
D14*
X52751420Y-139890500D03*
X51251420Y-139890500D03*
X61895420Y-141795500D03*
X60395420Y-141795500D03*
X96591820Y-151132540D03*
X95091820Y-151132540D03*
D16*
X60612020Y-152955400D03*
X60612020Y-155705400D03*
D17*
X49940620Y-143586200D03*
X52690620Y-143586200D03*
D18*
X60612020Y-150762400D03*
X60612020Y-149262400D03*
D19*
X47745520Y-141465300D03*
X49245520Y-141465300D03*
D20*
X40851820Y-155511500D03*
X44151820Y-155511500D03*
D21*
X89580720Y-110400400D03*
X89580720Y-111900400D03*
D14*
X54161120Y-111683800D03*
X52661120Y-111683800D03*
D21*
X86075520Y-109462000D03*
X86075520Y-107962000D03*
D14*
X54338920Y-115874800D03*
X52838920Y-115874800D03*
D21*
X61793120Y-108585700D03*
X61793120Y-107085700D03*
D22*
X90289420Y-108886500D03*
X88389420Y-108886500D03*
X89339420Y-106886500D03*
D10*
X55763920Y-111694000D03*
X55763920Y-109794000D03*
X57763920Y-110744000D03*
D22*
X86161920Y-105990900D03*
X84261920Y-105990900D03*
X85211920Y-103990900D03*
X51173420Y-115858800D03*
X49273420Y-115858800D03*
X50223420Y-113858800D03*
D23*
X72358520Y-159997140D03*
X72358520Y-156997140D03*
X72358520Y-152997140D03*
X65858520Y-151897140D03*
D11*
G36*
X57403620Y-145320200D02*
G01*
X58003620Y-146170200D01*
X55803620Y-146170200D01*
X56403620Y-145320200D01*
X57403620Y-145320200D01*
G37*
D24*
X58403620Y-149892200D03*
D25*
X56903620Y-149745700D03*
D24*
X55403620Y-149892200D03*
D26*
X56903620Y-147078700D03*
D11*
G36*
X56503620Y-148988400D02*
G01*
X55803620Y-147988400D01*
X58003620Y-147988400D01*
X57303620Y-148988400D01*
X56503620Y-148988400D01*
G37*
D27*
X91079320Y-131978400D03*
X91079320Y-130708400D03*
X91079320Y-129438400D03*
X91079320Y-128168400D03*
X84729320Y-128168400D03*
X84729320Y-129438400D03*
X84729320Y-130708400D03*
X84729320Y-131978400D03*
D21*
X66885820Y-110655800D03*
X66885820Y-109155800D03*
D14*
X73312720Y-113995200D03*
X71812720Y-113995200D03*
X76333920Y-109156500D03*
X77833920Y-109156500D03*
D21*
X87955120Y-138759500D03*
X87955120Y-140259500D03*
X87993220Y-120904700D03*
X87993220Y-119404700D03*
X51252120Y-120828500D03*
X51252120Y-119328500D03*
X80068420Y-109919200D03*
X80068420Y-108419200D03*
X52433220Y-105461500D03*
X52433220Y-103961500D03*
D14*
X47404720Y-157111700D03*
X45904720Y-157111700D03*
X101316220Y-147866100D03*
X99816220Y-147866100D03*
D21*
X75844400Y-157025340D03*
X75844400Y-155525340D03*
X75844400Y-154383740D03*
X75844400Y-152883740D03*
D14*
X91726320Y-136626600D03*
X93226320Y-136626600D03*
D28*
X52502720Y-149529800D03*
X46902720Y-149529800D03*
D20*
X55036720Y-152742900D03*
X58336720Y-152742900D03*
D18*
X97576640Y-155306460D03*
X97576640Y-153806460D03*
D19*
X69926900Y-141262100D03*
X68426900Y-141262100D03*
X87217820Y-133781800D03*
X88717820Y-133781800D03*
M02*
