G04 #@! TF.GenerationSoftware,KiCad,Pcbnew,5.1.5*
G04 #@! TF.CreationDate,2019-12-22T23:03:36+01:00*
G04 #@! TF.ProjectId,hh2020v1,68683230-3230-4763-912e-6b696361645f,rev?*
G04 #@! TF.SameCoordinates,Original*
G04 #@! TF.FileFunction,Other,User*
%FSLAX46Y46*%
G04 Gerber Fmt 4.6, Leading zero omitted, Abs format (unit mm)*
G04 Created by KiCad (PCBNEW 5.1.5) date 2019-12-22 23:03:36*
%MOMM*%
%LPD*%
G04 APERTURE LIST*
%ADD10C,0.050000*%
G04 APERTURE END LIST*
D10*
X97521209Y-140144546D02*
X102847266Y-137069546D01*
X93196209Y-132653426D02*
X97521209Y-140144546D01*
X98522266Y-129578426D02*
X93196209Y-132653426D01*
X102847266Y-137069546D02*
X98522266Y-129578426D01*
X56058520Y-136954100D02*
X50158520Y-136954100D01*
X56058520Y-145454100D02*
X56058520Y-136954100D01*
X50158520Y-145454100D02*
X56058520Y-145454100D01*
X50158520Y-136954100D02*
X50158520Y-145454100D01*
X83158520Y-122454100D02*
X89058520Y-122454100D01*
X83158520Y-113954100D02*
X83158520Y-122454100D01*
X89058520Y-113954100D02*
X83158520Y-113954100D01*
X89058520Y-122454100D02*
X89058520Y-113954100D01*
X99016220Y-149036200D02*
X102116220Y-149036200D01*
X99016220Y-149036200D02*
X99016220Y-150836200D01*
X102116220Y-150836200D02*
X102116220Y-149036200D01*
X102116220Y-150836200D02*
X99016220Y-150836200D01*
X83158520Y-145454100D02*
X89058520Y-145454100D01*
X83158520Y-136954100D02*
X83158520Y-145454100D01*
X89058520Y-136954100D02*
X83158520Y-136954100D01*
X89058520Y-145454100D02*
X89058520Y-136954100D01*
X56058520Y-113954100D02*
X50158520Y-113954100D01*
X56058520Y-122454100D02*
X56058520Y-113954100D01*
X50158520Y-122454100D02*
X56058520Y-122454100D01*
X50158520Y-113954100D02*
X50158520Y-122454100D01*
M02*
